<?xml version="1.0" encoding="utf-8"?>
<!-- Generator: Adobe Illustrator 24.1.1, SVG Export Plug-In . SVG Version: 6.00 Build 0)  -->
<svg version="1.1" xmlns="http://www.w3.org/2000/svg" xmlns:xlink="http://www.w3.org/1999/xlink" x="0px" y="0px"
	 viewBox="0 0 2752 714.81" style="enable-background:new 0 0 2752 714.81;" xml:space="preserve">
<style type="text/css">
	.st0{fill:#346589;}
</style>
<g id="фигура_1_">
	<g id="Фигура_1">
		<g>
			<path class="st0" d="M244.25,307.91c-34.44-32.82-108-96.91-126.79-121.91c-18.78-25.01-21.62-62.5,7.83-82.84
				c40.22-27.78,97.17,10.31,70.44,79.71c36,28.92,54.78,42.98,89.22,70.34c18.78-14.07,20.35-15.63,37.57-28.13
				c-29.33-85.41-40.7-118.79-59.48-170.37C269.3,37.51,273.99,23.45,283.38,0c-50.09,0-75.13,0-139.31,0
				C70.51,0,6.33,62.52,6.33,142.23c0,87.53,0,323.54,0,389.19c40.7,0,32.87,0,54.78,0c39.91,42.98,140.87,49.23,186.27,0
				c39.13,0,21.91,0,48.52,0c0-20.32,0-73.46,0-120.35S278.69,340.73,244.25,307.91z"/>
		</g>
	</g>
	<g id="Фигура_2">
		<g>
			<path class="st0" d="M299.04,648.65c-35.22,0-53.22-1.56-53.22-1.56c-43.04-49.23-150.26-48.45-187.83,0c-22.7,0-50.09,0-50.09,0
				s-1.57,23.45-1.57,65.65c62.61,0,254.35,0,294.27,0C300.6,690.85,299.04,648.65,299.04,648.65z"/>
		</g>
	</g>
</g>
<g id="Speaker">
	<g>
		<path d="M462.29,452.43c-9.46-4.14-11.24-7.1-11.24-20.11c0-32.53,2.37-68.02,2.96-77.48c0.59-8.87,2.37-15.38,7.1-15.38
			c5.32,0,5.91,5.32,5.91,10.05c0,7.69,2.37,20.11,5.32,30.16c13.01,43.77,47.9,59.74,84.56,59.74c53.22,0,79.24-36.08,79.24-67.43
			c0-28.98-8.87-56.19-57.95-94.63l-27.2-21.29c-65.05-50.87-87.52-92.27-87.52-140.18c0-65.06,54.4-111.79,136.6-111.79
			c38.44,0,63.27,5.91,78.65,10.06c5.32,1.18,8.28,2.96,8.28,7.1c0,7.69-2.37,24.84-2.37,70.98c0,13.01-1.77,17.74-6.5,17.74
			c-4.14,0-5.91-3.55-5.91-10.65c0-5.32-2.96-23.66-15.38-39.04c-8.87-11.24-26.02-28.98-64.46-28.98
			c-43.76,0-70.37,25.43-70.37,60.92c0,27.21,13.6,47.91,62.68,85.17l16.56,12.42c71.55,53.82,96.98,94.63,96.98,150.82
			c0,34.3-13.01,75.12-55.59,102.91c-29.57,18.93-62.68,24.25-94.02,24.25C514.33,467.81,487.72,463.67,462.29,452.43z"/>
		<path d="M803.83,248.02c0-68.67,0-81.44-0.53-95.82c-1.06-15.44-5.32-20.23-20.22-24.49c-3.73-1.06-11.71-1.6-18.63-1.6
			c-4.79,0-7.98-1.6-7.98-4.79c0-3.19,3.73-4.26,10.64-4.26c24.48,0,54.28,1.06,67.59,1.06c19.16,0,56.41-1.06,77.7-1.07
			c58.54,0,79.83,19.16,87.28,25.55c10.11,9.58,23.42,29.81,23.42,54.3c0,63.88-51.09,109.66-117.62,109.66
			c-2.13,0-11.71,0-13.84-0.53c-2.66,0-5.85-1.6-5.85-4.79c0-3.73,5.32-5.86,15.43-5.86c26.08,0,62.8-27.15,62.8-73.46
			c0-14.9-1.6-44.71-27.67-67.07c-17.03-14.9-36.19-17.03-46.83-17.03c-6.92,0-15.97,0.53-20.22,2.13
			c-2.66,1.06-3.73,3.73-3.73,8.52v179.39c0,41.52,0,77.19,2.13,96.88c1.6,12.78,4.26,21.29,18.09,23.42
			c6.92,1.06,17.03,1.6,23.95,1.6c5.32,0,7.45,2.66,7.45,4.79c0,3.19-3.73,4.79-8.51,4.79c-31.4,0-64.4-1.6-76.64-1.6
			c-10.64,0-40.45,1.6-59.07,1.6c-5.85,0-9.05-1.6-9.05-4.79c0-2.13,1.6-4.79,7.45-4.79c6.92,0,12.24-0.53,16.5-1.6
			c9.58-2.13,12.24-10.65,13.84-23.95c2.13-19.16,2.13-54.83,2.13-96.35V248.02z"/>
		<path d="M1107.72,248.02c0-68.67,0-81.44-0.53-95.82c-1.06-15.44-5.32-20.23-20.22-24.49c-3.73-1.06-11.71-1.6-18.63-1.6
			c-4.79,0-7.98-1.6-7.98-4.79c0-3.19,3.73-4.26,10.64-4.26c24.48,0,54.28,1.06,67.59,1.06c14.9,0,118.68,0.53,127.73,0
			c8.52-0.53,15.97-2.13,19.69-2.66c2.66-0.53,5.32-2.13,7.45-2.13c2.66,0,3.19,2.13,3.19,4.26c0,3.19-2.66,8.52-3.73,29.28
			c-0.53,4.79-1.6,24.49-2.66,29.81c-0.53,2.13-1.6,7.45-5.32,7.45c-3.19,0-3.73-2.13-3.73-5.86c0-3.19-0.53-11.18-3.19-16.5
			c-3.73-7.98-7.45-14.37-30.87-16.5c-7.98-1.06-63.86-2.13-73.44-2.13c-2.13,0-3.19,1.6-3.19,4.26V259.2
			c0,2.66,0.53,4.79,3.19,4.79c10.64,0,71.31,0,81.96-1.06c11.18-1.06,17.56-2.66,22.35-6.92c3.73-3.19,5.32-5.86,7.45-5.86
			s3.73,2.13,3.73,4.79s-1.06,10.11-3.73,33c-1.06,9.05-2.13,27.15-2.13,30.34c0,3.73-0.53,10.11-4.79,10.11
			c-3.19,0-4.26-1.6-4.26-3.73c-0.53-4.79-0.53-10.65-1.6-16.5c-2.66-9.05-8.52-15.97-26.08-17.57c-8.52-1.06-61.73-2.13-73.44-2.13
			c-2.13,0-2.66,2.13-2.66,4.79v36.2c0,15.44-0.53,53.76,0,67.07c1.06,30.88,15.43,37.79,63.33,37.79c12.24,0,31.93-0.53,44.17-5.86
			c11.71-5.32,17.03-14.91,20.22-33.54c1.06-4.79,2.13-6.92,5.32-6.92c3.73,0,4.26,5.86,4.26,10.65c0,10.11-3.73,40.99-6.39,50.04
			c-3.19,11.71-7.45,11.71-25.01,11.71c-35.13,0-63.33-0.53-86.22-1.6c-22.88-0.53-40.45-1.06-54.28-1.06
			c-5.32,0-15.43,0.53-26.61,0.53c-11.18,0.53-22.88,1.06-32.46,1.06c-5.85,0-9.05-1.6-9.05-4.79c0-2.13,1.6-4.79,7.45-4.79
			c6.92,0,12.24-0.53,16.5-1.6c9.58-2.13,12.24-10.65,13.84-23.95c2.13-19.16,2.13-54.83,2.13-96.35V248.02z"/>
		<path d="M1434.48,344.9c-2.66,0-3.19,0.53-4.26,3.19l-25.01,61.22c-4.79,11.18-6.92,22.36-6.92,27.68
			c0,7.99,4.26,12.78,18.63,12.78h6.92c5.85,0,6.92,2.13,6.92,4.79c0,3.73-2.66,4.79-7.45,4.79c-15.43,0-37.25-1.6-52.16-1.6
			c-4.79,0-29.8,1.6-54.28,1.6c-5.85,0-8.52-1.06-8.52-4.79c0-2.66,1.6-4.79,5.32-4.79c4.26,0,9.58-0.53,13.84-0.53
			c21.29-3.19,29.27-17.03,38.85-39.92l122.41-282.66c5.32-12.78,9.05-18.1,13.84-18.1c6.92,0,9.05,4.26,13.84,14.37
			c11.18,25.02,89.41,208.14,119.21,276.81c18.09,40.99,31.4,46.84,39.92,48.44c6.92,1.06,12.24,1.6,17.56,1.6
			c4.26,0,6.39,1.6,6.39,4.79c0,3.73-2.66,4.79-20.22,4.79c-16.5,0-50.56,0-89.94-1.06c-8.51-0.53-13.84-0.53-13.84-3.73
			c0-2.66,1.06-4.26,5.85-4.79c3.19-0.53,6.39-4.79,4.26-10.11l-36.19-91.56c-1.06-2.66-2.66-3.19-4.79-3.19H1434.48z
			 M1534.53,319.89c2.13,0,2.66-1.06,2.13-2.66l-44.17-113.38c-0.53-1.6-1.06-4.26-2.13-4.26c-1.6,0-2.13,2.66-2.66,4.26
			l-45.24,112.85c-1.06,2.13,0,3.19,1.6,3.19H1534.53z"/>
		<path d="M1811.81,268.25h2.13c15.97-17.03,84.09-84.11,97.92-99.54c13.3-14.9,23.42-25.55,23.42-33.54c0-4.79-2.13-7.98-6.39-9.05
			c-4.26-1.06-6.39-2.13-6.39-4.79c0-3.19,2.66-4.26,7.45-4.26c10.11,0,35.66,1.06,48.43,1.06c14.37,0,40.45-1.06,54.82-1.07
			c4.79,0,7.98,1.06,7.98,4.26c0,3.19-2.66,4.79-6.92,4.79c-6.92,0-18.63,2.13-27.14,5.32c-14.9,5.32-29.8,14.9-49.49,33.54
			c-14.9,13.84-84.62,79.85-98.99,96.35c16.5,21.29,108.57,117.11,126.66,134.14c20.76,18.63,38.85,38.33,63.86,48.44
			c13.84,5.86,23.42,5.86,28.74,5.86c3.73,0,6.39,2.13,6.39,4.79c0,3.19-2.66,4.79-11.18,4.79h-40.98c-13.84,0-22.35,0-32.46-1.06
			c-25.01-2.13-40.45-11.71-60.67-29.28c-20.22-17.57-110.16-121.9-120.28-135.74l-4.79-6.39h-2.13v40.99
			c0,41.52,0,77.19,1.06,96.88c1.06,12.78,5.32,21.29,17.03,23.42c6.39,1.06,17.03,1.6,22.88,1.6c3.73,0,6.39,2.66,6.39,4.79
			c0,3.19-3.73,4.79-9.05,4.79c-26.08,0-59.61-1.6-71.31-1.6c-10.64,0-40.45,1.6-59.07,1.6c-5.85,0-9.05-1.6-9.05-4.79
			c0-2.13,1.6-4.79,7.45-4.79c6.92,0,12.24-0.53,16.5-1.6c9.58-2.13,12.24-10.65,13.84-23.95c2.13-19.16,2.13-54.83,2.13-96.35
			v-79.85c0-68.67,0-81.44-0.53-95.82c-1.06-15.44-5.32-20.23-20.22-24.49c-3.73-1.06-11.71-1.6-18.63-1.6
			c-4.79,0-7.98-1.6-7.98-4.79c0-3.19,3.73-4.26,10.64-4.26c24.48,0,54.28,1.06,65.46,1.06c11.18,0,44.71-1.06,60.14-1.07
			c6.92,0,10.11,1.06,10.11,4.26c0,3.19-2.66,4.79-6.39,4.79c-4.79,0-7.45,0.53-13.3,1.6c-12.77,2.13-16.5,8.52-17.56,24.49
			c-0.53,14.37-0.53,27.15-0.53,95.82V268.25z"/>
		<path d="M2115.16,248.02c0-68.67,0-81.44-0.53-95.82c-1.06-15.44-5.32-20.23-20.22-24.49c-3.73-1.06-11.71-1.6-18.63-1.6
			c-4.79,0-7.98-1.6-7.98-4.79c0-3.19,3.73-4.26,10.64-4.26c24.48,0,54.28,1.06,67.59,1.06c14.9,0,118.68,0.53,127.73,0
			c8.52-0.53,15.97-2.13,19.69-2.66c2.66-0.53,5.32-2.13,7.45-2.13c2.66,0,3.19,2.13,3.19,4.26c0,3.19-2.66,8.52-3.72,29.28
			c-0.53,4.79-1.6,24.49-2.66,29.81c-0.53,2.13-1.6,7.45-5.32,7.45c-3.19,0-3.73-2.13-3.73-5.86c0-3.19-0.53-11.18-3.19-16.5
			c-3.72-7.98-7.45-14.37-30.87-16.5c-7.98-1.06-63.86-2.13-73.44-2.13c-2.13,0-3.19,1.6-3.19,4.26V259.2
			c0,2.66,0.53,4.79,3.19,4.79c10.64,0,71.31,0,81.96-1.06c11.18-1.06,17.56-2.66,22.35-6.92c3.73-3.19,5.32-5.86,7.45-5.86
			s3.73,2.13,3.73,4.79s-1.06,10.11-3.73,33c-1.06,9.05-2.13,27.15-2.13,30.34c0,3.73-0.53,10.11-4.79,10.11
			c-3.19,0-4.26-1.6-4.26-3.73c-0.53-4.79-0.53-10.65-1.6-16.5c-2.66-9.05-8.52-15.97-26.08-17.57c-8.51-1.06-61.73-2.13-73.44-2.13
			c-2.13,0-2.66,2.13-2.66,4.79v36.2c0,15.44-0.53,53.76,0,67.07c1.06,30.88,15.43,37.79,63.33,37.79c12.24,0,31.93-0.53,44.17-5.86
			c11.71-5.32,17.03-14.91,20.22-33.54c1.06-4.79,2.13-6.92,5.32-6.92c3.73,0,4.26,5.86,4.26,10.65c0,10.11-3.73,40.99-6.39,50.04
			c-3.19,11.71-7.45,11.71-25.01,11.71c-35.13,0-63.33-0.53-86.22-1.6c-22.88-0.53-40.45-1.06-54.28-1.06
			c-5.32,0-15.43,0.53-26.61,0.53c-11.18,0.53-22.88,1.06-32.46,1.06c-5.85,0-9.05-1.6-9.05-4.79c0-2.13,1.6-4.79,7.45-4.79
			c6.92,0,12.24-0.53,16.5-1.6c9.58-2.13,12.24-10.65,13.84-23.95c2.13-19.16,2.13-54.83,2.13-96.35V248.02z"/>
		<path d="M2411.06,248.02c0-68.67,0-81.44-0.53-95.82c-1.06-15.44-5.32-20.23-20.22-24.49c-3.73-1.06-11.71-1.6-18.63-1.6
			c-4.79,0-7.98-1.6-7.98-4.79c0-3.19,3.73-4.26,10.64-4.26c24.48,0,54.28,1.06,63.86,1.06c15.97,0,58.54-1.06,72.91-1.07
			c29.8,0,63.86,2.66,88.88,19.16c13.31,9.05,33,31.94,33,62.28c0,33.54-19.16,63.35-64.93,100.08
			c41.51,51.1,74.51,92.09,102.71,120.3c26.08,26.08,42.58,28.21,50.03,29.81c4.79,1.07,7.45,1.07,11.18,1.07
			c3.72,0,5.85,2.66,5.85,4.79c0,3.73-3.19,4.79-9.05,4.79h-44.71c-26.08,0-38.85-2.66-51.09-9.05
			c-20.22-10.11-37.79-31.41-63.86-66.54c-18.63-24.49-38.32-54.83-44.17-61.75c-2.66-2.66-5.32-3.19-8.52-3.19l-42.04-1.06
			c-2.13,0-3.73,1.06-3.73,3.73v6.39c0,42.05,0.53,77.19,2.66,96.35c1.6,13.31,3.73,21.83,18.09,23.95
			c6.92,1.06,17.03,1.6,22.88,1.6c3.73,0,5.85,2.66,5.85,4.79c0,3.19-3.73,4.79-9.58,4.79c-27.14,0-65.99-1.6-72.91-1.6
			c-9.05,0-38.85,1.6-57.48,1.6c-5.85,0-9.05-1.6-9.05-4.79c0-2.13,1.6-4.79,7.45-4.79c6.92,0,12.24-0.53,16.5-1.6
			c9.58-2.13,12.24-10.65,13.84-23.95c2.13-19.16,2.13-54.83,2.13-96.35V248.02z M2470.67,283.16c0,4.79,1.06,6.39,4.26,7.98
			c10.11,3.19,23.95,4.26,35.66,4.26c18.63,0,25.01-1.6,33-7.45c14.37-10.11,30.33-29.81,30.33-67.07
			c0-63.88-43.64-80.38-71.31-80.38c-11.71,0-22.88,0.53-27.67,1.6c-3.19,1.06-4.26,2.66-4.26,6.39V283.16z"/>
	</g>
</g>
<g id="International_law_firm">
	<g>
		<path d="M472.06,634.97c0-25.44,0-30.13-0.34-35.48c-0.34-5.69-2.01-8.54-5.71-9.37c-1.85-0.5-4.03-0.67-6.04-0.67
			c-1.68,0-2.69-0.33-2.69-1.67c0-1,1.34-1.34,4.03-1.34c6.38,0,16.95,0.5,21.82,0.5c4.2,0,14.1-0.5,20.47-0.5
			c2.18,0,3.52,0.33,3.52,1.34c0,1.34-1.01,1.67-2.69,1.67c-1.68,0-3.02,0.17-5.03,0.5c-4.53,0.84-5.87,3.68-6.21,9.54
			c-0.34,5.36-0.34,10.04-0.34,35.48v29.46c0,16.24,0,29.46,0.67,36.65c0.5,4.52,1.68,7.53,6.71,8.2c2.35,0.33,6.04,0.67,8.56,0.67
			c1.85,0,2.69,0.5,2.69,1.34c0,1.17-1.34,1.67-3.19,1.67c-11.08,0-21.65-0.5-26.18-0.5c-3.86,0-14.43,0.5-21.15,0.5
			c-2.18,0-3.36-0.5-3.36-1.67c0-0.84,0.67-1.34,2.69-1.34c2.52,0,4.53-0.33,6.04-0.67c3.36-0.67,4.36-3.52,4.87-8.37
			c0.84-7.03,0.84-20.25,0.84-36.49V634.97z"/>
		<path d="M550.44,693.55c0.34,11.05,2.18,14.39,5.03,15.4c2.52,0.84,5.37,1,7.72,1c1.68,0,2.52,0.67,2.52,1.51
			c0,1.17-1.34,1.51-3.36,1.51c-9.57,0-16.45-0.5-19.13-0.5c-1.34,0-8.39,0.5-15.94,0.5c-2.01,0-3.36-0.17-3.36-1.51
			c0-0.84,1.01-1.51,2.35-1.51c2.01,0,4.7-0.17,6.71-0.67c3.86-1,4.36-4.85,4.53-17.24l1.34-84.36c0-2.84,1.01-4.85,2.52-4.85
			c1.85,0,3.86,2.18,6.38,4.69c1.85,1.84,24,24.44,45.48,45.36c10.07,9.88,29.7,29.96,31.89,31.97h0.67l-1.51-63.27
			c-0.17-8.7-1.51-11.21-5.03-12.55c-2.18-0.84-5.71-0.84-7.72-0.84c-1.85,0-2.35-0.67-2.35-1.51c0-1.17,1.51-1.34,3.69-1.34
			c7.72,0,15.61,0.33,18.8,0.33c1.68,0,7.22-0.33,14.43-0.33c2.01,0,3.36,0.17,3.36,1.34c0,0.84-0.84,1.51-2.52,1.51
			c-1.51,0-2.69,0-4.53,0.5c-4.03,1.17-5.2,3.68-5.37,11.72l-1.68,89.71c0,3.18-1.17,4.52-2.35,4.52c-2.52,0-4.53-1.51-6.04-3.01
			c-9.23-8.54-27.69-26.11-43.13-41.01c-16.11-15.4-31.72-32.64-34.57-35.15h-0.5L550.44,693.55z"/>
		<path d="M701.98,614.05l-21.98,0.5c-8.56,0.17-12.08,1.17-14.26,4.35c-1.51,2.01-2.18,3.85-2.52,4.85
			c-0.34,1.17-0.67,1.84-1.68,1.84s-1.34-0.84-1.34-2.34c0-2.34,2.85-16.07,3.19-17.24c0.34-1.84,0.84-2.68,1.68-2.68
			c1.17,0,2.69,1.17,6.38,1.67c4.36,0.5,9.9,0.67,14.77,0.67h59.91c4.7,0,7.89-0.33,10.07-0.67c2.35-0.33,3.52-0.67,4.03-0.67
			c1.01,0,1.17,0.84,1.17,3.01c0,3.01-0.34,13.56-0.34,17.24c-0.17,1.51-0.5,2.34-1.34,2.34c-1.17,0-1.51-0.67-1.68-2.84l-0.17-1.51
			c-0.34-3.68-4.2-8.03-17.45-8.2l-18.63-0.33v57.58c0,13.05,0.17,24.27,0.84,30.46c0.5,4.02,1.34,6.69,5.71,7.36
			c2.01,0.33,5.37,0.5,7.55,0.5c1.68,0,2.35,0.84,2.35,1.51c0,1-1.17,1.51-2.85,1.51c-9.73,0-19.63-0.5-23.83-0.5
			c-3.36,0-13.43,0.5-19.3,0.5c-1.85,0-2.85-0.5-2.85-1.51c0-0.67,0.5-1.51,2.35-1.51c2.18,0,4.03-0.17,5.2-0.5
			c3.02-0.67,3.86-3.35,4.36-7.53c0.67-6.03,0.67-17.24,0.67-30.29V614.05z"/>
		<path d="M788.58,646.52c0-21.59,0-25.61-0.17-30.13c-0.34-4.85-1.68-6.36-6.38-7.7c-1.17-0.33-3.69-0.5-5.87-0.5
			c-1.51,0-2.52-0.5-2.52-1.51s1.17-1.34,3.36-1.34c7.72,0,17.12,0.33,21.31,0.33c4.7,0,37.42,0.17,40.28,0
			c2.69-0.17,5.03-0.67,6.21-0.84c0.84-0.17,1.68-0.67,2.35-0.67c0.84,0,1.01,0.67,1.01,1.34c0,1-0.84,2.68-1.17,9.21
			c-0.17,1.51-0.5,7.7-0.84,9.37c-0.17,0.67-0.5,2.34-1.68,2.34c-1.01,0-1.17-0.67-1.17-1.84c0-1-0.17-3.51-1.01-5.19
			c-1.17-2.51-2.35-4.52-9.73-5.19c-2.52-0.33-20.14-0.67-23.16-0.67c-0.67,0-1.01,0.5-1.01,1.34v35.15c0,0.84,0.17,1.51,1.01,1.51
			c3.36,0,22.49,0,25.84-0.33c3.52-0.33,5.54-0.84,7.05-2.18c1.17-1,1.68-1.84,2.35-1.84c0.67,0,1.17,0.67,1.17,1.51
			s-0.34,3.18-1.17,10.38c-0.34,2.85-0.67,8.54-0.67,9.54c0,1.17-0.17,3.18-1.51,3.18c-1.01,0-1.34-0.5-1.34-1.17
			c-0.17-1.51-0.17-3.35-0.5-5.19c-0.84-2.84-2.69-5.02-8.22-5.52c-2.69-0.33-19.47-0.67-23.16-0.67c-0.67,0-0.84,0.67-0.84,1.51
			v11.38c0,4.85-0.17,16.9,0,21.09c0.34,9.71,4.87,11.88,19.97,11.88c3.86,0,10.07-0.17,13.93-1.84c3.69-1.67,5.37-4.69,6.38-10.54
			c0.34-1.51,0.67-2.18,1.68-2.18c1.17,0,1.34,1.84,1.34,3.35c0,3.18-1.17,12.89-2.01,15.73c-1.01,3.68-2.35,3.68-7.89,3.68
			c-11.08,0-19.97-0.17-27.19-0.5c-7.22-0.17-12.75-0.33-17.12-0.33c-1.68,0-4.87,0.17-8.39,0.17c-3.52,0.17-7.22,0.33-10.24,0.33
			c-1.85,0-2.85-0.5-2.85-1.51c0-0.67,0.5-1.51,2.35-1.51c2.18,0,3.86-0.17,5.2-0.5c3.02-0.67,3.86-3.35,4.36-7.53
			c0.67-6.03,0.67-17.24,0.67-30.29V646.52z"/>
		<path d="M881.89,646.52c0-21.59,0-25.61-0.17-30.13c-0.34-4.85-1.68-6.36-6.38-7.7c-1.17-0.33-3.69-0.5-5.87-0.5
			c-1.51,0-2.52-0.5-2.52-1.51s1.17-1.34,3.36-1.34c7.72,0,17.12,0.33,20.14,0.33c5.03,0,18.46-0.33,22.99-0.33
			c9.4,0,20.14,0.84,28.03,6.03c4.2,2.85,10.4,10.04,10.4,19.58c0,10.54-6.04,19.92-20.47,31.47
			c13.09,16.07,23.49,28.96,32.39,37.83c8.22,8.2,13.43,8.87,15.77,9.37c1.51,0.33,2.35,0.33,3.52,0.33c1.17,0,1.85,0.84,1.85,1.51
			c0,1.17-1.01,1.51-2.85,1.51h-14.1c-8.22,0-12.25-0.84-16.11-2.84c-6.38-3.18-11.92-9.88-20.14-20.92
			c-5.87-7.7-12.08-17.24-13.93-19.42c-0.84-0.84-1.68-1-2.69-1l-13.26-0.33c-0.67,0-1.17,0.33-1.17,1.17v2.01
			c0,13.22,0.17,24.27,0.84,30.29c0.5,4.18,1.17,6.86,5.71,7.53c2.18,0.33,5.37,0.5,7.22,0.5c1.17,0,1.85,0.84,1.85,1.51
			c0,1-1.17,1.51-3.02,1.51c-8.56,0-20.81-0.5-22.99-0.5c-2.85,0-12.25,0.5-18.12,0.5c-1.85,0-2.85-0.5-2.85-1.51
			c0-0.67,0.5-1.51,2.35-1.51c2.18,0,3.86-0.17,5.2-0.5c3.02-0.67,3.86-3.35,4.36-7.53c0.67-6.03,0.67-17.24,0.67-30.29V646.52z
			 M900.68,657.57c0,1.51,0.34,2.01,1.34,2.51c3.19,1,7.55,1.34,11.24,1.34c5.87,0,7.89-0.5,10.4-2.34
			c4.53-3.18,9.57-9.37,9.57-21.09c0-20.08-13.76-25.27-22.49-25.27c-3.69,0-7.22,0.17-8.73,0.5c-1.01,0.33-1.34,0.84-1.34,2.01
			V657.57z"/>
		<path d="M1006.24,693.55c0.34,11.05,2.18,14.39,5.03,15.4c2.52,0.84,5.37,1,7.72,1c1.68,0,2.52,0.67,2.52,1.51
			c0,1.17-1.34,1.51-3.36,1.51c-9.57,0-16.45-0.5-19.13-0.5c-1.34,0-8.39,0.5-15.94,0.5c-2.01,0-3.36-0.17-3.36-1.51
			c0-0.84,1.01-1.51,2.35-1.51c2.01,0,4.7-0.17,6.71-0.67c3.86-1,4.36-4.85,4.53-17.24l1.34-84.36c0-2.84,1.01-4.85,2.52-4.85
			c1.85,0,3.86,2.18,6.38,4.69c1.85,1.84,24,24.44,45.48,45.36c10.07,9.88,29.7,29.96,31.89,31.97h0.67l-1.51-63.27
			c-0.17-8.7-1.51-11.21-5.03-12.55c-2.18-0.84-5.71-0.84-7.72-0.84c-1.85,0-2.35-0.67-2.35-1.51c0-1.17,1.51-1.34,3.69-1.34
			c7.72,0,15.61,0.33,18.8,0.33c1.68,0,7.22-0.33,14.43-0.33c2.01,0,3.36,0.17,3.36,1.34c0,0.84-0.84,1.51-2.52,1.51
			c-1.51,0-2.69,0-4.53,0.5c-4.03,1.17-5.2,3.68-5.37,11.72l-1.68,89.71c0,3.18-1.17,4.52-2.35,4.52c-2.52,0-4.53-1.51-6.04-3.01
			c-9.23-8.54-27.69-26.11-43.13-41.01c-16.11-15.4-31.72-32.64-34.57-35.15h-0.5L1006.24,693.55z"/>
		<path d="M1144.53,676.98c-0.84,0-1.01,0.17-1.34,1l-7.89,19.25c-1.51,3.52-2.18,7.03-2.18,8.7c0,2.51,1.34,4.02,5.87,4.02h2.18
			c1.85,0,2.18,0.67,2.18,1.51c0,1.17-0.84,1.51-2.35,1.51c-4.87,0-11.75-0.5-16.45-0.5c-1.51,0-9.4,0.5-17.12,0.5
			c-1.85,0-2.69-0.33-2.69-1.51c0-0.84,0.5-1.51,1.68-1.51c1.34,0,3.02-0.17,4.36-0.17c6.71-1,9.23-5.36,12.25-12.55l38.6-88.88
			c1.68-4.02,2.85-5.69,4.36-5.69c2.18,0,2.85,1.34,4.36,4.52c3.52,7.87,28.19,65.44,37.59,87.03c5.71,12.89,9.9,14.73,12.59,15.23
			c2.18,0.33,3.86,0.5,5.54,0.5c1.34,0,2.01,0.5,2.01,1.51c0,1.17-0.84,1.51-6.38,1.51c-5.2,0-15.94,0-28.36-0.33
			c-2.69-0.17-4.36-0.17-4.36-1.17c0-0.84,0.34-1.34,1.85-1.51c1.01-0.17,2.01-1.51,1.34-3.18l-11.41-28.79
			c-0.34-0.84-0.84-1-1.51-1H1144.53z M1176.07,669.12c0.67,0,0.84-0.33,0.67-0.84l-13.93-35.65c-0.17-0.5-0.34-1.34-0.67-1.34
			c-0.5,0-0.67,0.84-0.84,1.34l-14.26,35.48c-0.34,0.67,0,1,0.5,1H1176.07z"/>
		<path d="M1252.94,614.05l-21.98,0.5c-8.56,0.17-12.08,1.17-14.26,4.35c-1.51,2.01-2.18,3.85-2.52,4.85
			c-0.34,1.17-0.67,1.84-1.68,1.84s-1.34-0.84-1.34-2.34c0-2.34,2.85-16.07,3.19-17.24c0.34-1.84,0.84-2.68,1.68-2.68
			c1.17,0,2.69,1.17,6.38,1.67c4.36,0.5,9.9,0.67,14.77,0.67h59.91c4.7,0,7.89-0.33,10.07-0.67c2.35-0.33,3.52-0.67,4.03-0.67
			c1.01,0,1.17,0.84,1.17,3.01c0,3.01-0.34,13.56-0.34,17.24c-0.17,1.51-0.5,2.34-1.34,2.34c-1.17,0-1.51-0.67-1.68-2.84l-0.17-1.51
			c-0.34-3.68-4.2-8.03-17.45-8.2l-18.63-0.33v57.58c0,13.05,0.17,24.27,0.84,30.46c0.5,4.02,1.34,6.69,5.71,7.36
			c2.01,0.33,5.37,0.5,7.55,0.5c1.68,0,2.35,0.84,2.35,1.51c0,1-1.17,1.51-2.85,1.51c-9.73,0-19.63-0.5-23.83-0.5
			c-3.36,0-13.43,0.5-19.3,0.5c-1.85,0-2.85-0.5-2.85-1.51c0-0.67,0.5-1.51,2.35-1.51c2.18,0,4.03-0.17,5.2-0.5
			c3.02-0.67,3.86-3.35,4.36-7.53c0.67-6.03,0.67-17.24,0.67-30.29V614.05z"/>
		<path d="M1339.54,646.52c0-21.59,0-25.61-0.17-30.13c-0.34-4.85-1.85-6.53-5.03-7.53c-1.68-0.5-3.52-0.67-5.37-0.67
			c-1.51,0-2.35-0.33-2.35-1.67c0-0.84,1.17-1.17,3.52-1.17c5.54,0,15.61,0.33,19.8,0.33c3.69,0,13.26-0.33,18.96-0.33
			c1.85,0,3.02,0.33,3.02,1.17c0,1.34-0.84,1.67-2.35,1.67c-1.51,0-2.69,0.17-4.36,0.5c-4.03,0.67-5.2,2.68-5.54,7.7
			c-0.34,4.52-0.34,8.54-0.34,30.13v25.11c0,13.72,0,25.11,0.67,31.13c0.5,3.85,1.51,6.03,5.87,6.7c2.01,0.33,5.37,0.5,7.55,0.5
			c1.68,0,2.35,0.84,2.35,1.51c0,1-1.17,1.51-2.85,1.51c-9.73,0-19.8-0.5-23.83-0.5c-3.36,0-13.43,0.5-19.3,0.5
			c-1.85,0-2.85-0.5-2.85-1.51c0-0.67,0.5-1.51,2.35-1.51c2.18,0,3.86-0.17,5.2-0.5c3.02-0.67,3.86-2.68,4.36-6.86
			c0.67-5.86,0.67-17.24,0.67-30.96V646.52z"/>
		<path d="M1390.05,659.07c0-24.27,17.12-55.74,61.92-55.74c37.25,0,60.41,20.59,60.41,53.23c0,32.64-23.83,58.25-61.92,58.25
			C1407.51,714.81,1390.05,684.35,1390.05,659.07z M1490.41,661.75c0-31.47-18.96-50.88-42.79-50.88c-16.45,0-35.75,8.7-35.75,43.85
			c0,29.29,16.78,52.39,44.64,52.39C1466.91,707.11,1490.41,702.26,1490.41,661.75z"/>
		<path d="M1549.15,693.55c0.34,11.05,2.18,14.39,5.03,15.4c2.52,0.84,5.37,1,7.72,1c1.68,0,2.52,0.67,2.52,1.51
			c0,1.17-1.34,1.51-3.36,1.51c-9.57,0-16.45-0.5-19.13-0.5c-1.34,0-8.39,0.5-15.94,0.5c-2.01,0-3.36-0.17-3.36-1.51
			c0-0.84,1.01-1.51,2.35-1.51c2.01,0,4.7-0.17,6.71-0.67c3.86-1,4.36-4.85,4.53-17.24l1.34-84.36c0-2.84,1.01-4.85,2.52-4.85
			c1.85,0,3.86,2.18,6.38,4.69c1.85,1.84,24,24.44,45.48,45.36c10.07,9.88,29.7,29.96,31.88,31.97h0.67l-1.51-63.27
			c-0.17-8.7-1.51-11.21-5.03-12.55c-2.18-0.84-5.71-0.84-7.72-0.84c-1.85,0-2.35-0.67-2.35-1.51c0-1.17,1.51-1.34,3.69-1.34
			c7.72,0,15.61,0.33,18.79,0.33c1.68,0,7.22-0.33,14.43-0.33c2.01,0,3.36,0.17,3.36,1.34c0,0.84-0.84,1.51-2.52,1.51
			c-1.51,0-2.68,0-4.53,0.5c-4.03,1.17-5.2,3.68-5.37,11.72l-1.68,89.71c0,3.18-1.17,4.52-2.35,4.52c-2.52,0-4.53-1.51-6.04-3.01
			c-9.23-8.54-27.69-26.11-43.13-41.01c-16.11-15.4-31.72-32.64-34.57-35.15h-0.5L1549.15,693.55z"/>
		<path d="M1687.43,676.98c-0.84,0-1.01,0.17-1.34,1l-7.89,19.25c-1.51,3.52-2.18,7.03-2.18,8.7c0,2.51,1.34,4.02,5.87,4.02h2.18
			c1.85,0,2.18,0.67,2.18,1.51c0,1.17-0.84,1.51-2.35,1.51c-4.87,0-11.75-0.5-16.45-0.5c-1.51,0-9.4,0.5-17.12,0.5
			c-1.85,0-2.68-0.33-2.68-1.51c0-0.84,0.5-1.51,1.68-1.51c1.34,0,3.02-0.17,4.36-0.17c6.71-1,9.23-5.36,12.25-12.55l38.6-88.88
			c1.68-4.02,2.85-5.69,4.36-5.69c2.18,0,2.85,1.34,4.36,4.52c3.52,7.87,28.19,65.44,37.59,87.03c5.71,12.89,9.9,14.73,12.59,15.23
			c2.18,0.33,3.86,0.5,5.54,0.5c1.34,0,2.01,0.5,2.01,1.51c0,1.17-0.84,1.51-6.38,1.51c-5.2,0-15.94,0-28.36-0.33
			c-2.68-0.17-4.36-0.17-4.36-1.17c0-0.84,0.34-1.34,1.85-1.51c1.01-0.17,2.01-1.51,1.34-3.18l-11.41-28.79
			c-0.34-0.84-0.84-1-1.51-1H1687.43z M1718.98,669.12c0.67,0,0.84-0.33,0.67-0.84l-13.93-35.65c-0.17-0.5-0.34-1.34-0.67-1.34
			c-0.5,0-0.67,0.84-0.84,1.34l-14.26,35.48c-0.33,0.67,0,1,0.5,1H1718.98z"/>
		<path d="M1806.92,671.63c0,18.24,0,27.28,3.19,29.96c2.52,2.18,8.22,3.01,19.63,3.01c7.89,0,13.59-0.17,17.29-4.02
			c1.85-1.84,3.36-5.86,3.69-8.54c0.17-1.34,0.5-2.18,1.68-2.18c1.01,0,1.34,1.51,1.34,3.18s-1.01,12.22-2.18,16.4
			c-1.01,3.18-1.68,3.85-9.4,3.85c-10.57,0-19.13-0.17-26.51-0.5c-7.38-0.17-13.59-0.33-19.63-0.33c-1.68,0-4.87,0.17-8.39,0.17
			c-3.52,0.17-7.22,0.33-10.24,0.33c-1.85,0-2.85-0.5-2.85-1.51c0-0.67,0.5-1.51,2.35-1.51c2.18,0,3.86-0.17,5.2-0.5
			c3.02-0.67,3.86-3.35,4.36-7.53c0.67-6.03,0.67-17.24,0.67-30.29v-25.11c0-21.59,0-25.61-0.17-30.13
			c-0.34-4.85-1.68-6.36-6.38-7.7c-1.17-0.33-3.02-0.5-4.87-0.5c-1.68,0-2.52-0.5-2.52-1.51s1.01-1.34,3.19-1.34
			c6.88,0,16.28,0.33,20.31,0.33c3.52,0,15.61-0.33,21.31-0.33c2.18,0,3.19,0.33,3.19,1.34s-0.84,1.51-2.69,1.51
			c-1.68,0-4.03,0.17-5.71,0.5c-4.03,0.67-5.2,2.68-5.54,7.7c-0.34,4.52-0.34,8.54-0.34,30.13V671.63z"/>
		<path d="M1949.9,671.63c0,18.24,0,27.28,3.19,29.96c2.52,2.18,8.22,3.01,19.63,3.01c7.89,0,13.59-0.17,17.29-4.02
			c1.85-1.84,3.36-5.86,3.69-8.54c0.17-1.34,0.5-2.18,1.68-2.18c1.01,0,1.34,1.51,1.34,3.18s-1.01,12.22-2.18,16.4
			c-1.01,3.18-1.68,3.85-9.4,3.85c-10.57,0-19.13-0.17-26.51-0.5c-7.38-0.17-13.59-0.33-19.63-0.33c-1.68,0-4.87,0.17-8.39,0.17
			c-3.52,0.17-7.22,0.33-10.24,0.33c-1.85,0-2.85-0.5-2.85-1.51c0-0.67,0.5-1.51,2.35-1.51c2.18,0,3.86-0.17,5.2-0.5
			c3.02-0.67,3.86-3.35,4.36-7.53c0.67-6.03,0.67-17.24,0.67-30.29v-25.11c0-21.59,0-25.61-0.17-30.13
			c-0.34-4.85-1.68-6.36-6.38-7.7c-1.17-0.33-3.02-0.5-4.87-0.5c-1.68,0-2.52-0.5-2.52-1.51s1.01-1.34,3.19-1.34
			c6.88,0,16.28,0.33,20.31,0.33c3.52,0,15.61-0.33,21.31-0.33c2.18,0,3.19,0.33,3.19,1.34s-0.84,1.51-2.69,1.51
			c-1.68,0-4.03,0.17-5.71,0.5c-4.03,0.67-5.2,2.68-5.54,7.7c-0.34,4.52-0.34,8.54-0.34,30.13V671.63z"/>
		<path d="M2032.47,676.98c-0.84,0-1.01,0.17-1.34,1l-7.89,19.25c-1.51,3.52-2.18,7.03-2.18,8.7c0,2.51,1.34,4.02,5.87,4.02h2.18
			c1.85,0,2.18,0.67,2.18,1.51c0,1.17-0.84,1.51-2.35,1.51c-4.87,0-11.75-0.5-16.45-0.5c-1.51,0-9.4,0.5-17.12,0.5
			c-1.85,0-2.68-0.33-2.68-1.51c0-0.84,0.5-1.51,1.68-1.51c1.34,0,3.02-0.17,4.36-0.17c6.71-1,9.23-5.36,12.25-12.55l38.6-88.88
			c1.68-4.02,2.85-5.69,4.36-5.69c2.18,0,2.85,1.34,4.36,4.52c3.52,7.87,28.19,65.44,37.59,87.03c5.71,12.89,9.9,14.73,12.59,15.23
			c2.18,0.33,3.86,0.5,5.54,0.5c1.34,0,2.01,0.5,2.01,1.51c0,1.17-0.84,1.51-6.38,1.51c-5.2,0-15.94,0-28.36-0.33
			c-2.68-0.17-4.36-0.17-4.36-1.17c0-0.84,0.34-1.34,1.85-1.51c1.01-0.17,2.01-1.51,1.34-3.18l-11.41-28.79
			c-0.34-0.84-0.84-1-1.51-1H2032.47z M2064.02,669.12c0.67,0,0.84-0.33,0.67-0.84l-13.93-35.65c-0.17-0.5-0.34-1.34-0.67-1.34
			c-0.5,0-0.67,0.84-0.84,1.34l-14.26,35.48c-0.33,0.67,0,1,0.5,1H2064.02z"/>
		<path d="M2111.01,619.24c-1.85-5.19-3.02-8.54-5.2-9.88c-1.51-1-4.36-1.17-5.71-1.17c-1.51,0-2.35-0.5-2.35-1.51
			s1.17-1.34,3.36-1.34c7.55,0,15.78,0.33,17.12,0.33c1.34,0,8.56-0.33,17.12-0.33c2.18,0,3.19,0.33,3.19,1.34s-1.17,1.51-2.69,1.51
			c-1.17,0-2.52,0.17-3.69,0.67c-1.34,0.5-1.51,1.34-1.51,2.85c0,1.84,1.34,6.53,3.19,13.05c2.52,9.37,15.94,52.39,18.12,58.92h0.5
			l28.19-72.81c1.51-4.02,3.02-5.19,4.36-5.19c1.68,0,3.02,2.18,4.87,6.69l29.54,70.3h0.5c2.85-8.2,14.1-45.69,19.3-62.26
			c1.01-3.35,1.51-6.19,1.51-8.2c0-2.34-1.34-4.02-7.22-4.02c-1.34,0-2.52-0.67-2.52-1.51c0-1,1.17-1.34,3.52-1.34
			c7.72,0,14.43,0.33,15.78,0.33c1.01,0,7.38-0.33,12.25-0.33c1.68,0,2.69,0.33,2.69,1.17c0,1-0.67,1.67-2.01,1.67
			c-1.51,0-3.52,0.17-5.2,0.67c-3.52,1.34-5.2,6.7-8.22,14.9c-6.88,17.91-21.98,63.1-29.2,84.36c-1.68,5.02-2.52,6.69-4.7,6.69
			c-2.01,0-3.02-1.67-5.2-6.86l-30.04-70.3h-0.33c-2.52,6.03-22.32,56.57-28.36,69.63c-2.68,5.86-3.52,7.53-5.71,7.53
			c-1.85,0-2.68-1.51-4.03-5.19L2111.01,619.24z"/>
		<path d="M2355.02,672.13c0,13.72,0.17,23.77,0.84,29.79c0.5,4.18,1.51,6.86,5.87,7.53c2.01,0.33,5.2,0.5,7.22,0.5
			c1.85,0,2.52,0.84,2.52,1.51c0,1-1.01,1.51-3.19,1.51c-9.4,0-19.8-0.5-23.66-0.5c-3.86,0-13.26,0.5-18.8,0.5
			c-2.01,0-3.02-0.33-3.02-1.51c0-0.67,0.5-1.51,2.18-1.51c2.18,0,3.86-0.17,5.2-0.5c3.02-0.67,3.86-3.35,4.36-7.53
			c0.67-6.03,0.67-16.57,0.67-30.29v-25.11c0-21.59,0-25.61-0.17-30.13c-0.34-4.85-1.68-6.53-6.38-7.7c-1.17-0.33-3.69-0.5-5.87-0.5
			c-1.34,0-2.52-0.5-2.52-1.51s1.17-1.34,3.52-1.34c7.55,0,16.95,0.33,21.14,0.33c5.71,0,38.43,0.17,41.95,0
			c2.69-0.17,4.53-0.33,6.04-0.67c0.84-0.17,1.51-0.84,2.35-0.84c0.5,0,1.01,0.67,1.01,1.34c0,1-0.67,2.68-1.17,6.36
			c-0.17,1.51-0.5,9.88-0.67,11.55c-0.17,1.17-0.5,2.85-1.51,2.85s-1.85-0.67-1.85-2.34c0-1.17,0.17-3.35-0.84-5.36
			s-3.86-4.18-9.4-4.35l-24.5-0.5c-0.84,0-1.34,0.33-1.34,2.01v34.48c0,0.84,0.17,1.34,1.01,1.34l20.64-0.17
			c2.52,0,4.53,0,6.71-0.17c2.68-0.17,4.87-0.67,6.21-2.51c0.84-0.84,1.17-1.51,2.01-1.51c0.5,0,0.84,0.5,0.84,1.34
			s-0.67,4.69-1.17,9.21c-0.33,2.85-0.5,9.37-0.5,10.38c0,1.17-0.17,3.18-1.68,3.18c-0.84,0-1.34-1-1.34-2.01
			c0-1-0.34-2.68-1.01-4.35c-0.67-2.01-2.52-4.85-7.05-5.19c-3.69-0.33-21.14-0.5-23.66-0.5c-0.67,0-1.01,0.17-1.01,1.17V672.13z"/>
		<path d="M2427.01,646.52c0-21.59,0-25.61-0.17-30.13c-0.34-4.85-1.85-6.53-5.04-7.53c-1.68-0.5-3.52-0.67-5.37-0.67
			c-1.51,0-2.35-0.33-2.35-1.67c0-0.84,1.17-1.17,3.52-1.17c5.54,0,15.61,0.33,19.8,0.33c3.69,0,13.26-0.33,18.96-0.33
			c1.85,0,3.02,0.33,3.02,1.17c0,1.34-0.84,1.67-2.35,1.67c-1.51,0-2.69,0.17-4.36,0.5c-4.03,0.67-5.2,2.68-5.54,7.7
			c-0.34,4.52-0.34,8.54-0.34,30.13v25.11c0,13.72,0,25.11,0.67,31.13c0.5,3.85,1.51,6.03,5.87,6.7c2.01,0.33,5.37,0.5,7.55,0.5
			c1.68,0,2.35,0.84,2.35,1.51c0,1-1.17,1.51-2.85,1.51c-9.73,0-19.8-0.5-23.83-0.5c-3.36,0-13.43,0.5-19.3,0.5
			c-1.85,0-2.85-0.5-2.85-1.51c0-0.67,0.5-1.51,2.35-1.51c2.18,0,3.86-0.17,5.2-0.5c3.02-0.67,3.86-2.68,4.36-6.86
			c0.67-5.86,0.67-17.24,0.67-30.96V646.52z"/>
		<path d="M2495.32,646.52c0-21.59,0-25.61-0.17-30.13c-0.34-4.85-1.68-6.36-6.38-7.7c-1.17-0.33-3.69-0.5-5.87-0.5
			c-1.51,0-2.52-0.5-2.52-1.51s1.17-1.34,3.36-1.34c7.72,0,17.12,0.33,20.14,0.33c5.03,0,18.46-0.33,22.99-0.33
			c9.4,0,20.14,0.84,28.03,6.03c4.2,2.85,10.4,10.04,10.4,19.58c0,10.54-6.04,19.92-20.47,31.47c13.09,16.07,23.5,28.96,32.39,37.83
			c8.22,8.2,13.43,8.87,15.78,9.37c1.51,0.33,2.35,0.33,3.52,0.33s1.85,0.84,1.85,1.51c0,1.17-1.01,1.51-2.85,1.51h-14.1
			c-8.22,0-12.25-0.84-16.11-2.84c-6.38-3.18-11.92-9.88-20.14-20.92c-5.87-7.7-12.08-17.24-13.93-19.42c-0.84-0.84-1.68-1-2.68-1
			l-13.26-0.33c-0.67,0-1.17,0.33-1.17,1.17v2.01c0,13.22,0.17,24.27,0.84,30.29c0.5,4.18,1.17,6.86,5.71,7.53
			c2.18,0.33,5.37,0.5,7.22,0.5c1.17,0,1.85,0.84,1.85,1.51c0,1-1.17,1.51-3.02,1.51c-8.56,0-20.81-0.5-22.99-0.5
			c-2.85,0-12.25,0.5-18.12,0.5c-1.85,0-2.85-0.5-2.85-1.51c0-0.67,0.5-1.51,2.35-1.51c2.18,0,3.86-0.17,5.2-0.5
			c3.02-0.67,3.86-3.35,4.36-7.53c0.67-6.03,0.67-17.24,0.67-30.29V646.52z M2514.11,657.57c0,1.51,0.34,2.01,1.34,2.51
			c3.19,1,7.55,1.34,11.24,1.34c5.87,0,7.89-0.5,10.41-2.34c4.53-3.18,9.57-9.37,9.57-21.09c0-20.08-13.76-25.27-22.49-25.27
			c-3.69,0-7.22,0.17-8.73,0.5c-1.01,0.33-1.34,0.84-1.34,2.01V657.57z"/>
		<path d="M2615.98,606.52c0.34-2.34,1.68-3.68,2.85-3.68c1.51,0,2.52,0.67,4.53,4.52l39.61,78.67l39.6-79.67
			c1.17-2.34,2.52-3.51,3.86-3.51c1.17,0,2.85,1.51,3.36,4.52l13.42,87.54c1.34,8.87,2.69,12.72,7.22,14.06
			c4.2,1.17,6.54,1.34,8.39,1.34c1.34,0,2.35,0.5,2.35,1.34c0,1.17-1.68,1.67-3.86,1.67c-3.69,0-24.67-0.5-30.54-0.84
			c-3.52-0.17-4.36-0.84-4.36-1.67c0-0.67,0.67-1.17,1.68-1.51c0.84-0.33,1.17-2.01,0.67-6.03l-8.22-61.43h-0.5l-31.72,62.93
			c-3.36,6.7-4.2,8.03-5.87,8.03c-1.85,0-3.52-2.85-5.87-7.2c-3.52-6.53-15.27-28.29-16.95-32.3c-1.17-2.68-9.9-19.92-14.77-29.79
			h-0.5l-7.05,54.9c-0.34,2.51-0.5,4.35-0.5,6.7c0,2.68,2.01,3.68,4.53,4.18c2.52,0.5,3.86,0.67,5.2,0.67
			c1.34,0,2.35,0.67,2.35,1.34c0,1.34-1.34,1.67-3.52,1.67c-6.21,0-12.92-0.5-15.61-0.5c-2.85,0-9.9,0.5-14.6,0.5
			c-1.51,0-2.68-0.33-2.68-1.67c0-0.67,0.84-1.34,2.35-1.34c1.17,0,2.18,0,4.53-0.33c4.03-0.5,5.37-6.19,6.04-10.88L2615.98,606.52z
			"/>
	</g>
</g>
</svg>
