<svg width="16" height="24" viewBox="0 0 16 24" fill="none" xmlns="http://www.w3.org/2000/svg">
<path d="M12.8344 4.29007H15.1828V0.00260953H10.9151C10.5591 -0.0122038 6.21931 -0.095158 5.09448 4.19428C5.07819 4.23921 4.71872 5.25935 4.71872 7.64232L0.816406 7.65417V12.151L4.72366 12.1396V24.0006H10.6919V12.15H14.6421V7.64133H10.6919V6.22271C10.6919 5.34083 11.0637 4.29007 12.8344 4.29007ZM13.6546 8.62839V11.162H9.70438V23.0126H5.71121V11.1491L1.80396 11.1605V8.63876L5.72158 8.6274L5.71121 8.12523C5.65986 5.60105 6.01982 4.53943 6.03612 4.48857C7.00688 0.794133 10.7137 0.979793 10.8727 0.989669L14.1953 0.990656V3.30301H12.8344C10.527 3.30301 9.70487 4.811 9.70487 6.22222V8.62839H13.6546Z" fill="#6093B9"/>
</svg>
