<svg width="59" height="66" viewBox="0 0 59 66" fill="none" xmlns="http://www.w3.org/2000/svg">
<path d="M58.5294 8.87238L55.7278 6.38892L58.5294 3.90596C58.9651 3.51924 59.1141 2.9165 58.9095 2.36966C58.704 1.82231 58.1963 1.46883 57.6156 1.46883H46.0221V0.9673C46.0221 0.433044 45.592 0 45.0612 0C44.5305 0 44.1004 0.433044 44.1004 0.9673V14.013L36.2089 18.3268C36.1653 17.9774 36.0613 17.634 35.8967 17.3107L34.7848 15.1253C34.0215 13.6248 32.1878 13.0301 30.6983 13.798L29.8384 14.2411C29.1161 14.6137 28.5814 15.2462 28.3323 16.0237C28.0833 16.8006 28.1498 17.6289 28.5199 18.3555L29.6318 20.5414C29.8914 21.0515 30.2751 21.4553 30.7263 21.7383C30.136 22.5385 29.8559 23.5224 29.5678 24.5446L29.3607 25.2827C29.2162 25.7969 29.5133 26.3316 30.024 26.4766C30.111 26.5018 30.1991 26.5134 30.2856 26.5134C30.7048 26.5134 31.0899 26.2354 31.2099 25.8089L31.417 25.0723C31.8382 23.5773 32.0968 22.7766 32.9201 22.3265L34.3962 21.5193L34.5782 21.4256C34.6388 21.3944 34.6953 21.3592 34.7528 21.3244L45.2728 15.5735C45.2063 16.8973 44.4985 18.1481 43.3331 18.8606L36.492 23.045C36.484 23.0495 36.476 23.0541 36.4685 23.0591L34.3391 24.3613C33.886 24.6387 33.7414 25.2339 34.017 25.6906C34.2766 26.1211 34.8168 26.2742 35.2575 26.0582L33.6419 30.9748L32.4609 31.4622L29.2497 32.787L30.1751 29.4939C30.3191 28.9797 30.0225 28.445 29.5118 28.2995C29.0006 28.1534 28.4699 28.453 28.3253 28.9671L26.8633 34.1722C26.8443 34.2392 26.8318 34.3127 26.8288 34.3827L26.4461 41.4585C26.4346 41.7284 26.4916 42.2384 26.3676 42.5018L22.118 51.5021H19.0298C17.2206 51.5021 15.749 52.9835 15.749 54.8043V57.5964C15.3349 57.4056 14.8752 57.2988 14.3905 57.2988H6.54801C4.73931 57.2988 3.26775 58.7797 3.26775 60.601V64.0654H0.960868C0.430165 64.0654 0 64.4984 0 65.0327C0 65.567 0.430165 66 0.960868 66H57.6146C58.1453 66 58.5754 65.567 58.5754 65.0327C58.5754 64.4984 58.1453 64.0654 57.6146 64.0654H55.1156V39.1326C55.1156 37.3118 53.644 35.8304 51.8353 35.8304H46.0221V18.9553C47.0875 17.5015 47.4822 15.5961 46.9875 13.7854C46.91 13.5009 46.7074 13.2673 46.4373 13.152C46.3047 13.0951 46.1627 13.0699 46.0221 13.0754V11.3095H57.6151C58.1963 11.3095 58.704 10.956 58.909 10.4092C59.1141 9.86234 58.9651 9.25909 58.5294 8.87238ZM30.1615 16.6178C30.2531 16.3323 30.4492 16.0997 30.7143 15.9632L31.5741 15.5201C31.7361 15.4365 31.9092 15.3967 32.0803 15.3967C32.4854 15.3967 32.8771 15.6198 33.0742 16.007L34.1866 18.1929C34.4462 18.7035 34.2781 19.3223 33.8164 19.635L33.5033 19.8057L32.8426 20.1466C32.2959 20.4286 31.6226 20.2101 31.3425 19.6592L30.2301 17.4738C30.0945 17.207 30.07 16.9028 30.1615 16.6178ZM28.2308 51.7997C27.9042 51.6496 27.549 51.5514 27.1759 51.5167L28.2308 50.1063V51.7997ZM32.7931 44.0054C33.2552 43.448 33.3828 42.7969 33.4858 42.2722C33.5118 42.1473 33.986 39.54 33.986 39.54C33.986 39.54 34.4347 39.8215 34.4817 39.8416C34.5142 39.8562 34.5372 39.8884 34.5407 39.9262L35.0634 45.2753H31.8432L32.7931 44.0054ZM38.4752 38.6663L37.6639 45.2708H36.9942L36.4535 39.7369C36.3844 39.0279 35.9533 38.409 35.3215 38.1014L34.3552 37.4845L34.9989 33.8928C34.9989 33.8928 37.7109 37.1361 37.774 37.2187C38.3352 37.9533 38.5272 38.2474 38.4752 38.6663ZM28.0963 43.3477C28.2903 42.7596 28.3804 42.1609 28.3654 41.5521L28.7145 35.0988L33.1587 33.2654L32.3509 37.77C32.3484 37.7821 32.3459 37.7947 32.3444 37.8068L31.6761 41.5315C31.5891 41.9172 31.5131 42.5023 31.274 42.82L24.781 51.5021H24.2458L28.0963 43.3477ZM5.18949 60.6005C5.18949 59.8467 5.79872 59.2334 6.54801 59.2334H14.3905C15.1398 59.2334 15.7495 59.8467 15.7495 60.6005V64.0654H5.18949V60.6005ZM17.6708 60.6005V54.8043C17.6708 54.05 18.2805 53.4367 19.0298 53.4367H26.8723C27.6216 53.4367 28.2308 54.05 28.2308 54.8043V64.0654H17.6713V60.6005H17.6708ZM53.1939 39.1326V64.0654H42.6343V58.2656C42.6343 57.7314 42.2042 57.2983 41.6735 57.2983C41.1423 57.2983 40.7121 57.7314 40.7121 58.2656V64.0654H30.1525V48.577C30.1525 47.8232 30.7618 47.2099 31.5111 47.2099H39.3536C40.1029 47.2099 40.7121 47.8232 40.7121 48.577V53.4261C40.7121 53.9604 41.1423 54.3934 41.673 54.3934C42.2042 54.3934 42.6338 53.9604 42.6338 53.4261V39.1326C42.6338 38.3783 43.2436 37.765 43.9928 37.765H45.0512C45.0542 37.765 45.0577 37.7655 45.0612 37.7655C45.0643 37.7655 45.0678 37.765 45.0708 37.765H51.8348C52.5841 37.765 53.1939 38.3788 53.1939 39.1326ZM43.9928 35.8304C42.1841 35.8304 40.7126 37.3118 40.7126 39.1326V45.5729C40.3685 45.4148 39.9933 45.3146 39.5987 45.2854L40.3825 38.9045C40.5365 37.6608 39.9063 36.8365 39.297 36.0389C39.2325 35.9543 35.4976 31.4899 35.4976 31.4899L37.789 24.5159L44.1004 20.6557V35.8304H43.9928ZM46.0221 9.3744V3.40393H56.1875L53.9982 5.34457C53.7001 5.60893 53.529 5.98961 53.529 6.38942C53.529 6.78923 53.7001 7.16991 53.9982 7.43427L56.1875 9.37491H46.0221V9.3744Z" fill="#35688C"/>
</svg>
