<svg width="83" height="83" viewBox="0 0 83 83" fill="none" xmlns="http://www.w3.org/2000/svg">
<path d="M51.875 71.9736C47.5835 71.9736 44.0938 68.4838 44.0938 64.1924C44.0938 59.9009 47.5835 56.4111 51.875 56.4111C52.5925 56.4111 53.1719 56.9905 53.1719 57.708C53.1719 58.4248 52.5925 59.0049 51.875 59.0049C49.014 59.0049 46.6875 61.3314 46.6875 64.1924C46.6875 67.0534 49.014 69.3799 51.875 69.3799C52.5925 69.3799 53.1719 69.9593 53.1719 70.6768C53.1719 71.3936 52.5925 71.9736 51.875 71.9736Z" fill="#35688C"/>
<path d="M81.7031 59.0049H51.875C51.1575 59.0049 50.5781 58.4248 50.5781 57.708C50.5781 56.9905 51.1575 56.4111 51.875 56.4111H81.7031C82.4206 56.4111 83 56.9905 83 57.708C83 58.4248 82.4206 59.0049 81.7031 59.0049Z" fill="#35688C"/>
<path d="M81.7031 71.9736H51.875C51.1575 71.9736 50.5781 71.3936 50.5781 70.6768C50.5781 69.9593 51.1575 69.3799 51.875 69.3799H81.7031C82.4206 69.3799 83 69.9593 83 70.6768C83 71.3936 82.4206 71.9736 81.7031 71.9736Z" fill="#35688C"/>
<path d="M79.1094 71.9736C78.3919 71.9736 77.8125 71.3936 77.8125 70.6768V57.708C77.8125 56.9905 78.3919 56.4111 79.1094 56.4111C79.8268 56.4111 80.4062 56.9905 80.4062 57.708V70.6768C80.4062 71.3936 79.8268 71.9736 79.1094 71.9736Z" fill="#35688C"/>
<path d="M73.9219 55.1143C73.2044 55.1143 72.625 54.5342 72.625 53.8174C72.625 53.0999 73.2044 52.5205 73.9219 52.5205C76.0667 52.5205 77.8125 50.7747 77.8125 48.6299C77.8125 46.4851 76.0667 44.7393 73.9219 44.7393C73.2044 44.7393 72.625 44.1592 72.625 43.4424C72.625 42.7262 73.2044 42.1455 73.9219 42.1455C77.4971 42.1455 80.4062 45.0546 80.4062 48.6299C80.4062 52.2052 77.4971 55.1143 73.9219 55.1143Z" fill="#35688C"/>
<path d="M73.9219 55.1143H49.2812C48.5638 55.1143 47.9844 54.5342 47.9844 53.8174C47.9844 53.0999 48.5638 52.5205 49.2812 52.5205H73.9219C74.6393 52.5205 75.2188 53.0999 75.2188 53.8174C75.2188 54.5342 74.6393 55.1143 73.9219 55.1143Z" fill="#35688C"/>
<path d="M73.9219 44.7393H49.2812C48.5638 44.7393 47.9844 44.1592 47.9844 43.4424C47.9844 42.7262 48.5638 42.1455 49.2812 42.1455H73.9219C74.6393 42.1455 75.2188 42.7262 75.2188 43.4424C75.2188 44.1592 74.6393 44.7393 73.9219 44.7393Z" fill="#35688C"/>
<path d="M51.875 55.1143C51.1575 55.1143 50.5781 54.5342 50.5781 53.8174V43.4424C50.5781 42.7262 51.1575 42.1455 51.875 42.1455C52.5925 42.1455 53.1719 42.7262 53.1719 43.4424V53.8174C53.1719 54.5342 52.5925 55.1143 51.875 55.1143Z" fill="#35688C"/>
<path d="M1.29688 61.5961C0.579414 61.5961 0 61.0161 0 60.2992C0 55.296 4.07363 51.2236 9.07812 51.2236C9.79559 51.2236 10.375 51.803 10.375 52.5205C10.375 53.2373 9.79559 53.8174 9.07812 53.8174C5.50285 53.8174 2.59375 56.7252 2.59375 60.2992C2.59375 61.0161 2.01434 61.5961 1.29688 61.5961Z" fill="#35688C"/>
<path d="M14.2656 53.8174H9.07812C8.36066 53.8174 7.78125 53.2373 7.78125 52.5205C7.78125 51.803 8.36066 51.2236 9.07812 51.2236H14.2656C14.9831 51.2236 15.5625 51.803 15.5625 52.5205C15.5625 53.2373 14.9831 53.8174 14.2656 53.8174Z" fill="#35688C"/>
<path d="M1.29688 69.3802C0.579414 69.3802 0 68.8001 0 68.0833V60.6719C0 59.9544 0.579414 59.375 1.29688 59.375C2.01434 59.375 2.59375 59.9544 2.59375 60.6719V68.0833C2.59375 68.8001 2.01434 69.3802 1.29688 69.3802Z" fill="#35688C"/>
<path d="M40.2031 61.5961C39.4857 61.5961 38.9062 61.0161 38.9062 60.2992C38.9062 56.7252 35.9971 53.8174 32.4219 53.8174C31.7044 53.8174 31.125 53.2373 31.125 52.5205C31.125 51.803 31.7044 51.2236 32.4219 51.2236C37.4264 51.2236 41.5 55.296 41.5 60.2992C41.5 61.0161 40.9206 61.5961 40.2031 61.5961Z" fill="#35688C"/>
<path d="M32.4219 53.8174H27.2344C26.5169 53.8174 25.9375 53.2373 25.9375 52.5205C25.9375 51.803 26.5169 51.2236 27.2344 51.2236H32.4219C33.1393 51.2236 33.7188 51.803 33.7188 52.5205C33.7188 53.2373 33.1393 53.8174 32.4219 53.8174Z" fill="#35688C"/>
<path d="M40.2031 69.3802C39.4857 69.3802 38.9062 68.8001 38.9062 68.0833V60.6719C38.9062 59.9544 39.4857 59.375 40.2031 59.375C40.9206 59.375 41.5 59.9544 41.5 60.6719V68.0833C41.5 68.8001 40.9206 69.3802 40.2031 69.3802Z" fill="#35688C"/>
<path d="M37.6094 71.9736H3.89062C3.17316 71.9736 2.59375 71.3936 2.59375 70.6768C2.59375 69.9593 3.17316 69.3799 3.89062 69.3799H37.6094C38.3268 69.3799 38.9062 69.9593 38.9062 70.6768C38.9062 71.3936 38.3268 71.9736 37.6094 71.9736Z" fill="#35688C"/>
<path d="M14.2656 53.8175C13.5482 53.8175 12.9688 53.2375 12.9688 52.5207V48.3691C12.9688 47.6523 13.5482 47.0723 14.2656 47.0723C14.9831 47.0723 15.5625 47.6523 15.5625 48.3691V52.5207C15.5625 53.2375 14.9831 53.8175 14.2656 53.8175Z" fill="#35688C"/>
<path d="M27.2344 53.8175C26.5169 53.8175 25.9375 53.2375 25.9375 52.5207V48.3691C25.9375 47.6523 26.5169 47.0723 27.2344 47.0723C27.9518 47.0723 28.5312 47.6523 28.5312 48.3691V52.5207C28.5312 53.2375 27.9518 53.8175 27.2344 53.8175Z" fill="#35688C"/>
<path d="M20.75 51.2236C12.1683 51.2236 5.1875 44.2428 5.1875 35.6611C5.1875 34.9449 5.76691 34.3643 6.48438 34.3643C7.20184 34.3643 7.78125 34.9449 7.78125 35.6611C7.78125 42.8123 13.5988 48.6299 20.75 48.6299C27.9012 48.6299 33.7188 42.8123 33.7188 35.6611C33.7188 34.9449 34.2982 34.3643 35.0156 34.3643C35.7331 34.3643 36.3125 34.9449 36.3125 35.6611C36.3125 44.2428 29.3317 51.2236 20.75 51.2236Z" fill="#35688C"/>
<path d="M6.48438 36.9609C5.76691 36.9609 5.1875 36.3796 5.1875 35.6641V23.9922C5.1875 23.2766 5.76691 22.6953 6.48438 22.6953C7.20184 22.6953 7.78125 23.2766 7.78125 23.9922V35.6641C7.78125 36.3796 7.20184 36.9609 6.48438 36.9609Z" fill="#35688C"/>
<path d="M35.0156 36.9609C34.2982 36.9609 33.7188 36.3796 33.7188 35.6641V23.9922C33.7188 23.2766 34.2982 22.6953 35.0156 22.6953C35.7331 22.6953 36.3125 23.2766 36.3125 23.9922V35.6641C36.3125 36.3796 35.7331 36.9609 35.0156 36.9609Z" fill="#35688C"/>
<path d="M35.0156 25.2891C34.2982 25.2891 33.7188 24.7077 33.7188 23.9922C33.7188 21.1312 31.3922 18.8047 28.5312 18.8047C27.8138 18.8047 27.2344 18.2234 27.2344 17.5078C27.2344 16.7923 27.8138 16.2109 28.5312 16.2109C32.8227 16.2109 36.3125 19.7007 36.3125 23.9922C36.3125 24.7077 35.7331 25.2891 35.0156 25.2891Z" fill="#35688C"/>
<path d="M28.5312 18.8047C27.8138 18.8047 27.2344 18.2234 27.2344 17.5078V12.3203C27.2344 11.6048 27.8138 11.0234 28.5312 11.0234C29.2487 11.0234 29.8281 11.6048 29.8281 12.3203V17.5078C29.8281 18.2234 29.2487 18.8047 28.5312 18.8047Z" fill="#35688C"/>
<path d="M28.5312 13.6172H18.1562C17.4388 13.6172 16.8594 13.0359 16.8594 12.3203C16.8594 11.6048 17.4388 11.0234 18.1562 11.0234H28.5312C29.2487 11.0234 29.8281 11.6048 29.8281 12.3203C29.8281 13.0359 29.2487 13.6172 28.5312 13.6172Z" fill="#35688C"/>
<path d="M6.48438 25.2891C5.76691 25.2891 5.1875 24.7077 5.1875 23.9922C5.1875 16.841 11.0051 11.0234 18.1562 11.0234C18.8737 11.0234 19.4531 11.6048 19.4531 12.3203C19.4531 13.0359 18.8737 13.6172 18.1562 13.6172C12.4356 13.6172 7.78125 18.2715 7.78125 23.9922C7.78125 24.7077 7.20184 25.2891 6.48438 25.2891Z" fill="#35688C"/>
<path d="M35.0156 31.7739C34.6838 31.7739 34.3513 31.6466 34.0987 31.394L30.2081 27.5033C29.7008 26.9961 29.7008 26.1767 30.2081 25.6695C30.7153 25.1623 31.5347 25.1623 32.0419 25.6695L35.9325 29.5601C36.4398 30.0673 36.4398 30.8867 35.9325 31.394C35.6799 31.6479 35.3474 31.7739 35.0156 31.7739Z" fill="#35688C"/>
<path d="M20.7499 30.4765C14.9336 30.4765 9.96904 27.8397 9.76007 27.727C9.12999 27.3888 8.89379 26.603 9.23258 25.9722C9.57073 25.3434 10.354 25.1047 10.9886 25.4435C11.0335 25.4682 15.6055 27.8827 20.7499 27.8827C25.9203 27.8827 30.4651 25.4682 30.5101 25.4448C31.1395 25.1022 31.9279 25.3409 32.266 25.971C32.6061 26.6017 32.3686 27.3888 31.7385 27.727C31.5308 27.8397 26.5662 30.4765 20.7499 30.4765Z" fill="#35688C"/>
<path d="M6.48436 31.7739C6.15254 31.7739 5.82009 31.6466 5.56743 31.394C5.06021 30.8867 5.06021 30.0673 5.56743 29.5601L9.45806 25.6695C9.96528 25.1623 10.7847 25.1623 11.2919 25.6695C11.7991 26.1767 11.7991 26.9961 11.2919 27.5033L7.40129 31.394C7.14863 31.6479 6.81618 31.7739 6.48436 31.7739Z" fill="#35688C"/>
<path d="M18.1563 56.4115C17.91 56.4115 17.6599 56.3399 17.4376 56.1936L13.5457 53.5999C12.9505 53.2016 12.7884 52.3974 13.1867 51.8009C13.5837 51.2043 14.386 51.0448 14.9857 51.4418L18.8776 54.0356C19.4728 54.4339 19.6349 55.2374 19.2366 55.8346C18.9878 56.2088 18.5755 56.4115 18.1563 56.4115Z" fill="#35688C"/>
<path d="M18.1589 56.4112C17.6827 56.4112 17.2255 56.149 16.9969 55.6937C16.6765 55.0535 16.9361 54.274 17.5769 53.9536L20.1688 52.6567C20.8096 52.3388 21.5891 52.5959 21.9096 53.2361C22.23 53.8769 21.9704 54.6565 21.3295 54.9769L18.7377 56.2738C18.5521 56.3668 18.3533 56.4112 18.1589 56.4112Z" fill="#35688C"/>
<path d="M23.3436 56.4115C22.9244 56.4115 22.5122 56.2088 22.2633 55.8346C21.865 55.2374 22.0271 54.4339 22.6224 54.0356L26.5143 51.4418C27.1108 51.0448 27.9163 51.2043 28.3133 51.8009C28.7116 52.3974 28.5495 53.2016 27.9543 53.5999L24.0624 56.1936C23.8401 56.3412 23.59 56.4115 23.3436 56.4115Z" fill="#35688C"/>
<path d="M23.3413 56.4119C23.1469 56.4119 22.9481 56.3675 22.7625 56.2757L20.1707 54.9788C19.5298 54.6584 19.2702 53.8789 19.5906 53.2381C19.9123 52.5978 20.6906 52.3407 21.3314 52.6586L23.9233 53.9555C24.5641 54.2759 24.8237 55.0555 24.5033 55.6957C24.2747 56.1497 23.8175 56.4119 23.3413 56.4119Z" fill="#35688C"/>
<path d="M37.6094 71.9736C36.8919 71.9736 36.3125 71.3936 36.3125 70.6768C36.3125 69.9593 36.8919 69.3799 37.6094 69.3799C38.3249 69.3799 38.9062 68.7986 38.9062 68.083C38.9062 67.3655 39.4857 66.7861 40.2031 66.7861C40.9206 66.7861 41.5 67.3655 41.5 68.083C41.5 70.2291 39.7542 71.9736 37.6094 71.9736Z" fill="#35688C"/>
<path d="M3.89062 71.9736C1.74584 71.9736 0 70.2278 0 68.083C0 67.3655 0.579414 66.7861 1.29688 66.7861C2.01434 66.7861 2.59375 67.3655 2.59375 68.083C2.59375 68.7986 3.17506 69.3799 3.89062 69.3799C4.60809 69.3799 5.1875 69.9593 5.1875 70.6768C5.1875 71.3936 4.60809 71.9736 3.89062 71.9736Z" fill="#35688C"/>
<path d="M22.0495 72.0029C21.9317 72.0029 21.8107 71.987 21.693 71.9535C21.004 71.7578 20.605 71.0391 20.8007 70.3507L25.987 52.1673C26.1839 51.4783 26.9039 51.0775 27.5897 51.275C28.2786 51.4707 28.6776 52.1894 28.4819 52.8778L23.2957 71.0612C23.1323 71.6318 22.6137 72.0029 22.0495 72.0029Z" fill="#35688C"/>
<path d="M24.6432 72.0023C24.4368 72.0023 24.2272 71.9529 24.0309 71.8478C23.3996 71.5096 23.1621 70.7238 23.5021 70.0918L29.3963 59.1076L28.941 58.6612C28.5402 58.2686 28.4382 57.6626 28.6871 57.161L31.2638 51.9463C31.5804 51.3055 32.3586 51.0421 33.0014 51.3587C33.6435 51.6766 33.9069 52.4542 33.589 53.0963L31.4284 57.4682L31.9071 57.9374C32.3181 58.342 32.4156 58.9689 32.1421 59.4768L25.7869 71.319C25.5538 71.7534 25.1049 72.0023 24.6432 72.0023Z" fill="#35688C"/>
<path d="M19.4456 72.0025C18.8814 72.0025 18.3628 71.6314 18.1994 71.0608L13.0132 52.8773C12.8169 52.189 13.2152 51.4703 13.9054 51.2746C14.595 51.084 15.3112 51.4766 15.5082 52.1668L20.6944 70.3503C20.8901 71.0387 20.4918 71.7574 19.8022 71.9531C19.6844 71.9854 19.5634 72.0025 19.4456 72.0025Z" fill="#35688C"/>
<path d="M16.8519 72.0028C16.3902 72.0028 15.9413 71.7552 15.7076 71.3196L9.35305 59.4774C9.07949 58.9695 9.17575 58.3426 9.58799 57.938L10.0667 57.4687L7.9061 53.0968C7.58821 52.4547 7.85164 51.6771 8.49311 51.3592C9.13775 51.0413 9.91474 51.306 10.2314 51.9469L12.808 57.1616C13.0556 57.6644 12.953 58.2691 12.5541 58.6617L12.0988 59.1082L17.993 70.0924C18.333 70.7231 18.0956 71.5102 17.4636 71.8483C17.2679 71.9534 17.0577 72.0028 16.8519 72.0028Z" fill="#35688C"/>
<path d="M19.4531 60.3305C18.9085 60.3305 18.4013 59.9854 18.2221 59.4395L16.9265 55.5217C16.701 54.8435 17.0708 54.1083 17.7516 53.8835C18.4298 53.6504 19.165 54.0279 19.3898 54.7086L20.6854 58.6265C20.9108 59.3047 20.541 60.0398 19.8603 60.2646C19.7254 60.3096 19.588 60.3305 19.4531 60.3305Z" fill="#35688C"/>
<path d="M22.0468 60.305C21.9119 60.305 21.7732 60.2828 21.6383 60.2391C20.9589 60.0118 20.5903 59.2779 20.8158 58.5984L22.1114 54.7052C22.3387 54.0258 23.0714 53.6598 23.7521 53.8827C24.4316 54.11 24.8001 54.8439 24.5747 55.5234L23.2791 59.4165C23.0973 59.9624 22.5901 60.305 22.0468 60.305Z" fill="#35688C"/>
<path d="M17.9682 66.8148C17.872 66.8148 17.7751 66.8047 17.6763 66.7825C16.9785 66.623 16.5428 65.9277 16.7024 65.2286L18.1886 58.7442C18.3494 58.0464 19.0435 57.6044 19.7426 57.7703C20.4404 57.9298 20.8761 58.6251 20.7165 59.3242L19.2303 65.8086C19.0941 66.4076 18.5609 66.8148 17.9682 66.8148Z" fill="#35688C"/>
<path d="M23.5268 66.8154C22.9354 66.8154 22.4009 66.4083 22.2623 65.8067L20.7824 59.2964C20.6228 58.5985 21.0597 57.9032 21.7588 57.7449C22.4529 57.5752 23.1507 58.0242 23.3115 58.7214L24.7927 65.2317C24.9504 65.9295 24.5134 66.6248 23.8143 66.7831C23.7187 66.8053 23.6212 66.8154 23.5268 66.8154Z" fill="#35688C"/>
<path d="M22.0469 60.3311H19.4531C18.7357 60.3311 18.1562 59.7516 18.1562 59.0342C18.1562 58.3167 18.7357 57.7373 19.4531 57.7373H22.0469C22.7643 57.7373 23.3438 58.3167 23.3438 59.0342C23.3438 59.7516 22.7643 60.3311 22.0469 60.3311Z" fill="#35688C"/>
<path d="M73.9389 18.8311H55.7903C55.0728 18.8311 54.4934 18.2497 54.4934 17.5342C54.4934 16.818 55.0728 16.2373 55.7903 16.2373H73.9389C74.6558 16.2373 75.2358 16.818 75.2358 17.5342C75.2358 18.2497 74.6545 18.8311 73.9389 18.8311Z" fill="#35688C"/>
<path d="M64.866 40.8805C64.1485 40.8805 63.5691 40.2998 63.5691 39.5836V13.6436C63.5691 12.9274 64.1485 12.3467 64.866 12.3467C65.5828 12.3467 66.1628 12.9274 66.1628 13.6436V39.5836C66.1628 40.2998 65.5815 40.8805 64.866 40.8805Z" fill="#35688C"/>
<path d="M73.9428 40.8799H55.7891C55.0716 40.8799 54.4922 40.2992 54.4922 39.583C54.4922 38.8674 55.0716 38.2861 55.7891 38.2861H73.9428C74.6596 38.2861 75.2397 38.8674 75.2397 39.583C75.2397 40.2992 74.6583 40.8799 73.9428 40.8799Z" fill="#35688C"/>
<path d="M55.7903 33.0967C52.9293 33.0967 50.6028 30.7702 50.6028 27.9092C50.6028 27.193 51.1822 26.6123 51.8997 26.6123C52.6165 26.6123 53.1965 27.193 53.1965 27.9092C53.1965 29.3397 54.3598 30.5029 55.7903 30.5029C57.2208 30.5029 58.384 29.3397 58.384 27.9092C58.384 27.193 58.9634 26.6123 59.6809 26.6123C60.3977 26.6123 60.9778 27.193 60.9778 27.9092C60.9778 30.7689 58.6513 33.0967 55.7903 33.0967Z" fill="#35688C"/>
<path d="M59.6809 29.2061H51.8997C51.1822 29.2061 50.6028 28.6247 50.6028 27.9092C50.6028 27.193 51.1822 26.6123 51.8997 26.6123H59.6809C60.3977 26.6123 60.9778 27.193 60.9778 27.9092C60.9778 28.6247 60.3965 29.2061 59.6809 29.2061Z" fill="#35688C"/>
<path d="M51.8996 29.2054C51.7477 29.2054 51.5951 29.1782 51.4431 29.1225C50.7725 28.8711 50.4343 28.1226 50.6845 27.452L54.5751 17.077C54.8252 16.4051 55.5737 16.0695 56.2456 16.3184C56.9162 16.5698 57.2543 17.3183 57.0042 17.9889L53.1136 28.3639C52.9192 28.8838 52.4233 29.2054 51.8996 29.2054Z" fill="#35688C"/>
<path d="M59.6809 29.2058C59.1572 29.2058 58.6614 28.8841 58.4657 28.3642L54.5751 17.9892C54.325 17.3186 54.6631 16.5714 55.3337 16.3187C56.0056 16.0711 56.7528 16.4067 57.0042 17.0773L60.8948 27.4523C61.1449 28.1229 60.8068 28.8701 60.1362 29.1228C59.9855 29.1785 59.8329 29.2058 59.6809 29.2058Z" fill="#35688C"/>
<path d="M73.939 33.0967C71.078 33.0967 68.7515 30.7702 68.7515 27.9092C68.7515 27.193 69.3309 26.6123 70.0483 26.6123C70.7652 26.6123 71.3452 27.193 71.3452 27.9092C71.3452 29.3397 72.5085 30.5029 73.939 30.5029C75.3695 30.5029 76.5327 29.3397 76.5327 27.9092C76.5327 27.193 77.1121 26.6123 77.8296 26.6123C78.5464 26.6123 79.1265 27.193 79.1265 27.9092C79.1265 30.7689 76.7999 33.0967 73.939 33.0967Z" fill="#35688C"/>
<path d="M77.8296 29.2061H70.0483C69.3309 29.2061 68.7515 28.6247 68.7515 27.9092C68.7515 27.193 69.3309 26.6123 70.0483 26.6123H77.8296C78.5464 26.6123 79.1265 27.193 79.1265 27.9092C79.1265 28.6247 78.5452 29.2061 77.8296 29.2061Z" fill="#35688C"/>
<path d="M70.0483 29.2054C69.8964 29.2054 69.7431 29.1782 69.5918 29.1225C68.9212 28.8711 68.5824 28.1226 68.8332 27.452L72.7238 17.077C72.9752 16.4051 73.7237 16.0695 74.3936 16.3184C75.0642 16.5698 75.403 17.3183 75.1529 17.9889L71.2623 28.3639C71.0672 28.8838 70.572 29.2054 70.0483 29.2054Z" fill="#35688C"/>
<path d="M77.8296 29.2058C77.3053 29.2058 76.8101 28.8841 76.6144 28.3642L72.7238 17.9892C72.473 17.3186 72.8118 16.5714 73.4824 16.3187C74.153 16.0711 74.9009 16.4067 75.1529 17.0773L79.0435 27.4523C79.2936 28.1229 78.9548 28.8701 78.2842 29.1228C78.1342 29.1785 77.9809 29.2058 77.8296 29.2058Z" fill="#35688C"/>
</svg>
