<svg width="20" height="21" viewBox="0 0 20 21" fill="none" xmlns="http://www.w3.org/2000/svg">
<g clip-path="url(#clip0)">
<path d="M14.5862 0.0908203H5.41381C2.42858 0.0908203 0 2.5194 0 5.50463V14.6771C0 17.6622 2.42858 20.0908 5.41381 20.0908H14.5863C17.5714 20.0908 20 17.6622 20 14.6771V5.50463C20 2.5194 17.5714 0.0908203 14.5862 0.0908203V0.0908203ZM18.8275 14.6771C18.8275 17.0157 16.9249 18.9183 14.5862 18.9183H5.41381C3.0751 18.9183 1.17248 17.0157 1.17248 14.6771V5.50463C1.17248 3.16592 3.0751 1.2633 5.41381 1.2633H14.5863C16.9249 1.2633 18.8275 3.16592 18.8275 5.50463V14.6771Z" fill="#346589"/>
<path d="M9.99984 4.62207C6.9844 4.62207 4.53125 7.07522 4.53125 10.0907C4.53125 13.1061 6.9844 15.5592 9.99984 15.5592C13.0153 15.5592 15.4684 13.1061 15.4684 10.0907C15.4684 7.07522 13.0153 4.62207 9.99984 4.62207ZM9.99984 14.3868C7.63107 14.3868 5.70373 12.4596 5.70373 10.0907C5.70373 7.72189 7.63107 5.79455 9.99984 5.79455C12.3688 5.79455 14.2959 7.72189 14.2959 10.0907C14.2959 12.4596 12.3688 14.3868 9.99984 14.3868Z" fill="#346589"/>
<path d="M15.5993 2.67969C14.7082 2.67969 13.9834 3.40463 13.9834 4.29559C13.9834 5.1867 14.7082 5.91165 15.5993 5.91165C16.4904 5.91165 17.2154 5.1867 17.2154 4.29559C17.2154 3.40448 16.4904 2.67969 15.5993 2.67969ZM15.5993 4.73901C15.3549 4.73901 15.1559 4.54004 15.1559 4.29559C15.1559 4.05099 15.3549 3.85217 15.5993 3.85217C15.8439 3.85217 16.0429 4.05099 16.0429 4.29559C16.0429 4.54004 15.8439 4.73901 15.5993 4.73901Z" fill="#346589"/>
</g>
<defs>
<clipPath id="clip0">
<rect width="20" height="20" fill="white" transform="translate(0 0.0908203)"/>
</clipPath>
</defs>
</svg>
