<svg width="25" height="14" viewBox="0 0 25 14" fill="none" xmlns="http://www.w3.org/2000/svg">
<path d="M24.9808 4.60526C24.668 3.13158 21.7903 2.70176 18.1619 2.88597C16.9108 1.10526 14.7838 0 12.4692 0C9.40379 0 6.83892 1.90351 5.83799 4.66666C5.77542 4.91228 5.65031 5.15789 5.65031 5.40351C5.52519 5.77193 5.46264 6.20176 5.46264 6.63158C5.46264 6.81579 5.46264 6.9386 5.46264 7.12281C5.46264 7.4298 5.46264 7.67546 5.5252 7.98243C5.65031 8.78073 5.83799 9.51757 6.21333 10.2544C5.58775 10.2544 5.02473 10.2544 4.4617 10.2544C1.83427 10.1316 1.14614 9.57895 1.08358 9.39474C1.02102 9.21053 1.45892 8.47368 3.77357 7.36842V6.07895C3.64845 6.14035 3.52333 6.20176 3.46078 6.20176C0.958455 7.30702 -0.167589 8.4123 0.0200852 9.45612C0.207759 10.5 1.70915 11.114 4.4617 11.1755C4.77449 11.1755 5.02473 11.1755 5.33752 11.1755C5.83799 11.1755 6.33845 11.1755 6.83891 11.114C8.09008 12.8947 10.217 14 12.5317 14C14.5336 14 16.3477 13.2018 17.5989 11.8509H15.9098C14.9089 12.5263 13.7829 12.8947 12.5317 12.8947C10.7801 12.8947 9.21614 12.1579 8.15265 10.9913C8.46546 10.9913 8.71568 10.9298 9.02841 10.9298C10.3422 10.807 11.781 10.5614 13.2198 10.3158C13.908 10.193 14.5961 10.0702 15.2217 9.88599C16.2227 9.64033 17.2236 9.39474 18.1619 9.08769C18.5998 8.96494 19.0377 8.8421 19.4131 8.6579C19.4756 8.6579 19.5382 8.59652 19.5382 8.59652C20.2889 8.35085 20.977 8.04388 21.6026 7.79822C23.9799 6.75439 25.1684 5.64913 24.9808 4.60526ZM18.3496 7.92105C18.0368 8.04388 17.724 8.10526 17.3486 8.2281C16.7856 8.41231 16.2227 8.53506 15.597 8.71927C15.4094 8.78073 15.2217 8.8421 15.034 8.8421C14.3459 9.02632 13.5952 9.14915 12.8445 9.33336C10.9052 9.70178 8.96591 9.94737 7.21426 10.0702C6.83891 9.39474 6.58868 8.6579 6.46357 7.85967C6.40101 7.61401 6.40101 7.30702 6.40101 7C6.40101 6.69298 6.40101 6.38597 6.46357 6.14035C6.52612 5.71053 6.65124 5.2807 6.77636 4.91228C6.77636 4.85087 6.83891 4.78947 6.90147 4.66666C7.77727 2.51755 9.96682 1.04386 12.4066 1.04386C14.1582 1.04386 15.7221 1.7807 16.7856 2.94737C17.0984 3.25439 17.3486 3.62281 17.5364 3.99123C18.0368 4.85087 18.3496 5.89474 18.3496 7C18.4121 7.36842 18.3496 7.67546 18.3496 7.92105ZM21.1021 6.87719C20.6017 7.12281 20.1012 7.30702 19.4756 7.55263C19.4756 7.36842 19.4756 7.24561 19.4756 7.0614C19.4756 5.95614 19.2254 4.91228 18.7875 3.99123C19.1003 3.99123 19.3505 3.99123 19.6633 3.99123C19.9761 3.99123 20.2264 3.99123 20.5391 3.99123C23.2291 4.11403 23.8547 4.66666 23.9173 4.85087C23.9173 5.03509 23.4793 5.83334 21.1021 6.87719Z" fill="#44445F"/>
</svg>
