<svg width="22" height="23" viewBox="0 0 22 23" fill="none" xmlns="http://www.w3.org/2000/svg">
<g clip-path="url(#clip0)">
<path d="M21.2252 12.8265C21.8816 7.30171 20.9099 3.81379 19.1572 2.23621L19.1582 2.23529C16.3293 -0.458791 6.77583 -0.857541 3.3915 2.35629C1.87166 3.92838 1.33633 6.23563 1.27766 9.09196C1.219 11.9492 1.14933 17.3016 6.13691 18.7536H6.14149L6.13691 20.971C6.13691 20.971 6.10299 21.8694 6.67683 22.05C7.33316 22.2626 7.63016 21.8455 9.67158 19.4072C13.0852 19.7033 15.7069 19.025 16.0048 18.926C16.6942 18.695 20.5946 18.1789 21.2252 12.8265ZM10.008 17.847C10.008 17.847 7.84741 20.5411 7.17549 21.2405C6.95549 21.4679 6.71441 21.4468 6.71808 20.9958C6.71808 20.6997 6.73458 17.3145 6.73458 17.3145C2.506 16.1026 2.75533 11.545 2.80116 9.16071C2.847 6.77554 3.28333 4.82212 4.57033 3.50671C7.53941 0.722792 15.915 1.34521 18.049 3.35088C20.6578 5.66362 19.7292 12.1976 19.7347 12.4204C19.1985 16.8882 16.0378 17.1715 15.4567 17.3649C15.2082 17.4474 12.9028 18.0405 10.008 17.847Z" fill="#346589"/>
<path d="M11.2037 4.03027C10.8507 4.03027 10.8507 4.58027 11.2037 4.58486C13.9417 4.60594 16.1967 6.51444 16.2215 10.0152C16.2215 10.3846 16.7623 10.38 16.7577 10.0106H16.7568C16.7275 6.23852 14.2653 4.05136 11.2037 4.03027Z" fill="#346589"/>
<path d="M14.8052 9.43444C14.7969 9.79927 15.3369 9.81669 15.3414 9.44727C15.3864 7.36735 14.1039 5.6541 11.694 5.47352C11.3411 5.44785 11.3044 6.00244 11.6564 6.0281C13.7464 6.18669 14.8474 7.61302 14.8052 9.43444Z" fill="#346589"/>
<path d="M14.2274 11.8003C13.7745 11.5381 13.3135 11.7013 13.1228 11.9588L12.724 12.4749C12.5215 12.7371 12.1429 12.7023 12.1429 12.7023C9.38004 11.9717 8.6412 9.0805 8.6412 9.0805C8.6412 9.0805 8.60729 8.68909 8.86029 8.47917L9.35895 8.06667C9.60829 7.86867 9.76595 7.392 9.51204 6.92359C8.8337 5.698 8.37812 5.27542 8.1462 4.95092C7.90237 4.64567 7.5357 4.57692 7.15437 4.78317H7.14612C6.35321 5.247 5.48512 6.11509 5.76287 7.00884C6.23679 7.95117 7.10762 10.9551 9.88329 13.2248C11.1877 14.2982 13.252 15.3982 14.1284 15.6521L14.1366 15.6649C15.0001 15.9528 15.8398 15.0508 16.288 14.234V14.2276C16.487 13.8325 16.421 13.4585 16.1304 13.2138C15.6152 12.7114 14.8379 12.1568 14.2274 11.8003Z" fill="#346589"/>
<path d="M12.0717 7.52001C12.9527 7.57135 13.3798 8.03151 13.4257 8.9766C13.4422 9.34601 13.9784 9.32035 13.9619 8.95093C13.9032 7.7171 13.2597 7.0296 12.1011 6.96543C11.7481 6.94435 11.7151 7.49893 12.0717 7.52001Z" fill="#346589"/>
</g>
<defs>
<clipPath id="clip0">
<rect width="22" height="22" fill="white" transform="translate(0 0.0908203)"/>
</clipPath>
</defs>
</svg>
