<svg width="14" height="14" viewBox="0 0 14 14" fill="none" xmlns="http://www.w3.org/2000/svg">
<g clip-path="url(#clip0)">
<path d="M13.9481 6.83473C13.8379 6.6743 11.1884 2.91699 6.99997 2.91699C3.40598 2.91699 0.203434 6.65273 0.0686817 6.81198C-0.0228939 6.92048 -0.0228939 7.07973 0.0686817 7.18881C0.203434 7.34806 3.40598 11.0838 6.99997 11.0838C10.5939 11.0838 13.7965 7.34806 13.9312 7.18881C14.0158 7.08848 14.0234 6.94323 13.9481 6.83473ZM6.99997 10.5005C4.11885 10.5005 1.37945 7.75292 0.683543 7.00041C1.3783 6.24732 4.11477 3.50035 6.99997 3.50035C10.3711 3.50035 12.7506 6.24382 13.3316 6.98466C12.6607 7.71324 9.90559 10.5005 6.99997 10.5005Z" fill="#9E9E9E"/>
<path d="M6.99938 4.66699C5.71253 4.66699 4.66602 5.71351 4.66602 7.00035C4.66602 8.2872 5.71253 9.33372 6.99938 9.33372C8.28622 9.33372 9.33274 8.2872 9.33274 7.00035C9.33274 5.71351 8.28622 4.66699 6.99938 4.66699ZM6.99938 8.75041C6.03454 8.75041 5.24935 7.96522 5.24935 7.00038C5.24935 6.03554 6.03454 5.25035 6.99938 5.25035C7.96421 5.25035 8.7494 6.03554 8.7494 7.00038C8.7494 7.96522 7.96421 8.75041 6.99938 8.75041Z" fill="#9E9E9E"/>
</g>
<defs>
<clipPath id="clip0">
<rect width="14" height="14" fill="white"/>
</clipPath>
</defs>
</svg>
