<svg width="20" height="21" viewBox="0 0 20 21" fill="none" xmlns="http://www.w3.org/2000/svg">
<g clip-path="url(#clip0)">
<path d="M14.0292 3.66588H15.9862V0.0929949H12.4298C12.1331 0.0806505 8.51658 0.011522 7.57923 3.58605C7.56565 3.6235 7.26609 4.47361 7.26609 6.45942L4.01416 6.46929V10.2166L7.2702 10.2072V20.0913H12.2438V10.2158H15.5356V6.45859H12.2438V5.27641C12.2438 4.54151 12.5536 3.66588 14.0292 3.66588ZM14.7126 7.28114V9.39245H11.4208V19.268H8.09316V9.38175L4.83712 9.39121V7.28978L8.10181 7.28032L8.09316 6.86184C8.05037 4.75836 8.35034 3.87368 8.36392 3.83129C9.17289 0.752598 12.2619 0.907314 12.3944 0.915544L15.1632 0.916367V2.84333H14.0292C12.1063 2.84333 11.4212 4.09999 11.4212 5.276V7.28114H14.7126Z" fill="#346589"/>
</g>
<defs>
<clipPath id="clip0">
<rect width="20" height="20" fill="white" transform="translate(0 0.0908203)"/>
</clipPath>
</defs>
</svg>
