<svg width="64" height="64" viewBox="0 0 64 64" fill="none" xmlns="http://www.w3.org/2000/svg">
<path d="M63.0625 62.125H41.6835V53.2454C42.2199 53.3955 42.7844 53.4775 43.368 53.4775H57.7412C61.1922 53.4775 63.9999 50.6699 63.9999 47.2188C63.9999 46.701 63.5801 46.2812 63.0624 46.2812H60.4759L53.1115 32.6371C53.856 31.9487 54.3232 30.965 54.3232 29.8739C54.3232 28.1208 53.118 26.6435 51.4921 26.226V11.131H53.8199V11.6547C53.8199 12.8669 55.6949 12.8669 55.6949 11.6547V11.131H60.3198C63.5471 11.131 63.5519 6.10262 60.3198 6.10262H55.6949V5.16C55.6949 3.94788 53.8199 3.94788 53.8199 5.16V6.10275H51.4921V5.16C51.4921 3.94788 49.6171 3.94788 49.6171 5.16V6.10275H41.8721V4.13538C41.8721 2.29163 40.3721 0.791625 38.5284 0.791625C37.7641 0.791625 37.0594 1.04988 36.4956 1.483C35.8949 0.589375 34.8741 0 33.7181 0C32.5621 0 31.5414 0.589375 30.9406 1.48312C30.3769 1.05 29.6721 0.79175 28.9079 0.79175C27.6509 0.79175 26.554 1.48925 25.983 2.51725C25.4459 2.14913 24.7966 1.93325 24.0976 1.93325C22.2539 1.93325 20.7539 3.43325 20.7539 5.277V6.10262H14.3829V5.16C14.3829 3.94788 12.5079 3.94788 12.5079 5.16V6.10275H10.1801V5.16C10.1801 3.94788 8.30513 3.94788 8.30513 5.16V6.10275H3.68025C0.452875 6.10275 0.448125 11.1311 3.68025 11.1311H8.30513V11.6549C8.30513 12.867 10.1801 12.867 10.1801 11.6549V11.1311H12.5079V26.226C10.8819 26.6435 9.67675 28.1206 9.67675 29.8739C9.67675 30.965 10.144 31.9487 10.8886 32.6372L3.524 46.2812H0.9375C0.41975 46.2812 0 46.701 0 47.2188C0 50.6698 2.80763 53.4774 6.25863 53.4774H20.6319C21.2155 53.4774 21.78 53.3954 22.3164 53.2453V62.125H0.9375C0.41975 62.125 0 62.5448 0 63.0625C0 63.5802 0.41975 64 0.9375 64H63.0625C63.5802 64 64 63.5802 64 63.0625C64 62.5448 63.5802 62.125 63.0625 62.125ZM58.3452 46.2812H56.4601C55.9424 46.2812 55.5226 46.701 55.5226 47.2188C55.5226 47.7365 55.9424 48.1562 56.4601 48.1562H59.9144C59.9154 48.1562 59.9164 48.1565 59.9175 48.1565C59.9186 48.1565 59.9198 48.1562 59.9209 48.1562H62.024C61.5936 50.1246 59.8368 51.6024 57.7412 51.6024H43.368C41.2725 51.6024 39.5156 50.1245 39.0853 48.1561H41.1878C41.1891 48.1561 41.1904 48.1564 41.1917 48.1564C41.193 48.1564 41.1941 48.1561 41.1954 48.1561H51.4695V46.2811H42.7639L49.6471 33.5285C50.252 33.6766 50.8569 33.6766 51.4619 33.5285L58.3452 46.2812ZM24.1915 33.6506H39.8086V37.9745H24.1915V33.6506ZM52.4484 29.8738C52.4484 30.9164 51.5989 31.7646 50.5547 31.7646C49.5106 31.7646 48.661 30.9164 48.661 29.8738C48.661 28.8311 49.5105 27.9829 50.5547 27.9829C51.599 27.9829 52.4484 28.8311 52.4484 29.8738ZM49.6172 26.2259C47.9912 26.6434 46.786 28.1205 46.786 29.8738C46.786 30.9649 47.2533 31.9486 47.9979 32.6371L41.6836 44.3355V32.7131C41.6836 32.1954 41.2639 31.7756 40.7461 31.7756H39.924C39.8434 29.9188 40.4401 28.1174 41.7691 26.79C44.7399 23.8229 47.2329 20.8306 47.2329 16.3706V12.5929C47.2329 12.0689 47.1113 11.5729 46.8951 11.1311H49.6174V26.2259H49.6172ZM60.3198 7.97775C61.146 7.97775 61.146 9.25613 60.3198 9.25613H55.6949V7.97775H60.3198ZM53.8199 7.97775V9.25613H51.4921V7.97775H53.8199ZM49.6172 7.97775V9.25613L41.8722 9.25212V7.97775H49.6172ZM38.5284 2.66663C39.3382 2.66663 39.9971 3.3255 39.9971 4.13538V9.252H37.0619V4.0885C37.087 3.30037 37.7344 2.66663 38.5284 2.66663ZM33.7181 1.875C34.528 1.875 35.1869 2.53288 35.1869 3.34138L35.1845 9.29012C34.4073 9.45537 33.8224 10.1461 33.8224 10.9714C33.8224 11.8656 34.0616 12.7046 34.4777 13.4301C33.5159 14.0109 32.2494 13.2985 32.2494 12.1756V3.34138C32.2494 2.53288 32.9082 1.875 33.7181 1.875ZM28.9079 2.66663C29.702 2.66663 30.3493 3.30037 30.3743 4.08838V11.5553C30.3491 12.3433 29.7019 12.9771 28.9079 12.9771C28.098 12.9771 27.4391 12.3183 27.4391 11.5084V4.13538C27.4391 3.3255 28.098 2.66663 28.9079 2.66663ZM22.6289 5.277C22.6289 4.46712 23.2878 3.80825 24.0976 3.80825C24.8918 3.80825 25.539 4.442 25.564 5.23012V10.4139C25.5389 11.2019 24.8916 11.8357 24.0976 11.8357C23.2878 11.8357 22.6289 11.1769 22.6289 10.367V5.277ZM20.7539 7.97775V9.25613H14.3829V7.97775H20.7539ZM3.68025 9.256C2.854 9.256 2.854 7.97762 3.68025 7.97762H8.30513V9.256H3.68025ZM10.1801 9.256V7.97775H12.5079V9.25613H10.1801V9.256ZM20.7539 11.131V15.5104C20.7539 16.0281 21.1736 16.4479 21.6914 16.4479C22.2091 16.4479 22.6289 16.0281 22.6289 15.5104V13.3699C23.0725 13.5877 23.571 13.7106 24.0976 13.7106C24.7966 13.7106 25.4459 13.4948 25.983 13.1266C26.554 14.1546 27.6507 14.8521 28.9079 14.8521C29.6984 14.8521 30.4251 14.5759 30.9981 14.1155C31.6052 14.963 32.5977 15.5169 33.7181 15.5169C34.4422 15.5169 35.138 15.2826 35.709 14.8596C36.5564 15.5311 37.6265 15.9336 38.7896 15.9336H40.2897V15.9543C36.1989 16.4204 33.0107 19.8995 33.0107 24.1085C33.0107 24.6262 33.4305 25.046 33.9482 25.046C34.466 25.046 34.8857 24.6262 34.8857 24.1085C34.8857 20.6167 37.7305 17.7761 41.2272 17.7761C41.745 17.7761 42.1647 17.3564 42.1647 16.8386V14.9961C42.1647 14.4784 41.745 14.0586 41.2272 14.0586H38.7896C37.1367 14.0586 35.7827 12.7574 35.7012 11.127C38.4567 11.127 41.212 11.131 43.9674 11.131C44.7408 11.1721 45.3577 11.811 45.3577 12.5927V16.3705C45.3577 20.3203 43.0505 22.8597 40.444 25.4632C38.7433 27.1617 38.0264 29.4139 38.0489 31.7756H25.8773C25.9463 29.6856 25.2479 27.7467 24.1004 26.0191C23.1376 24.5211 22.6287 22.7886 22.6287 21.0084C22.6287 20.4906 22.209 20.0709 21.6912 20.0709C21.1735 20.0709 20.7537 20.4906 20.7537 21.0084C20.7537 23.1514 21.367 25.2369 22.5273 27.0394C23.4598 28.4825 24.0736 30.0349 24.0023 31.7756H23.2539C22.7361 31.7756 22.3164 32.1954 22.3164 32.7131V44.3355L16.0021 32.6371C16.7467 31.9487 17.214 30.9649 17.214 29.8738C17.214 28.1206 16.0087 26.6434 14.3827 26.2259V11.131H20.7539ZM13.4454 27.9829C14.4896 27.9829 15.3391 28.8311 15.3391 29.8738C15.3391 30.9164 14.4896 31.7646 13.4454 31.7646C12.4011 31.7646 11.5518 30.9164 11.5518 29.8738C11.5518 28.8311 12.4011 27.9829 13.4454 27.9829ZM12.538 33.5286C13.1429 33.6766 13.7478 33.6766 14.3526 33.5286L21.236 46.2814H5.65475L12.538 33.5286ZM6.25863 51.6025C4.16313 51.6025 2.40625 50.1246 1.97588 48.1564H4.07937C4.08037 48.1564 4.08138 48.1565 4.08238 48.1565C4.08325 48.1565 4.08425 48.1564 4.08512 48.1564H22.8054C22.8062 48.1564 22.8072 48.1565 22.8081 48.1565C22.8091 48.1565 22.8101 48.1564 22.8111 48.1564H24.9146C24.4843 50.1248 22.7274 51.6025 20.6319 51.6025H6.25863ZM24.1915 62.125V52.3625C25.8209 51.2315 26.8906 49.3481 26.8906 47.2188C26.8906 46.701 26.4709 46.2812 25.9531 46.2812H24.1915V39.8494H39.8086V46.2812H38.047C37.5293 46.2812 37.1095 46.701 37.1095 47.2188C37.1095 49.3481 38.1792 51.2315 39.8086 52.3625V62.125H24.1915Z" fill="#35688C"/>
</svg>
