<svg width="23" height="23" viewBox="0 0 23 23" fill="none" xmlns="http://www.w3.org/2000/svg">
<path d="M16.7741 0H6.22588C2.79287 0 0 2.79287 0 6.22588V16.7743C0 20.2071 2.79287 23 6.22588 23H16.7743C20.2071 23 23 20.2071 23 16.7743V6.22588C23 2.79287 20.2071 0 16.7741 0V0ZM21.6516 16.7743C21.6516 19.4636 19.4636 21.6516 16.7741 21.6516H6.22588C3.53636 21.6516 1.34836 19.4636 1.34836 16.7743V6.22588C1.34836 3.53636 3.53636 1.34836 6.22588 1.34836H16.7743C19.4636 1.34836 21.6516 3.53636 21.6516 6.22588V16.7743Z" fill="#6093B9"/>
<path d="M11.4998 5.21191C8.03206 5.21191 5.21094 8.03304 5.21094 11.5008C5.21094 14.9685 8.03206 17.7897 11.4998 17.7897C14.9676 17.7897 17.7887 14.9685 17.7887 11.5008C17.7887 8.03304 14.9676 5.21191 11.4998 5.21191ZM11.4998 16.4413C8.77572 16.4413 6.55929 14.225 6.55929 11.5008C6.55929 8.7767 8.77572 6.56027 11.4998 6.56027C14.2241 6.56027 16.4403 8.7767 16.4403 11.5008C16.4403 14.225 14.2241 16.4413 11.4998 16.4413Z" fill="#6093B9"/>
<path d="M17.9384 2.97754C16.9136 2.97754 16.0801 3.81122 16.0801 4.83583C16.0801 5.86061 16.9136 6.69429 17.9384 6.69429C18.9631 6.69429 19.7968 5.86061 19.7968 4.83583C19.7968 3.81105 18.9631 2.97754 17.9384 2.97754ZM17.9384 5.34576C17.6573 5.34576 17.4284 5.11694 17.4284 4.83583C17.4284 4.55454 17.6573 4.32589 17.9384 4.32589C18.2197 4.32589 18.4485 4.55454 18.4485 4.83583C18.4485 5.11694 18.2197 5.34576 17.9384 5.34576Z" fill="#6093B9"/>
</svg>
