<svg width="219" height="277" viewBox="0 0 219 277" fill="none" xmlns="http://www.w3.org/2000/svg">
<mask id="mask0" mask-type="alpha" maskUnits="userSpaceOnUse" x="0" y="0" width="219" height="277">
<rect width="219" height="277" fill="#C4C4C4"/>
</mask>
<g mask="url(#mask0)">
<path d="M33.1677 263.749C33.1677 263.863 33.1109 263.976 33.0542 264.033L-9.43986 306.527C-9.49659 306.584 -9.61006 306.64 -9.72353 306.64C-9.837 306.64 -9.95047 306.584 -10.0072 306.527L-52.5013 264.033C-52.6715 263.863 -52.6715 263.636 -52.5013 263.466C-52.3311 263.295 -52.1041 263.295 -51.9339 263.466L-9.72353 305.676L32.4869 263.466C32.6571 263.295 32.884 263.295 33.0542 263.466C33.1677 263.522 33.1677 263.636 33.1677 263.749Z" fill="#6093B9"/>
<path d="M24.373 263.749C24.373 263.863 24.3163 263.976 24.2595 264.033L-9.44072 297.733C-9.61092 297.903 -9.83786 297.903 -10.0081 297.733L-43.7083 264.033C-43.8785 263.863 -43.8785 263.636 -43.7083 263.466C-43.5381 263.295 -43.3111 263.295 -43.1409 263.466L-9.72439 296.882L23.6922 263.466C23.8624 263.295 24.0893 263.295 24.2595 263.466C24.373 263.522 24.373 263.636 24.373 263.749Z" fill="#6093B9"/>
<path d="M15.9212 263.749C15.9212 263.862 15.8645 263.976 15.8077 264.033C15.6375 264.203 15.4106 264.203 15.2404 264.033L-9.72274 239.069L-34.6859 264.033C-34.8561 264.203 -35.083 264.203 -35.2532 264.033C-35.4234 263.862 -35.4234 263.635 -35.2532 263.465L-10.0064 238.218C-9.83621 238.048 -9.60927 238.048 -9.43907 238.218L15.8077 263.465C15.9212 263.522 15.9212 263.635 15.9212 263.749Z" fill="#6093B9"/>
<path d="M7.52432 263.749C7.52432 263.862 7.46759 263.976 7.41086 264.032C7.24065 264.203 7.01371 264.203 6.84351 264.032L-9.72294 247.466L-26.2894 264.032C-26.4596 264.203 -26.6865 264.203 -26.8567 264.032C-27.0269 263.862 -27.0269 263.635 -26.8567 263.465L-10.0066 246.615C-9.8364 246.445 -9.60947 246.445 -9.43926 246.615L7.41086 263.465C7.52433 263.522 7.52432 263.635 7.52432 263.749Z" fill="#6093B9"/>
<path d="M33.1677 196.008C33.1677 196.121 33.1109 196.235 33.0542 196.292L-9.43986 238.786C-9.61006 238.956 -9.837 238.956 -10.0072 238.786L-52.5013 196.348C-52.6715 196.178 -52.6715 195.951 -52.5013 195.781C-52.3311 195.611 -52.1041 195.611 -51.9339 195.781L-9.72353 237.991L32.4869 195.781C32.6571 195.611 32.884 195.611 33.0542 195.781C33.1677 195.838 33.1677 195.894 33.1677 196.008Z" fill="#6093B9"/>
<path d="M24.373 196.008C24.373 196.121 24.3163 196.235 24.2595 196.292L-9.44072 229.992C-9.61092 230.162 -9.83786 230.162 -10.0081 229.992L-43.7083 196.292C-43.8785 196.121 -43.8785 195.895 -43.7083 195.724C-43.5381 195.554 -43.3111 195.554 -43.1409 195.724L-9.72439 229.141L23.6922 195.724C23.8624 195.554 24.0893 195.554 24.2595 195.724C24.373 195.838 24.373 195.895 24.373 196.008Z" fill="#6093B9"/>
<path d="M15.9212 196.008C15.9212 196.121 15.8645 196.235 15.8077 196.291C15.6375 196.462 15.4106 196.462 15.2404 196.291L-9.72274 171.328L-34.6859 196.291C-34.8561 196.462 -35.083 196.462 -35.2532 196.291C-35.4234 196.121 -35.4234 195.894 -35.2532 195.724L-10.0064 170.477C-9.83621 170.307 -9.60927 170.307 -9.43907 170.477L15.8077 195.724C15.9212 195.838 15.9212 195.894 15.9212 196.008Z" fill="#6093B9"/>
<path d="M7.52432 196.008C7.52432 196.121 7.46759 196.234 7.41086 196.291C7.24065 196.461 7.01371 196.461 6.84351 196.291L-9.72294 179.725L-26.2894 196.291C-26.4596 196.461 -26.6865 196.461 -26.8567 196.291C-27.0269 196.121 -27.0269 195.894 -26.8567 195.724L-10.0066 178.874C-9.8364 178.704 -9.60947 178.704 -9.43926 178.874L7.41086 195.724C7.52433 195.837 7.52432 195.894 7.52432 196.008Z" fill="#6093B9"/>
<path d="M33.1677 128.323C33.1677 128.437 33.1109 128.55 33.0542 128.607L-9.43986 171.101C-9.49659 171.158 -9.61006 171.215 -9.72353 171.215C-9.837 171.215 -9.95047 171.158 -10.0072 171.101L-52.5013 128.607C-52.6715 128.437 -52.6715 128.21 -52.5013 128.04C-52.3311 127.87 -52.1041 127.87 -51.9339 128.04L-9.72353 170.25L32.4869 128.04C32.6571 127.87 32.884 127.87 33.0542 128.04C33.1677 128.096 33.1677 128.21 33.1677 128.323Z" fill="#6093B9"/>
<path d="M24.373 128.323C24.373 128.437 24.3163 128.55 24.2595 128.607L-9.44072 162.307C-9.61092 162.478 -9.83786 162.478 -10.0081 162.307L-43.7083 128.607C-43.8785 128.437 -43.8785 128.21 -43.7083 128.04C-43.5381 127.87 -43.3111 127.87 -43.1409 128.04L-9.72439 161.456L23.6922 128.04C23.8624 127.87 24.0893 127.87 24.2595 128.04C24.373 128.096 24.373 128.21 24.373 128.323Z" fill="#6093B9"/>
<path d="M15.9212 128.323C15.9212 128.437 15.8645 128.55 15.8077 128.607C15.6375 128.777 15.4106 128.777 15.2404 128.607L-9.72274 103.644L-34.6859 128.607C-34.8561 128.777 -35.083 128.777 -35.2532 128.607C-35.4234 128.437 -35.4234 128.21 -35.2532 128.039L-10.0064 102.793C-9.83621 102.622 -9.60927 102.622 -9.43907 102.793L15.8077 128.039C15.9212 128.096 15.9212 128.21 15.9212 128.323Z" fill="#6093B9"/>
<path d="M7.52432 128.323C7.52432 128.436 7.46759 128.55 7.41086 128.607C7.24065 128.777 7.01371 128.777 6.84351 128.607L-9.72294 112.04L-26.2894 128.607C-26.4596 128.777 -26.6865 128.777 -26.8567 128.607C-27.0269 128.436 -27.0269 128.209 -26.8567 128.039L-10.0066 111.189C-9.8364 111.019 -9.60947 111.019 -9.43926 111.189L7.41086 128.039C7.52433 128.096 7.52432 128.209 7.52432 128.323Z" fill="#6093B9"/>
<path d="M33.1677 60.5842C33.1677 60.6976 33.1109 60.8111 33.0542 60.8678L-9.43986 103.362C-9.61006 103.532 -9.837 103.532 -10.0072 103.362L-52.5013 60.8678C-52.6715 60.6976 -52.6715 60.4707 -52.5013 60.3005C-52.3311 60.1303 -52.1041 60.1303 -51.9339 60.3005L-9.72353 102.511L32.4869 60.3005C32.6571 60.1303 32.884 60.1303 33.0542 60.3005C33.1677 60.3572 33.1677 60.4707 33.1677 60.5842Z" fill="#6093B9"/>
<path d="M24.373 60.5842C24.373 60.6976 24.3163 60.8111 24.2595 60.8678L-9.44072 94.5681C-9.61092 94.7383 -9.83786 94.7383 -10.0081 94.5681L-43.7083 60.8678C-43.8785 60.6976 -43.8785 60.4707 -43.7083 60.3005C-43.5381 60.1303 -43.3111 60.1303 -43.1409 60.3005L-9.72439 93.7171L23.6922 60.3005C23.8624 60.1303 24.0893 60.1303 24.2595 60.3005C24.373 60.3572 24.373 60.4707 24.373 60.5842Z" fill="#6093B9"/>
<path d="M15.9212 60.5839C15.9212 60.6974 15.8645 60.8108 15.8077 60.8676C15.6375 61.0378 15.4106 61.0378 15.2404 60.8676L-9.72274 35.9044L-34.6859 60.8676C-34.8561 61.0378 -35.083 61.0378 -35.2532 60.8676C-35.4234 60.6974 -35.4234 60.4704 -35.2532 60.3002L-10.0064 35.0534C-9.83621 34.8832 -9.60927 34.8832 -9.43907 35.0534L15.8077 60.3002C15.9212 60.357 15.9212 60.4704 15.9212 60.5839Z" fill="#6093B9"/>
<path d="M7.52432 60.5837C7.52432 60.6972 7.46759 60.8106 7.41086 60.8674C7.24065 61.0376 7.01371 61.0376 6.84351 60.8674L-9.72294 44.3009L-26.2894 60.8674C-26.4596 61.0376 -26.6865 61.0376 -26.8567 60.8674C-27.0269 60.6972 -27.0269 60.4702 -26.8567 60.3L-10.0066 43.4499C-9.8364 43.2797 -9.60947 43.2797 -9.43926 43.4499L7.41086 60.3C7.52433 60.3568 7.52432 60.4702 7.52432 60.5837Z" fill="#6093B9"/>
<path d="M33.1677 -7.15704C33.1677 -7.04357 33.1109 -6.9301 33.0542 -6.87336L-9.43986 35.6207C-9.49659 35.6774 -9.61006 35.7342 -9.72353 35.7342C-9.837 35.7342 -9.95047 35.6774 -10.0072 35.6207L-52.5013 -6.87336C-52.6715 -7.04357 -52.6715 -7.2705 -52.5013 -7.44071C-52.3311 -7.61091 -52.1041 -7.61091 -51.9339 -7.44071L-9.72353 34.7697L32.4869 -7.44071C32.6571 -7.61091 32.884 -7.61091 33.0542 -7.44071C33.1677 -7.32724 33.1677 -7.2705 33.1677 -7.15704Z" fill="#6093B9"/>
<path d="M24.373 -7.15703C24.373 -7.04357 24.3163 -6.9301 24.2595 -6.87336L-9.44072 26.8269C-9.61092 26.9971 -9.83786 26.9971 -10.0081 26.8269L-43.7083 -6.87336C-43.8785 -7.04357 -43.8785 -7.2705 -43.7083 -7.44071C-43.5381 -7.61091 -43.3111 -7.61091 -43.1409 -7.44071L-9.72439 25.9759L23.6922 -7.44071C23.8624 -7.61091 24.0893 -7.61091 24.2595 -7.44071C24.373 -7.32724 24.373 -7.2705 24.373 -7.15703Z" fill="#6093B9"/>
<path d="M49.7903 297.62C49.7903 297.734 49.7336 297.847 49.6769 297.904C49.5067 298.074 49.2797 298.074 49.1095 297.904L24.1464 272.941L-0.816722 297.904C-0.986926 298.074 -1.21386 298.074 -1.38407 297.904C-1.55427 297.734 -1.55427 297.507 -1.38407 297.336L23.8627 272.09C24.0329 271.919 24.2599 271.919 24.4301 272.09L49.6769 297.336C49.7904 297.393 49.7903 297.507 49.7903 297.62Z" fill="#6093B9"/>
<path d="M67.0368 229.879C67.0368 229.993 66.9801 230.106 66.9233 230.163L24.4293 272.657C24.2591 272.827 24.0322 272.827 23.8619 272.657L-18.6321 230.163C-18.8023 229.993 -18.8023 229.766 -18.6321 229.595C-18.4619 229.425 -18.235 229.425 -18.0648 229.595L24.1456 271.806L66.356 229.595C66.5262 229.425 66.7532 229.425 66.9233 229.595C66.9801 229.652 67.0368 229.766 67.0368 229.879Z" fill="#6093B9"/>
<path d="M58.2421 229.879C58.2421 229.993 58.1854 230.106 58.1287 230.163L24.4284 263.863C24.2582 264.033 24.0313 264.033 23.8611 263.863L-9.83914 230.163C-10.0093 229.993 -10.0093 229.766 -9.83914 229.595C-9.66894 229.425 -9.442 229.425 -9.2718 229.595L24.1448 263.012L57.5613 229.595C57.7315 229.425 57.9585 229.425 58.1287 229.595C58.1854 229.652 58.2421 229.766 58.2421 229.879Z" fill="#6093B9"/>
<path d="M49.7903 229.879C49.7903 229.992 49.7336 230.106 49.6769 230.163C49.5067 230.333 49.2797 230.333 49.1095 230.163L24.1464 205.199L-0.816722 230.163C-0.986926 230.333 -1.21386 230.333 -1.38407 230.163C-1.55427 229.992 -1.55427 229.765 -1.38407 229.595L23.8627 204.348C24.0329 204.178 24.2599 204.178 24.4301 204.348L49.6769 229.595C49.7904 229.652 49.7903 229.765 49.7903 229.879Z" fill="#6093B9"/>
<path d="M41.3935 229.879C41.3935 229.992 41.3367 230.106 41.28 230.162C41.1098 230.333 40.8829 230.333 40.7127 230.162L24.1462 213.596L7.57976 230.162C7.40956 230.333 7.18262 230.333 7.01242 230.162C6.84221 229.992 6.84221 229.765 7.01242 229.595L23.8625 212.745C24.0327 212.575 24.2597 212.575 24.4299 212.745L41.28 229.595C41.3935 229.652 41.3935 229.765 41.3935 229.879Z" fill="#6093B9"/>
<path d="M67.0368 162.195C67.0368 162.308 66.9801 162.422 66.9233 162.478L24.4293 204.916C24.2591 205.086 24.0322 205.086 23.8619 204.916L-18.6321 162.422C-18.8023 162.251 -18.8023 162.024 -18.6321 161.854C-18.4619 161.684 -18.235 161.684 -18.0648 161.854L24.1456 204.065L66.356 161.854C66.5262 161.684 66.7532 161.684 66.9233 161.854C66.9801 161.968 67.0368 162.081 67.0368 162.195Z" fill="#6093B9"/>
<path d="M58.2421 162.195C58.2421 162.308 58.1854 162.421 58.1287 162.478L24.4284 196.178C24.2582 196.349 24.0313 196.349 23.8611 196.178L-9.83914 162.478C-10.0093 162.308 -10.0093 162.081 -9.83914 161.911C-9.66894 161.741 -9.442 161.741 -9.2718 161.911L24.1448 195.327L57.5613 161.911C57.7315 161.741 57.9585 161.741 58.1287 161.911C58.1854 161.968 58.2421 162.081 58.2421 162.195Z" fill="#6093B9"/>
<path d="M49.7903 162.194C49.7903 162.308 49.7336 162.421 49.6769 162.478C49.5067 162.648 49.2797 162.648 49.1095 162.478L24.1464 137.515L-0.816722 162.478C-0.986926 162.648 -1.21386 162.648 -1.38407 162.478C-1.55427 162.308 -1.55427 162.081 -1.38407 161.911L23.8627 136.664C24.0329 136.494 24.2599 136.494 24.4301 136.664L49.6769 161.911C49.7904 161.967 49.7903 162.081 49.7903 162.194Z" fill="#6093B9"/>
<path d="M41.3935 162.194C41.3935 162.308 41.3367 162.421 41.28 162.478C41.1098 162.648 40.8829 162.648 40.7127 162.478L24.1462 145.911L7.57976 162.478C7.40956 162.648 7.18262 162.648 7.01242 162.478C6.84221 162.308 6.84221 162.081 7.01242 161.91L23.8625 145.06C24.0327 144.89 24.2597 144.89 24.4299 145.06L41.28 161.91C41.3935 161.967 41.3935 162.081 41.3935 162.194Z" fill="#6093B9"/>
<path d="M67.0368 94.4533C67.0368 94.5668 66.9801 94.6803 66.9233 94.737L24.4293 137.231C24.2591 137.401 24.0322 137.401 23.8619 137.231L-18.6321 94.737C-18.8023 94.5668 -18.8023 94.3398 -18.6321 94.1696C-18.4619 93.9994 -18.235 93.9994 -18.0648 94.1696L24.1456 136.38L66.356 94.1696C66.5262 93.9994 66.7532 93.9994 66.9233 94.1696C66.9801 94.2264 67.0368 94.3398 67.0368 94.4533Z" fill="#6093B9"/>
<path d="M58.2421 94.4533C58.2421 94.5668 58.1854 94.6803 58.1287 94.737L24.4284 128.437C24.2582 128.607 24.0313 128.607 23.8611 128.437L-9.83914 94.737C-10.0093 94.5668 -10.0093 94.3398 -9.83914 94.1696C-9.66894 93.9994 -9.442 93.9994 -9.2718 94.1696L24.1448 127.586L57.5613 94.1696C57.7315 93.9994 57.9585 93.9994 58.1287 94.1696C58.1854 94.2264 58.2421 94.3398 58.2421 94.4533Z" fill="#6093B9"/>
<path d="M49.7903 94.4531C49.7903 94.5665 49.7336 94.68 49.6769 94.7367C49.5067 94.9069 49.2797 94.9069 49.1095 94.7367L24.1464 69.7736L-0.816722 94.7367C-0.986926 94.9069 -1.21386 94.9069 -1.38407 94.7367C-1.55427 94.5665 -1.55427 94.3396 -1.38407 94.1694L23.8627 68.9226C24.0329 68.7524 24.2599 68.7524 24.4301 68.9226L49.6769 94.1694C49.7904 94.2261 49.7903 94.3396 49.7903 94.4531Z" fill="#6093B9"/>
<path d="M41.3935 94.4528C41.3935 94.5663 41.3367 94.6798 41.28 94.7365C41.1098 94.9067 40.8829 94.9067 40.7127 94.7365L24.1462 78.1701L7.57976 94.7365C7.40956 94.9067 7.18262 94.9067 7.01242 94.7365C6.84221 94.5663 6.84221 94.3394 7.01242 94.1692L23.8625 77.3191C24.0327 77.1489 24.2597 77.1489 24.4299 77.3191L41.28 94.1692C41.3935 94.2259 41.3935 94.3394 41.3935 94.4528Z" fill="#6093B9"/>
<path d="M67.0368 26.7131C67.0368 26.8266 66.9801 26.94 66.9233 26.9968L24.4293 69.4908C24.2591 69.661 24.0322 69.661 23.8619 69.4908L-18.6321 26.9968C-18.8023 26.8266 -18.8023 26.5996 -18.6321 26.4294C-18.4619 26.2592 -18.235 26.2592 -18.0648 26.4294L24.1456 68.6398L66.356 26.4294C66.5262 26.2592 66.7532 26.2592 66.9233 26.4294C66.9801 26.4861 67.0368 26.5996 67.0368 26.7131Z" fill="#6093B9"/>
<path d="M58.2421 26.7131C58.2421 26.8266 58.1854 26.94 58.1287 26.9968L24.4284 60.697C24.2582 60.8672 24.0313 60.8672 23.8611 60.697L-9.83914 26.9968C-10.0093 26.8266 -10.0093 26.5996 -9.83914 26.4294C-9.66894 26.2592 -9.442 26.2592 -9.2718 26.4294L24.1448 59.846L57.5613 26.4294C57.7315 26.2592 57.9585 26.2592 58.1287 26.4294C58.1854 26.4861 58.2421 26.5996 58.2421 26.7131Z" fill="#6093B9"/>
<path d="M49.7903 26.7128C49.7903 26.8263 49.7336 26.9398 49.6769 26.9965C49.5067 27.1667 49.2797 27.1667 49.1095 26.9965L24.1464 2.03336L-0.816722 26.9965C-0.986926 27.1667 -1.21386 27.1667 -1.38407 26.9965C-1.55427 26.8263 -1.55427 26.5993 -1.38407 26.4291L23.8627 1.18234C24.0329 1.01214 24.2599 1.01214 24.4301 1.18234L49.6769 26.4291C49.7904 26.4859 49.7903 26.5993 49.7903 26.7128Z" fill="#6093B9"/>
<path d="M41.3935 26.7126C41.3935 26.8261 41.3367 26.9395 41.28 26.9963C41.1098 27.1665 40.8829 27.1665 40.7127 26.9963L24.1462 10.4298L7.57976 26.9963C7.40956 27.1665 7.18262 27.1665 7.01242 26.9963C6.84221 26.8261 6.84221 26.5991 7.01242 26.4289L23.8625 9.57882C24.0327 9.40862 24.2597 9.40862 24.4299 9.57882L41.28 26.4289C41.3935 26.4857 41.3935 26.5991 41.3935 26.7126Z" fill="#6093B9"/>
<path d="M67.0368 -40.9705C67.0368 -40.857 66.9801 -40.7436 66.9233 -40.6868L24.4293 1.80722C24.2591 1.97742 24.0322 1.97742 23.8619 1.80722L-18.6321 -40.6868C-18.8023 -40.857 -18.8023 -41.084 -18.6321 -41.2542C-18.4619 -41.4244 -18.235 -41.4244 -18.0648 -41.2542L24.1456 0.956203L66.356 -41.2542C66.5262 -41.4244 66.7532 -41.4244 66.9233 -41.2542C66.9801 -41.1974 67.0368 -41.084 67.0368 -40.9705Z" fill="#6093B9"/>
<path d="M100.908 263.749C100.908 263.863 100.851 263.976 100.794 264.033L58.3004 306.527C58.2436 306.584 58.1302 306.64 58.0167 306.64C57.9032 306.64 57.7898 306.584 57.733 306.527L15.239 264.033C15.0688 263.863 15.0688 263.636 15.239 263.466C15.4092 263.295 15.6361 263.295 15.8063 263.466L58.0167 305.676L100.227 263.466C100.397 263.295 100.624 263.295 100.794 263.466C100.851 263.522 100.908 263.636 100.908 263.749Z" fill="#6093B9"/>
<path d="M92.1132 263.749C92.1132 263.863 92.0565 263.976 91.9998 264.033L58.2995 297.733C58.1293 297.903 57.9024 297.903 57.7322 297.733L24.0319 264.033C23.8617 263.863 23.8617 263.636 24.0319 263.466C24.2022 263.295 24.4291 263.295 24.5993 263.466L58.0158 296.882L91.4324 263.466C91.6026 263.295 91.8296 263.295 91.9998 263.466C92.0565 263.522 92.1132 263.636 92.1132 263.749Z" fill="#6093B9"/>
<path d="M83.6614 263.749C83.6614 263.862 83.6047 263.976 83.548 264.033C83.3778 264.203 83.1508 264.203 82.9806 264.033L58.0175 239.069L33.0544 264.033C32.8842 264.203 32.6572 264.203 32.487 264.033C32.3168 263.862 32.3168 263.635 32.487 263.465L57.7338 238.218C57.904 238.048 58.131 238.048 58.3012 238.218L83.548 263.465C83.6047 263.522 83.6614 263.635 83.6614 263.749Z" fill="#6093B9"/>
<path d="M75.2646 263.749C75.2646 263.862 75.2078 263.976 75.1511 264.032C74.9809 264.203 74.7539 264.203 74.5837 264.032L58.0173 247.466L41.4509 264.032C41.2807 264.203 41.0537 264.203 40.8835 264.032C40.7133 263.862 40.7133 263.635 40.8835 263.465L57.7336 246.615C57.9038 246.445 58.1308 246.445 58.301 246.615L75.1511 263.465C75.2078 263.522 75.2646 263.635 75.2646 263.749Z" fill="#6093B9"/>
<path d="M100.908 196.008C100.908 196.121 100.851 196.235 100.794 196.292L58.3004 238.786C58.1302 238.956 57.9032 238.956 57.733 238.786L15.239 196.292C15.0688 196.121 15.0688 195.895 15.239 195.724C15.4092 195.554 15.6361 195.554 15.8063 195.724L58.0167 237.935L100.227 195.724C100.397 195.554 100.624 195.554 100.794 195.724C100.851 195.838 100.908 195.895 100.908 196.008Z" fill="#6093B9"/>
<path d="M92.1132 196.008C92.1132 196.121 92.0565 196.235 91.9998 196.292L58.2995 229.992C58.1293 230.162 57.9024 230.162 57.7322 229.992L24.0319 196.292C23.8617 196.121 23.8617 195.895 24.0319 195.724C24.2022 195.554 24.4291 195.554 24.5993 195.724L58.0158 229.141L91.4324 195.724C91.6026 195.554 91.8296 195.554 91.9998 195.724C92.0565 195.838 92.1132 195.895 92.1132 196.008Z" fill="#6093B9"/>
<path d="M83.6614 196.008C83.6614 196.121 83.6047 196.235 83.548 196.291C83.3778 196.462 83.1508 196.462 82.9806 196.291L58.0175 171.328L33.0544 196.291C32.8842 196.462 32.6572 196.462 32.487 196.291C32.3168 196.121 32.3168 195.894 32.487 195.724L57.7338 170.477C57.904 170.307 58.131 170.307 58.3012 170.477L83.548 195.724C83.6047 195.838 83.6614 195.894 83.6614 196.008Z" fill="#6093B9"/>
<path d="M75.2646 196.008C75.2646 196.121 75.2078 196.234 75.1511 196.291C74.9809 196.461 74.7539 196.461 74.5837 196.291L58.0173 179.725L41.4509 196.291C41.2807 196.461 41.0537 196.461 40.8835 196.291C40.7133 196.121 40.7133 195.894 40.8835 195.724L57.7336 178.874C57.9038 178.704 58.1308 178.704 58.301 178.874L75.1511 195.724C75.2078 195.837 75.2646 195.894 75.2646 196.008Z" fill="#6093B9"/>
<path d="M100.908 128.323C100.908 128.437 100.851 128.55 100.794 128.607L58.3004 171.101C58.2436 171.158 58.1302 171.215 58.0167 171.215C57.9032 171.215 57.7898 171.158 57.733 171.101L15.239 128.607C15.0688 128.437 15.0688 128.21 15.239 128.04C15.4092 127.87 15.6361 127.87 15.8063 128.04L58.0167 170.25L100.227 128.04C100.397 127.87 100.624 127.87 100.794 128.04C100.851 128.096 100.908 128.21 100.908 128.323Z" fill="#6093B9"/>
<path d="M92.1132 128.323C92.1132 128.437 92.0565 128.55 91.9998 128.607L58.2995 162.307C58.1293 162.478 57.9024 162.478 57.7322 162.307L24.0319 128.607C23.8617 128.437 23.8617 128.21 24.0319 128.04C24.2022 127.87 24.4291 127.87 24.5993 128.04L58.0158 161.456L91.4324 128.04C91.6026 127.87 91.8296 127.87 91.9998 128.04C92.0565 128.096 92.1132 128.21 92.1132 128.323Z" fill="#6093B9"/>
<path d="M83.6614 128.323C83.6614 128.437 83.6047 128.55 83.548 128.607C83.3778 128.777 83.1508 128.777 82.9806 128.607L58.0175 103.644L33.0544 128.607C32.8842 128.777 32.6572 128.777 32.487 128.607C32.3168 128.437 32.3168 128.21 32.487 128.039L57.7338 102.793C57.904 102.622 58.131 102.622 58.3012 102.793L83.548 128.039C83.6047 128.096 83.6614 128.21 83.6614 128.323Z" fill="#6093B9"/>
<path d="M75.2646 128.323C75.2646 128.436 75.2078 128.55 75.1511 128.607C74.9809 128.777 74.7539 128.777 74.5837 128.607L58.0173 112.04L41.4509 128.607C41.2807 128.777 41.0537 128.777 40.8835 128.607C40.7133 128.436 40.7133 128.209 40.8835 128.039L57.7336 111.189C57.9038 111.019 58.1308 111.019 58.301 111.189L75.1511 128.039C75.2078 128.096 75.2646 128.209 75.2646 128.323Z" fill="#6093B9"/>
<path d="M100.908 60.5842C100.908 60.6976 100.851 60.8111 100.794 60.8678L58.3004 103.362C58.1302 103.532 57.9032 103.532 57.733 103.362L15.239 60.8678C15.0688 60.6976 15.0688 60.4707 15.239 60.3005C15.4092 60.1303 15.6361 60.1303 15.8063 60.3005L58.0167 102.511L100.227 60.3005C100.397 60.1303 100.624 60.1303 100.794 60.3005C100.851 60.3572 100.908 60.4707 100.908 60.5842Z" fill="#6093B9"/>
<path d="M92.1132 60.5842C92.1132 60.6976 92.0565 60.8111 91.9998 60.8678L58.2995 94.5681C58.1293 94.7383 57.9024 94.7383 57.7322 94.5681L24.0319 60.8678C23.8617 60.6976 23.8617 60.4707 24.0319 60.3005C24.2022 60.1303 24.4291 60.1303 24.5993 60.3005L58.0158 93.7171L91.4324 60.3005C91.6026 60.1303 91.8296 60.1303 91.9998 60.3005C92.0565 60.3572 92.1132 60.4707 92.1132 60.5842Z" fill="#6093B9"/>
<path d="M83.6614 60.5839C83.6614 60.6974 83.6047 60.8108 83.548 60.8676C83.3778 61.0378 83.1508 61.0378 82.9806 60.8676L58.0175 35.9044L33.0544 60.8676C32.8842 61.0378 32.6572 61.0378 32.487 60.8676C32.3168 60.6974 32.3168 60.4704 32.487 60.3002L57.7338 35.0534C57.904 34.8832 58.131 34.8832 58.3012 35.0534L83.548 60.3002C83.6047 60.357 83.6614 60.4704 83.6614 60.5839Z" fill="#6093B9"/>
<path d="M75.2646 60.5837C75.2646 60.6972 75.2078 60.8106 75.1511 60.8674C74.9809 61.0376 74.7539 61.0376 74.5837 60.8674L58.0173 44.3009L41.4509 60.8674C41.2807 61.0376 41.0537 61.0376 40.8835 60.8674C40.7133 60.6972 40.7133 60.4702 40.8835 60.3L57.7336 43.4499C57.9038 43.2797 58.1308 43.2797 58.301 43.4499L75.1511 60.3C75.2078 60.3568 75.2646 60.4702 75.2646 60.5837Z" fill="#6093B9"/>
<path d="M100.908 -7.15704C100.908 -7.04357 100.851 -6.9301 100.794 -6.87336L58.3004 35.6207C58.2436 35.6774 58.1302 35.7342 58.0167 35.7342C57.9032 35.7342 57.7898 35.6774 57.733 35.6207L15.239 -6.87336C15.0688 -7.04357 15.0688 -7.2705 15.239 -7.44071C15.4092 -7.61091 15.6361 -7.61091 15.8063 -7.44071L58.0167 34.7697L100.227 -7.44071C100.397 -7.61091 100.624 -7.61091 100.794 -7.44071C100.851 -7.32724 100.908 -7.2705 100.908 -7.15704Z" fill="#6093B9"/>
<path d="M92.1132 -7.15703C92.1132 -7.04357 92.0565 -6.9301 91.9998 -6.87336L58.2995 26.8269C58.1293 26.9971 57.9024 26.9971 57.7322 26.8269L24.0319 -6.87336C23.8617 -7.04357 23.8617 -7.2705 24.0319 -7.44071C24.2022 -7.61091 24.4291 -7.61091 24.5993 -7.44071L58.0158 25.9759L91.4324 -7.44071C91.6026 -7.61091 91.8296 -7.61091 91.9998 -7.44071C92.0565 -7.32724 92.1132 -7.2705 92.1132 -7.15703Z" fill="#6093B9"/>
<path d="M117.533 297.62C117.533 297.733 117.476 297.846 117.419 297.903C117.249 298.073 117.022 298.073 116.852 297.903L91.8886 272.94L66.9255 297.903C66.7553 298.073 66.5283 298.073 66.3581 297.903C66.1879 297.733 66.1879 297.506 66.3581 297.336L91.6049 272.089C91.6617 272.032 91.7751 271.976 91.8886 271.976C92.0021 271.976 92.1155 272.032 92.1723 272.089L117.419 297.336C117.476 297.393 117.533 297.506 117.533 297.62Z" fill="#6093B9"/>
<path d="M134.779 229.878C134.779 229.992 134.722 230.105 134.666 230.162L92.1715 272.656C92.0013 272.826 91.7743 272.826 91.6041 272.656L49.1101 230.162C48.9399 229.992 48.9399 229.765 49.1101 229.594C49.2803 229.424 49.5072 229.424 49.6774 229.594L91.8878 271.805L134.098 229.594C134.268 229.424 134.495 229.424 134.666 229.594C134.722 229.651 134.779 229.765 134.779 229.878Z" fill="#6093B9"/>
<path d="M125.984 229.878C125.984 229.992 125.928 230.105 125.871 230.162L92.1706 263.862C92.1139 263.919 92.0004 263.975 91.8869 263.975C91.7735 263.975 91.66 263.919 91.6033 263.862L57.903 230.162C57.7328 229.992 57.7328 229.765 57.903 229.594C58.0732 229.424 58.3002 229.424 58.4704 229.594L91.8869 263.011L125.303 229.594C125.474 229.424 125.701 229.424 125.871 229.594C125.928 229.651 125.984 229.765 125.984 229.878Z" fill="#6093B9"/>
<path d="M117.533 229.878C117.533 229.992 117.476 230.105 117.419 230.162C117.249 230.332 117.022 230.332 116.852 230.162L91.8886 205.199L66.9255 230.162C66.7553 230.332 66.5283 230.332 66.3581 230.162C66.1879 229.992 66.1879 229.765 66.3581 229.595L91.6049 204.348C91.6617 204.291 91.7751 204.234 91.8886 204.234C92.0021 204.234 92.1155 204.291 92.1723 204.348L117.419 229.595C117.476 229.651 117.533 229.765 117.533 229.878Z" fill="#6093B9"/>
<path d="M109.136 229.879C109.136 229.992 109.079 230.106 109.022 230.162C108.852 230.333 108.625 230.333 108.455 230.162L91.8884 213.596L75.3219 230.162C75.1517 230.333 74.9248 230.333 74.7546 230.162C74.5844 229.992 74.5844 229.765 74.7546 229.595L91.6047 212.745C91.7749 212.575 92.0019 212.575 92.1721 212.745L109.022 229.595C109.079 229.652 109.136 229.765 109.136 229.879Z" fill="#6093B9"/>
<path d="M134.779 162.195C134.779 162.308 134.722 162.422 134.666 162.478L92.1715 204.916C92.1147 204.972 92.0013 205.029 91.8878 205.029C91.7743 205.029 91.6609 204.972 91.6041 204.916L49.1101 162.422C48.9399 162.251 48.9399 162.024 49.1101 161.854C49.2803 161.684 49.5072 161.684 49.6774 161.854L91.8878 204.065L134.098 161.854C134.268 161.684 134.495 161.684 134.666 161.854C134.722 161.968 134.779 162.081 134.779 162.195Z" fill="#6093B9"/>
<path d="M125.984 162.195C125.984 162.308 125.928 162.422 125.871 162.478L92.1706 196.122C92.1139 196.179 92.0004 196.235 91.8869 196.235C91.7735 196.235 91.66 196.179 91.6033 196.122L57.903 162.422C57.7328 162.251 57.7328 162.024 57.903 161.854C58.0732 161.684 58.3002 161.684 58.4704 161.854L91.8869 195.271L125.303 161.854C125.474 161.684 125.701 161.684 125.871 161.854C125.928 161.968 125.984 162.081 125.984 162.195Z" fill="#6093B9"/>
<path d="M117.533 162.195C117.533 162.308 117.476 162.422 117.419 162.478C117.249 162.649 117.022 162.649 116.852 162.478L91.8886 137.515L66.9255 162.478C66.7553 162.649 66.5283 162.649 66.3581 162.478C66.1879 162.308 66.1879 162.081 66.3581 161.911L91.6049 136.664C91.6617 136.608 91.7751 136.551 91.8886 136.551C92.0021 136.551 92.1155 136.608 92.1723 136.664L117.419 161.911C117.476 161.968 117.533 162.081 117.533 162.195Z" fill="#6093B9"/>
<path d="M109.136 162.195C109.136 162.309 109.079 162.422 109.022 162.479C108.852 162.649 108.625 162.649 108.455 162.479L91.8884 145.912L75.3219 162.479C75.1517 162.649 74.9248 162.649 74.7546 162.479C74.5844 162.309 74.5844 162.082 74.7546 161.911L91.6047 145.061C91.7749 144.891 92.0019 144.891 92.1721 145.061L109.022 161.911C109.079 161.968 109.136 162.082 109.136 162.195Z" fill="#6093B9"/>
<path d="M134.779 94.4533C134.779 94.5668 134.722 94.6803 134.666 94.737L92.1715 137.231C92.0013 137.401 91.7743 137.401 91.6041 137.231L49.1101 94.737C48.9399 94.5668 48.9399 94.3398 49.1101 94.1696C49.2803 93.9994 49.5072 93.9994 49.6774 94.1696L91.8878 136.38L134.098 94.1696C134.268 93.9994 134.495 93.9994 134.666 94.1696C134.722 94.2264 134.779 94.3398 134.779 94.4533Z" fill="#6093B9"/>
<path d="M125.984 94.4533C125.984 94.5668 125.928 94.6803 125.871 94.737L92.1706 128.437C92.1139 128.494 92.0004 128.551 91.8869 128.551C91.7735 128.551 91.66 128.494 91.6033 128.437L57.903 94.737C57.7328 94.5668 57.7328 94.3398 57.903 94.1696C58.0732 93.9994 58.3002 93.9994 58.4704 94.1696L91.8869 127.586L125.303 94.1696C125.474 93.9994 125.701 93.9994 125.871 94.1696C125.928 94.2264 125.984 94.3398 125.984 94.4533Z" fill="#6093B9"/>
<path d="M117.533 94.4535C117.533 94.567 117.476 94.6804 117.419 94.7372C117.249 94.9074 117.022 94.9074 116.852 94.7372L91.8886 69.774L66.9255 94.7372C66.7553 94.9074 66.5283 94.9074 66.3581 94.7372C66.1879 94.567 66.1879 94.34 66.3581 94.1698L91.6049 68.923C91.6617 68.8663 91.7751 68.8096 91.8886 68.8096C92.0021 68.8096 92.1155 68.8663 92.1723 68.923L117.419 94.1698C117.476 94.2266 117.533 94.34 117.533 94.4535Z" fill="#6093B9"/>
<path d="M109.136 94.4538C109.136 94.5673 109.079 94.6807 109.022 94.7375C108.852 94.9077 108.625 94.9077 108.455 94.7375L91.8884 78.1711L75.3219 94.7375C75.1517 94.9077 74.9248 94.9077 74.7546 94.7375C74.5844 94.5673 74.5844 94.3403 74.7546 94.1701L91.6047 77.32C91.7749 77.1498 92.0019 77.1498 92.1721 77.32L109.022 94.1701C109.079 94.2269 109.136 94.3403 109.136 94.4538Z" fill="#6093B9"/>
<path d="M134.779 26.7131C134.779 26.8266 134.722 26.94 134.666 26.9968L92.1715 69.4908C92.1147 69.5475 92.0013 69.6043 91.8878 69.6043C91.7743 69.6043 91.6609 69.5475 91.6041 69.4908L49.1101 26.9968C48.9399 26.8266 48.9399 26.5996 49.1101 26.4294C49.2803 26.2592 49.5072 26.2592 49.6774 26.4294L91.8878 68.6398L134.098 26.4294C134.268 26.2592 134.495 26.2592 134.666 26.4294C134.722 26.4861 134.779 26.5996 134.779 26.7131Z" fill="#6093B9"/>
<path d="M125.984 26.7131C125.984 26.8266 125.928 26.94 125.871 26.9968L92.1706 60.697C92.1139 60.7537 92.0004 60.8105 91.8869 60.8105C91.7735 60.8105 91.66 60.7537 91.6033 60.697L57.903 26.9968C57.7328 26.8266 57.7328 26.5996 57.903 26.4294C58.0732 26.2592 58.3002 26.2592 58.4704 26.4294L91.8869 59.846L125.303 26.4294C125.474 26.2592 125.701 26.2592 125.871 26.4294C125.928 26.4861 125.984 26.5996 125.984 26.7131Z" fill="#6093B9"/>
<path d="M117.533 26.7128C117.533 26.8263 117.476 26.9398 117.419 26.9965C117.249 27.1667 117.022 27.1667 116.852 26.9965L91.8886 2.03336L66.9255 26.9965C66.7553 27.1667 66.5283 27.1667 66.3581 26.9965C66.1879 26.8263 66.1879 26.5993 66.3581 26.4291L91.6049 1.18234C91.7751 1.01214 92.0021 1.01214 92.1723 1.18234L117.419 26.4291C117.476 26.4859 117.533 26.5993 117.533 26.7128Z" fill="#6093B9"/>
<path d="M109.136 26.7126C109.136 26.8261 109.079 26.9395 109.022 26.9963C108.852 27.1665 108.625 27.1665 108.455 26.9963L91.8884 10.4298L75.3219 26.9963C75.1517 27.1665 74.9248 27.1665 74.7546 26.9963C74.5844 26.8261 74.5844 26.5991 74.7546 26.4289L91.6047 9.57882C91.7749 9.40862 92.0019 9.40862 92.1721 9.57882L109.022 26.4289C109.079 26.4857 109.136 26.5991 109.136 26.7126Z" fill="#6093B9"/>
<path d="M134.779 -40.9714C134.779 -40.8579 134.722 -40.7445 134.666 -40.6877L92.1715 1.7496C92.1147 1.80634 92.0013 1.86308 91.8878 1.86308C91.7743 1.86308 91.6609 1.80634 91.6041 1.7496L49.1101 -40.7445C48.9399 -40.9147 48.9399 -41.1416 49.1101 -41.3118C49.2803 -41.482 49.5072 -41.482 49.6774 -41.3118L91.8878 0.898586L134.098 -41.3118C134.268 -41.482 134.495 -41.482 134.666 -41.3118C134.722 -41.1983 134.779 -41.0849 134.779 -40.9714Z" fill="#6093B9"/>
<path d="M168.648 263.749C168.648 263.863 168.591 263.976 168.535 264.033L126.041 306.527C125.984 306.584 125.87 306.64 125.757 306.64C125.643 306.64 125.53 306.584 125.473 306.527L82.9792 264.033C82.809 263.863 82.809 263.636 82.9792 263.466C83.1494 263.295 83.3764 263.295 83.5466 263.466L125.757 305.676L167.967 263.466C168.138 263.295 168.364 263.295 168.535 263.466C168.591 263.522 168.648 263.636 168.648 263.749Z" fill="#6093B9"/>
<path d="M159.853 263.749C159.853 263.863 159.797 263.976 159.74 264.033L126.04 297.733C125.983 297.79 125.87 297.847 125.756 297.847C125.643 297.847 125.529 297.79 125.472 297.733L91.7722 264.033C91.602 263.863 91.602 263.636 91.7722 263.466C91.9424 263.295 92.1693 263.295 92.3395 263.466L125.756 296.882L159.173 263.466C159.343 263.295 159.57 263.295 159.74 263.466C159.797 263.522 159.853 263.636 159.853 263.749Z" fill="#6093B9"/>
<path d="M151.402 263.749C151.402 263.862 151.345 263.976 151.288 264.033C151.118 264.203 150.891 264.203 150.721 264.033L125.758 239.069L100.795 264.033C100.624 264.203 100.397 264.203 100.227 264.033C100.057 263.862 100.057 263.635 100.227 263.465L125.474 238.218C125.644 238.048 125.871 238.048 126.041 238.218L151.288 263.465C151.345 263.522 151.402 263.635 151.402 263.749Z" fill="#6093B9"/>
<path d="M143.005 263.749C143.005 263.862 142.948 263.976 142.891 264.032C142.721 264.203 142.494 264.203 142.324 264.032L125.758 247.466L109.191 264.032C109.021 264.203 108.794 264.203 108.624 264.032C108.454 263.862 108.454 263.635 108.624 263.465L125.474 246.615C125.644 246.445 125.871 246.445 126.041 246.615L142.891 263.465C142.948 263.522 143.005 263.635 143.005 263.749Z" fill="#6093B9"/>
<path d="M168.648 196.008C168.648 196.121 168.591 196.235 168.535 196.292L126.041 238.786C125.87 238.956 125.643 238.956 125.473 238.786L82.9792 196.292C82.809 196.121 82.809 195.895 82.9792 195.724C83.1494 195.554 83.3764 195.554 83.5466 195.724L125.757 237.935L167.967 195.724C168.138 195.554 168.364 195.554 168.535 195.724C168.591 195.838 168.648 195.895 168.648 196.008Z" fill="#6093B9"/>
<path d="M159.853 196.008C159.853 196.121 159.797 196.235 159.74 196.292L126.04 229.992C125.87 230.162 125.643 230.162 125.472 229.992L91.7722 196.292C91.602 196.121 91.602 195.895 91.7722 195.724C91.9424 195.554 92.1693 195.554 92.3395 195.724L125.756 229.141L159.173 195.724C159.343 195.554 159.57 195.554 159.74 195.724C159.797 195.838 159.853 195.895 159.853 196.008Z" fill="#6093B9"/>
<path d="M151.402 196.008C151.402 196.121 151.345 196.235 151.288 196.291C151.118 196.462 150.891 196.462 150.721 196.291L125.758 171.328L100.795 196.291C100.624 196.462 100.397 196.462 100.227 196.291C100.057 196.121 100.057 195.894 100.227 195.724L125.474 170.477C125.644 170.307 125.871 170.307 126.041 170.477L151.288 195.724C151.345 195.838 151.402 195.894 151.402 196.008Z" fill="#6093B9"/>
<path d="M143.005 196.008C143.005 196.122 142.948 196.235 142.891 196.292C142.721 196.462 142.494 196.462 142.324 196.292L125.758 179.726L109.191 196.349C109.021 196.519 108.794 196.519 108.624 196.349C108.454 196.179 108.454 195.952 108.624 195.781L125.474 178.931C125.644 178.761 125.871 178.761 126.041 178.931L142.891 195.781C142.948 195.838 143.005 195.895 143.005 196.008Z" fill="#6093B9"/>
<path d="M168.648 128.323C168.648 128.437 168.591 128.55 168.535 128.607L126.041 171.101C125.984 171.158 125.87 171.215 125.757 171.215C125.643 171.215 125.53 171.158 125.473 171.101L82.9792 128.607C82.809 128.437 82.809 128.21 82.9792 128.04C83.1494 127.87 83.3764 127.87 83.5466 128.04L125.757 170.25L167.967 128.04C168.138 127.87 168.364 127.87 168.535 128.04C168.591 128.096 168.648 128.21 168.648 128.323Z" fill="#6093B9"/>
<path d="M159.853 128.323C159.853 128.437 159.797 128.55 159.74 128.607L126.04 162.307C125.983 162.364 125.87 162.421 125.756 162.421C125.643 162.421 125.529 162.364 125.472 162.307L91.7722 128.607C91.602 128.437 91.602 128.21 91.7722 128.04C91.9424 127.87 92.1693 127.87 92.3395 128.04L125.756 161.456L159.173 128.04C159.343 127.87 159.57 127.87 159.74 128.04C159.797 128.096 159.853 128.21 159.853 128.323Z" fill="#6093B9"/>
<path d="M151.402 128.323C151.402 128.437 151.345 128.55 151.288 128.607C151.118 128.777 150.891 128.777 150.721 128.607L125.758 103.644L100.795 128.607C100.624 128.777 100.397 128.777 100.227 128.607C100.057 128.437 100.057 128.21 100.227 128.039L125.474 102.793C125.644 102.622 125.871 102.622 126.041 102.793L151.288 128.039C151.345 128.096 151.402 128.21 151.402 128.323Z" fill="#6093B9"/>
<path d="M143.005 128.323C143.005 128.436 142.948 128.55 142.891 128.607C142.721 128.777 142.494 128.777 142.324 128.607L125.758 112.04L109.191 128.607C109.021 128.777 108.794 128.777 108.624 128.607C108.454 128.436 108.454 128.209 108.624 128.039L125.474 111.189C125.644 111.019 125.871 111.019 126.041 111.189L142.891 128.039C142.948 128.096 143.005 128.209 143.005 128.323Z" fill="#6093B9"/>
<path d="M168.648 60.5842C168.648 60.6976 168.591 60.8111 168.535 60.8678L126.041 103.362C125.87 103.532 125.643 103.532 125.473 103.362L82.9792 60.8678C82.809 60.6976 82.809 60.4707 82.9792 60.3005C83.1494 60.1303 83.3764 60.1303 83.5466 60.3005L125.757 102.511L167.967 60.3005C168.138 60.1303 168.364 60.1303 168.535 60.3005C168.591 60.3572 168.648 60.4707 168.648 60.5842Z" fill="#6093B9"/>
<path d="M159.853 60.5842C159.853 60.6976 159.797 60.8111 159.74 60.8678L126.04 94.5681C125.983 94.6248 125.87 94.6815 125.756 94.6815C125.643 94.6815 125.529 94.6248 125.472 94.5681L91.7722 60.8678C91.602 60.6976 91.602 60.4707 91.7722 60.3005C91.9424 60.1303 92.1693 60.1303 92.3395 60.3005L125.756 93.7171L159.173 60.3005C159.343 60.1303 159.57 60.1303 159.74 60.3005C159.797 60.3572 159.853 60.4707 159.853 60.5842Z" fill="#6093B9"/>
<path d="M151.402 60.5839C151.402 60.6974 151.345 60.8108 151.288 60.8676C151.118 61.0378 150.891 61.0378 150.721 60.8676L125.758 35.9044L100.795 60.8676C100.624 61.0378 100.397 61.0378 100.227 60.8676C100.057 60.6974 100.057 60.4704 100.227 60.3002L125.474 35.0534C125.644 34.8832 125.871 34.8832 126.041 35.0534L151.288 60.3002C151.345 60.357 151.402 60.4704 151.402 60.5839Z" fill="#6093B9"/>
<path d="M143.005 60.5837C143.005 60.6972 142.948 60.8106 142.891 60.8674C142.721 61.0376 142.494 61.0376 142.324 60.8674L125.758 44.3009L109.191 60.8674C109.021 61.0376 108.794 61.0376 108.624 60.8674C108.454 60.6972 108.454 60.4702 108.624 60.3L125.474 43.4499C125.644 43.2797 125.871 43.2797 126.041 43.4499L142.891 60.3C142.948 60.3568 143.005 60.4702 143.005 60.5837Z" fill="#6093B9"/>
<path d="M168.648 -7.15704C168.648 -7.04357 168.591 -6.9301 168.535 -6.87336L126.041 35.6207C125.984 35.6774 125.87 35.7342 125.757 35.7342C125.643 35.7342 125.53 35.6774 125.473 35.6207L82.9792 -6.87336C82.809 -7.04357 82.809 -7.2705 82.9792 -7.44071C83.1494 -7.61091 83.3764 -7.61091 83.5466 -7.44071L125.757 34.7697L167.967 -7.44071C168.138 -7.61091 168.364 -7.61091 168.535 -7.44071C168.591 -7.32724 168.648 -7.2705 168.648 -7.15704Z" fill="#6093B9"/>
<path d="M159.853 -7.15704C159.853 -7.04357 159.797 -6.9301 159.74 -6.87336L126.04 26.8269C125.983 26.8836 125.87 26.9403 125.756 26.9403C125.643 26.9403 125.529 26.8836 125.472 26.8269L91.7722 -6.87336C91.602 -7.04357 91.602 -7.2705 91.7722 -7.44071C91.9424 -7.61091 92.1693 -7.61091 92.3395 -7.44071L125.756 25.9759L159.173 -7.44071C159.343 -7.61091 159.57 -7.61091 159.74 -7.44071C159.797 -7.32724 159.853 -7.2705 159.853 -7.15704Z" fill="#6093B9"/>
<path d="M185.273 297.62C185.273 297.734 185.216 297.847 185.159 297.904C184.989 298.074 184.762 298.074 184.592 297.904L159.629 272.941L134.666 297.904C134.495 298.074 134.269 298.074 134.098 297.904C133.928 297.734 133.928 297.507 134.098 297.336L159.345 272.09C159.515 271.919 159.742 271.919 159.913 272.09L185.159 297.336C185.216 297.393 185.273 297.507 185.273 297.62Z" fill="#6093B9"/>
<path d="M202.463 229.879C202.463 229.993 202.406 230.106 202.349 230.163L159.855 272.657C159.685 272.827 159.458 272.827 159.288 272.657L116.794 230.163C116.623 229.993 116.623 229.766 116.794 229.595C116.964 229.425 117.191 229.425 117.361 229.595L159.571 271.806L201.782 229.595C201.952 229.425 202.179 229.425 202.349 229.595C202.463 229.652 202.463 229.766 202.463 229.879Z" fill="#6093B9"/>
<path d="M193.668 229.879C193.668 229.993 193.611 230.106 193.554 230.163L159.854 263.863C159.684 264.033 159.457 264.033 159.287 263.863L125.587 230.163C125.416 229.993 125.416 229.766 125.587 229.595C125.757 229.425 125.984 229.425 126.154 229.595L159.571 263.012L192.987 229.595C193.157 229.425 193.384 229.425 193.554 229.595C193.668 229.652 193.668 229.766 193.668 229.879Z" fill="#6093B9"/>
<path d="M185.273 229.879C185.273 229.992 185.216 230.106 185.159 230.163C184.989 230.333 184.762 230.333 184.592 230.163L159.629 205.199L134.666 230.163C134.495 230.333 134.269 230.333 134.098 230.163C133.928 229.992 133.928 229.765 134.098 229.595L159.345 204.348C159.515 204.178 159.742 204.178 159.913 204.348L185.159 229.595C185.216 229.652 185.273 229.765 185.273 229.879Z" fill="#6093B9"/>
<path d="M176.876 229.879C176.876 229.992 176.819 230.106 176.762 230.162C176.592 230.333 176.365 230.333 176.195 230.162L159.629 213.596L143.062 230.162C142.892 230.333 142.665 230.333 142.495 230.162C142.325 229.992 142.325 229.765 142.495 229.595L159.345 212.745C159.515 212.575 159.742 212.575 159.912 212.745L176.762 229.595C176.819 229.652 176.876 229.765 176.876 229.879Z" fill="#6093B9"/>
<path d="M202.463 162.195C202.463 162.308 202.406 162.422 202.349 162.478L159.912 204.916C159.855 204.972 159.742 205.029 159.628 205.029C159.515 205.029 159.401 204.972 159.344 204.916L116.85 162.422C116.68 162.251 116.68 162.024 116.85 161.854C117.021 161.684 117.247 161.684 117.418 161.854L159.628 204.065L201.838 161.854C202.009 161.684 202.236 161.684 202.406 161.854C202.463 161.968 202.463 162.081 202.463 162.195Z" fill="#6093B9"/>
<path d="M193.668 162.195C193.668 162.308 193.611 162.421 193.554 162.478L159.854 196.178C159.684 196.349 159.457 196.349 159.287 196.178L125.587 162.478C125.416 162.308 125.416 162.081 125.587 161.911C125.757 161.741 125.984 161.741 126.154 161.911L159.571 195.327L192.987 161.911C193.157 161.741 193.384 161.741 193.554 161.911C193.668 161.968 193.668 162.081 193.668 162.195Z" fill="#6093B9"/>
<path d="M185.273 162.194C185.273 162.308 185.216 162.421 185.159 162.478C184.989 162.648 184.762 162.648 184.592 162.478L159.629 137.515L134.666 162.478C134.495 162.648 134.269 162.648 134.098 162.478C133.928 162.308 133.928 162.081 134.098 161.911L159.345 136.664C159.515 136.494 159.742 136.494 159.913 136.664L185.159 161.911C185.216 161.967 185.273 162.081 185.273 162.194Z" fill="#6093B9"/>
<path d="M176.876 162.194C176.876 162.308 176.819 162.421 176.763 162.478C176.592 162.648 176.365 162.648 176.195 162.478L159.572 145.911L143.006 162.478C142.835 162.648 142.608 162.648 142.438 162.478C142.268 162.308 142.268 162.081 142.438 161.91L159.288 145.06C159.459 144.89 159.685 144.89 159.856 145.06L176.706 161.91C176.819 161.967 176.876 162.081 176.876 162.194Z" fill="#6093B9"/>
<path d="M202.463 94.4533C202.463 94.5668 202.406 94.6803 202.349 94.737L159.855 137.231C159.685 137.401 159.458 137.401 159.288 137.231L116.794 94.737C116.623 94.5668 116.623 94.3398 116.794 94.1696C116.964 93.9994 117.191 93.9994 117.361 94.1696L159.571 136.38L201.782 94.1696C201.952 93.9994 202.179 93.9994 202.349 94.1696C202.463 94.2264 202.463 94.3398 202.463 94.4533Z" fill="#6093B9"/>
<path d="M193.668 94.4533C193.668 94.5668 193.611 94.6803 193.554 94.737L159.854 128.437C159.684 128.607 159.457 128.607 159.287 128.437L125.587 94.737C125.416 94.5668 125.416 94.3398 125.587 94.1696C125.757 93.9994 125.984 93.9994 126.154 94.1696L159.571 127.586L192.987 94.1696C193.157 93.9994 193.384 93.9994 193.554 94.1696C193.668 94.2264 193.668 94.3398 193.668 94.4533Z" fill="#6093B9"/>
<path d="M185.273 94.4531C185.273 94.5665 185.216 94.68 185.159 94.7367C184.989 94.9069 184.762 94.9069 184.592 94.7367L159.629 69.7736L134.666 94.7367C134.495 94.9069 134.269 94.9069 134.098 94.7367C133.928 94.5665 133.928 94.3396 134.098 94.1694L159.345 68.9226C159.515 68.7524 159.742 68.7524 159.913 68.9226L185.159 94.1694C185.216 94.2261 185.273 94.3396 185.273 94.4531Z" fill="#6093B9"/>
<path d="M176.876 94.4528C176.876 94.5663 176.819 94.6798 176.762 94.7365C176.592 94.9067 176.365 94.9067 176.195 94.7365L159.629 78.1701L143.062 94.7365C142.892 94.9067 142.665 94.9067 142.495 94.7365C142.325 94.5663 142.325 94.3394 142.495 94.1692L159.345 77.3191C159.515 77.1489 159.742 77.1489 159.912 77.3191L176.762 94.1692C176.819 94.2259 176.876 94.3394 176.876 94.4528Z" fill="#6093B9"/>
<path d="M202.463 26.7131C202.463 26.8266 202.406 26.94 202.349 26.9968L159.855 69.4908C159.798 69.5475 159.685 69.6043 159.571 69.6043C159.458 69.6043 159.344 69.5475 159.288 69.4908L116.794 26.9968C116.623 26.8266 116.623 26.5996 116.794 26.4294C116.964 26.2592 117.191 26.2592 117.361 26.4294L159.571 68.6398L201.782 26.4294C201.952 26.2592 202.179 26.2592 202.349 26.4294C202.463 26.4861 202.463 26.5996 202.463 26.7131Z" fill="#6093B9"/>
<path d="M193.668 26.7131C193.668 26.8266 193.611 26.94 193.554 26.9968L159.854 60.697C159.684 60.8672 159.457 60.8672 159.287 60.697L125.587 26.9968C125.416 26.8266 125.416 26.5996 125.587 26.4294C125.757 26.2592 125.984 26.2592 126.154 26.4294L159.571 59.846L192.987 26.4294C193.157 26.2592 193.384 26.2592 193.554 26.4294C193.668 26.4861 193.668 26.5996 193.668 26.7131Z" fill="#6093B9"/>
<path d="M185.273 26.7128C185.273 26.8263 185.216 26.9398 185.159 26.9965C184.989 27.1667 184.762 27.1667 184.592 26.9965L159.629 2.03336L134.666 26.9965C134.495 27.1667 134.269 27.1667 134.098 26.9965C133.928 26.8263 133.928 26.5993 134.098 26.4291L159.345 1.18234C159.515 1.01214 159.742 1.01214 159.913 1.18234L185.159 26.4291C185.216 26.4859 185.273 26.5993 185.273 26.7128Z" fill="#6093B9"/>
<path d="M176.876 26.7126C176.876 26.8261 176.819 26.9395 176.762 26.9963C176.592 27.1665 176.365 27.1665 176.195 26.9963L159.629 10.4298L143.062 26.9963C142.892 27.1665 142.665 27.1665 142.495 26.9963C142.325 26.8261 142.325 26.5991 142.495 26.4289L159.345 9.57882C159.515 9.40862 159.742 9.40862 159.912 9.57882L176.762 26.4289C176.819 26.4857 176.876 26.5991 176.876 26.7126Z" fill="#6093B9"/>
<path d="M202.463 -40.9705C202.463 -40.857 202.406 -40.7436 202.349 -40.6868L159.855 1.80721C159.798 1.86395 159.685 1.92068 159.571 1.92068C159.458 1.92068 159.344 1.86395 159.288 1.80721L116.794 -40.6868C116.623 -40.857 116.623 -41.084 116.794 -41.2542C116.964 -41.4244 117.191 -41.4244 117.361 -41.2542L159.571 0.956196L201.782 -41.2542C201.952 -41.4244 202.179 -41.4244 202.349 -41.2542C202.463 -41.1974 202.463 -41.084 202.463 -40.9705Z" fill="#6093B9"/>
<path d="M236.334 263.749C236.334 263.863 236.277 263.976 236.22 264.033L193.726 306.527C193.669 306.584 193.556 306.64 193.442 306.64C193.329 306.64 193.216 306.584 193.159 306.527L150.665 264.033C150.495 263.863 150.495 263.636 150.665 263.466C150.835 263.295 151.062 263.295 151.232 263.466L193.442 305.676L235.653 263.466C235.823 263.295 236.05 263.295 236.22 263.466C236.334 263.522 236.334 263.636 236.334 263.749Z" fill="#6093B9"/>
<path d="M227.539 263.749C227.539 263.863 227.482 263.976 227.426 264.033L193.725 297.733C193.555 297.903 193.328 297.903 193.158 297.733L159.458 264.033C159.288 263.863 159.288 263.636 159.458 263.466C159.628 263.295 159.855 263.295 160.025 263.466L193.442 296.882L226.858 263.466C227.028 263.295 227.255 263.295 227.426 263.466C227.539 263.522 227.539 263.636 227.539 263.749Z" fill="#6093B9"/>
<path d="M219.087 263.749C219.087 263.862 219.03 263.976 218.974 264.033C218.804 264.203 218.577 264.203 218.406 264.033L193.443 239.069L168.48 264.033C168.31 264.203 168.083 264.203 167.913 264.033C167.743 263.862 167.743 263.635 167.913 263.465L193.16 238.218C193.33 238.048 193.557 238.048 193.727 238.218L218.974 263.465C219.087 263.522 219.087 263.635 219.087 263.749Z" fill="#6093B9"/>
<path d="M210.69 263.749C210.69 263.862 210.634 263.976 210.577 264.032C210.407 264.203 210.18 264.203 210.01 264.032L193.443 247.466L176.877 264.032C176.706 264.203 176.479 264.203 176.309 264.032C176.139 263.862 176.139 263.635 176.309 263.465L193.159 246.615C193.33 246.445 193.557 246.445 193.727 246.615L210.577 263.465C210.69 263.522 210.69 263.635 210.69 263.749Z" fill="#6093B9"/>
<path d="M236.334 196.008C236.334 196.121 236.277 196.235 236.22 196.292L193.726 238.786C193.556 238.956 193.329 238.956 193.159 238.786L150.665 196.292C150.495 196.121 150.495 195.895 150.665 195.724C150.835 195.554 151.062 195.554 151.232 195.724L193.442 237.935L235.653 195.724C235.823 195.554 236.05 195.554 236.22 195.724C236.334 195.838 236.334 195.895 236.334 196.008Z" fill="#6093B9"/>
<path d="M227.539 196.008C227.539 196.121 227.482 196.235 227.426 196.292L193.725 229.992C193.555 230.162 193.328 230.162 193.158 229.992L159.458 196.292C159.288 196.121 159.288 195.895 159.458 195.724C159.628 195.554 159.855 195.554 160.025 195.724L193.442 229.141L226.858 195.724C227.028 195.554 227.255 195.554 227.426 195.724C227.539 195.838 227.539 195.895 227.539 196.008Z" fill="#6093B9"/>
<path d="M219.087 196.008C219.087 196.121 219.03 196.235 218.974 196.291C218.804 196.462 218.577 196.462 218.406 196.291L193.443 171.328L168.48 196.291C168.31 196.462 168.083 196.462 167.913 196.291C167.743 196.121 167.743 195.894 167.913 195.724L193.16 170.477C193.33 170.307 193.557 170.307 193.727 170.477L218.974 195.724C219.087 195.838 219.087 195.894 219.087 196.008Z" fill="#6093B9"/>
<path d="M210.69 196.008C210.69 196.121 210.634 196.234 210.577 196.291C210.407 196.461 210.18 196.461 210.01 196.291L193.443 179.725L176.877 196.291C176.706 196.461 176.479 196.461 176.309 196.291C176.139 196.121 176.139 195.894 176.309 195.724L193.159 178.874C193.33 178.704 193.557 178.704 193.727 178.874L210.577 195.724C210.69 195.837 210.69 195.894 210.69 196.008Z" fill="#6093B9"/>
<path d="M236.334 128.323C236.334 128.437 236.277 128.55 236.22 128.607L193.726 171.101C193.669 171.158 193.556 171.215 193.442 171.215C193.329 171.215 193.216 171.158 193.159 171.101L150.665 128.607C150.495 128.437 150.495 128.21 150.665 128.04C150.835 127.87 151.062 127.87 151.232 128.04L193.442 170.25L235.653 128.04C235.823 127.87 236.05 127.87 236.22 128.04C236.334 128.096 236.334 128.21 236.334 128.323Z" fill="#6093B9"/>
<path d="M227.539 128.323C227.539 128.437 227.482 128.55 227.426 128.607L193.725 162.307C193.555 162.478 193.328 162.478 193.158 162.307L159.458 128.607C159.288 128.437 159.288 128.21 159.458 128.04C159.628 127.87 159.855 127.87 160.025 128.04L193.442 161.456L226.858 128.04C227.028 127.87 227.255 127.87 227.426 128.04C227.539 128.096 227.539 128.21 227.539 128.323Z" fill="#6093B9"/>
<path d="M219.087 128.323C219.087 128.437 219.03 128.55 218.974 128.607C218.804 128.777 218.577 128.777 218.406 128.607L193.443 103.644L168.48 128.607C168.31 128.777 168.083 128.777 167.913 128.607C167.743 128.437 167.743 128.21 167.913 128.039L193.16 102.793C193.33 102.622 193.557 102.622 193.727 102.793L218.974 128.039C219.087 128.096 219.087 128.21 219.087 128.323Z" fill="#6093B9"/>
<path d="M210.69 128.323C210.69 128.436 210.634 128.55 210.577 128.607C210.407 128.777 210.18 128.777 210.01 128.607L193.443 112.04L176.877 128.607C176.706 128.777 176.479 128.777 176.309 128.607C176.139 128.436 176.139 128.209 176.309 128.039L193.159 111.189C193.33 111.019 193.557 111.019 193.727 111.189L210.577 128.039C210.69 128.096 210.69 128.209 210.69 128.323Z" fill="#6093B9"/>
<path d="M236.334 60.5842C236.334 60.6976 236.277 60.8111 236.22 60.8678L193.726 103.362C193.556 103.532 193.329 103.532 193.159 103.362L150.665 60.8678C150.495 60.6976 150.495 60.4707 150.665 60.3005C150.835 60.1303 151.062 60.1303 151.232 60.3005L193.442 102.511L235.653 60.3005C235.823 60.1303 236.05 60.1303 236.22 60.3005C236.334 60.3572 236.334 60.4707 236.334 60.5842Z" fill="#6093B9"/>
<path d="M227.539 60.5842C227.539 60.6976 227.482 60.8111 227.426 60.8678L193.725 94.5681C193.555 94.7383 193.328 94.7383 193.158 94.5681L159.458 60.8678C159.288 60.6976 159.288 60.4707 159.458 60.3005C159.628 60.1303 159.855 60.1303 160.025 60.3005L193.442 93.7171L226.858 60.3005C227.028 60.1303 227.255 60.1303 227.426 60.3005C227.539 60.3572 227.539 60.4707 227.539 60.5842Z" fill="#6093B9"/>
<path d="M219.087 60.5839C219.087 60.6974 219.03 60.8108 218.974 60.8676C218.804 61.0378 218.577 61.0378 218.406 60.8676L193.443 35.9044L168.48 60.8676C168.31 61.0378 168.083 61.0378 167.913 60.8676C167.743 60.6974 167.743 60.4704 167.913 60.3002L193.16 35.0534C193.33 34.8832 193.557 34.8832 193.727 35.0534L218.974 60.3002C219.087 60.357 219.087 60.4704 219.087 60.5839Z" fill="#6093B9"/>
<path d="M210.69 60.5837C210.69 60.6972 210.634 60.8106 210.577 60.8674C210.407 61.0376 210.18 61.0376 210.01 60.8674L193.443 44.3009L176.877 60.8674C176.706 61.0376 176.479 61.0376 176.309 60.8674C176.139 60.6972 176.139 60.4702 176.309 60.3L193.159 43.4499C193.33 43.2797 193.557 43.2797 193.727 43.4499L210.577 60.3C210.69 60.3568 210.69 60.4702 210.69 60.5837Z" fill="#6093B9"/>
<path d="M236.334 -7.15704C236.334 -7.04357 236.277 -6.9301 236.22 -6.87336L193.726 35.6207C193.669 35.6774 193.556 35.7342 193.442 35.7342C193.329 35.7342 193.216 35.6774 193.159 35.6207L150.665 -6.87336C150.495 -7.04357 150.495 -7.2705 150.665 -7.44071C150.835 -7.61091 151.062 -7.61091 151.232 -7.44071L193.442 34.7697L235.653 -7.44071C235.823 -7.61091 236.05 -7.61091 236.22 -7.44071C236.334 -7.32724 236.334 -7.2705 236.334 -7.15704Z" fill="#6093B9"/>
<path d="M227.539 -7.15703C227.539 -7.04357 227.482 -6.9301 227.426 -6.87336L193.725 26.8269C193.555 26.9971 193.328 26.9971 193.158 26.8269L159.458 -6.87336C159.288 -7.04357 159.288 -7.2705 159.458 -7.44071C159.628 -7.61091 159.855 -7.61091 160.025 -7.44071L193.442 25.9759L226.858 -7.44071C227.028 -7.61091 227.255 -7.61091 227.426 -7.44071C227.539 -7.32724 227.539 -7.2705 227.539 -7.15703Z" fill="#6093B9"/>
<path d="M252.956 297.62C252.956 297.734 252.9 297.847 252.843 297.904C252.673 298.074 252.446 298.074 252.276 297.904L227.312 272.941L202.349 297.904C202.179 298.074 201.952 298.074 201.782 297.904C201.612 297.734 201.612 297.507 201.782 297.336L227.029 272.09C227.199 271.919 227.426 271.919 227.596 272.09L252.843 297.336C252.956 297.393 252.956 297.507 252.956 297.62Z" fill="#6093B9"/>
<path d="M270.203 229.879C270.203 229.993 270.146 230.106 270.089 230.163L227.595 272.657C227.425 272.827 227.198 272.827 227.028 272.657L184.534 230.163C184.364 229.993 184.364 229.766 184.534 229.595C184.704 229.425 184.931 229.425 185.101 229.595L227.312 271.806L269.522 229.595C269.692 229.425 269.919 229.425 270.089 229.595C270.146 229.652 270.203 229.766 270.203 229.879Z" fill="#6093B9"/>
<path d="M261.408 229.879C261.408 229.993 261.351 230.106 261.295 230.163L227.594 263.863C227.538 263.92 227.424 263.976 227.311 263.976C227.197 263.976 227.084 263.92 227.027 263.863L193.327 230.163C193.157 229.993 193.157 229.766 193.327 229.595C193.497 229.425 193.724 229.425 193.894 229.595L227.311 263.012L260.727 229.595C260.898 229.425 261.124 229.425 261.295 229.595C261.351 229.652 261.408 229.766 261.408 229.879Z" fill="#6093B9"/>
<path d="M252.956 229.879C252.956 229.992 252.9 230.106 252.843 230.163C252.673 230.333 252.446 230.333 252.276 230.163L227.312 205.199L202.349 230.163C202.179 230.333 201.952 230.333 201.782 230.163C201.612 229.992 201.612 229.765 201.782 229.595L227.029 204.348C227.199 204.178 227.426 204.178 227.596 204.348L252.843 229.595C252.956 229.652 252.956 229.765 252.956 229.879Z" fill="#6093B9"/>
<path d="M244.559 229.879C244.559 229.992 244.503 230.106 244.446 230.162C244.276 230.333 244.049 230.333 243.879 230.162L227.312 213.596L210.746 230.162C210.576 230.333 210.349 230.333 210.178 230.162C210.008 229.992 210.008 229.765 210.178 229.595L227.029 212.745C227.199 212.575 227.426 212.575 227.596 212.745L244.446 229.595C244.559 229.652 244.559 229.765 244.559 229.879Z" fill="#6093B9"/>
<path d="M270.203 162.195C270.203 162.308 270.146 162.422 270.089 162.478L227.595 204.916C227.539 204.972 227.425 205.029 227.312 205.029C227.198 205.029 227.085 204.972 227.028 204.916L184.534 162.422C184.364 162.251 184.364 162.024 184.534 161.854C184.704 161.684 184.931 161.684 185.101 161.854L227.312 204.065L269.522 161.854C269.692 161.684 269.919 161.684 270.089 161.854C270.146 161.968 270.203 162.081 270.203 162.195Z" fill="#6093B9"/>
<path d="M261.408 162.195C261.408 162.308 261.351 162.421 261.295 162.478L227.594 196.178C227.538 196.235 227.424 196.292 227.311 196.292C227.197 196.292 227.084 196.235 227.027 196.178L193.327 162.478C193.157 162.308 193.157 162.081 193.327 161.911C193.497 161.741 193.724 161.741 193.894 161.911L227.311 195.327L260.727 161.911C260.898 161.741 261.124 161.741 261.295 161.911C261.351 161.968 261.408 162.081 261.408 162.195Z" fill="#6093B9"/>
<path d="M252.956 162.194C252.956 162.308 252.9 162.421 252.843 162.478C252.673 162.648 252.446 162.648 252.276 162.478L227.312 137.515L202.349 162.478C202.179 162.648 201.952 162.648 201.782 162.478C201.612 162.308 201.612 162.081 201.782 161.911L227.029 136.664C227.199 136.494 227.426 136.494 227.596 136.664L252.843 161.911C252.956 161.967 252.956 162.081 252.956 162.194Z" fill="#6093B9"/>
<path d="M244.559 162.194C244.559 162.308 244.503 162.421 244.446 162.478C244.276 162.648 244.049 162.648 243.879 162.478L227.312 145.911L210.746 162.478C210.576 162.648 210.349 162.648 210.178 162.478C210.008 162.308 210.008 162.081 210.178 161.91L227.029 145.06C227.199 144.89 227.426 144.89 227.596 145.06L244.446 161.91C244.559 161.967 244.559 162.081 244.559 162.194Z" fill="#6093B9"/>
<path d="M270.203 94.4533C270.203 94.5668 270.146 94.6803 270.089 94.737L227.595 137.231C227.425 137.401 227.198 137.401 227.028 137.231L184.534 94.737C184.364 94.5668 184.364 94.3398 184.534 94.1696C184.704 93.9994 184.931 93.9994 185.101 94.1696L227.312 136.38L269.522 94.1696C269.692 93.9994 269.919 93.9994 270.089 94.1696C270.146 94.2264 270.203 94.3398 270.203 94.4533Z" fill="#6093B9"/>
<path d="M261.408 94.4533C261.408 94.5668 261.351 94.6803 261.295 94.737L227.594 128.437C227.538 128.494 227.424 128.551 227.311 128.551C227.197 128.551 227.084 128.494 227.027 128.437L193.327 94.737C193.157 94.5668 193.157 94.3398 193.327 94.1696C193.497 93.9994 193.724 93.9994 193.894 94.1696L227.311 127.586L260.727 94.1696C260.898 93.9994 261.124 93.9994 261.295 94.1696C261.351 94.2264 261.408 94.3398 261.408 94.4533Z" fill="#6093B9"/>
<path d="M252.956 94.4531C252.956 94.5665 252.9 94.68 252.843 94.7367C252.673 94.9069 252.446 94.9069 252.276 94.7367L227.312 69.7736L202.349 94.7367C202.179 94.9069 201.952 94.9069 201.782 94.7367C201.612 94.5665 201.612 94.3396 201.782 94.1694L227.029 68.9226C227.199 68.7524 227.426 68.7524 227.596 68.9226L252.843 94.1694C252.956 94.2261 252.956 94.3396 252.956 94.4531Z" fill="#6093B9"/>
<path d="M244.559 94.4528C244.559 94.5663 244.503 94.6798 244.446 94.7365C244.276 94.9067 244.049 94.9067 243.879 94.7365L227.312 78.1701L210.746 94.7365C210.576 94.9067 210.349 94.9067 210.178 94.7365C210.008 94.5663 210.008 94.3394 210.178 94.1692L227.029 77.3191C227.199 77.1489 227.426 77.1489 227.596 77.3191L244.446 94.1692C244.559 94.2259 244.559 94.3394 244.559 94.4528Z" fill="#6093B9"/>
<path d="M270.203 26.7131C270.203 26.8266 270.146 26.94 270.089 26.9968L227.595 69.4908C227.539 69.5475 227.425 69.6043 227.312 69.6043C227.198 69.6043 227.085 69.5475 227.028 69.4908L184.534 26.9968C184.364 26.8266 184.364 26.5996 184.534 26.4294C184.704 26.2592 184.931 26.2592 185.101 26.4294L227.312 68.6398L269.522 26.4294C269.692 26.2592 269.919 26.2592 270.089 26.4294C270.146 26.4861 270.203 26.5996 270.203 26.7131Z" fill="#6093B9"/>
<path d="M261.408 26.7131C261.408 26.8266 261.351 26.94 261.295 26.9968L227.594 60.697C227.538 60.7537 227.424 60.8105 227.311 60.8105C227.197 60.8105 227.084 60.7537 227.027 60.697L193.327 26.9968C193.157 26.8266 193.157 26.5996 193.327 26.4294C193.497 26.2592 193.724 26.2592 193.894 26.4294L227.311 59.846L260.727 26.4294C260.898 26.2592 261.124 26.2592 261.295 26.4294C261.351 26.4861 261.408 26.5996 261.408 26.7131Z" fill="#6093B9"/>
<path d="M252.956 26.7128C252.956 26.8263 252.9 26.9398 252.843 26.9965C252.673 27.1667 252.446 27.1667 252.276 26.9965L227.312 2.03336L202.349 26.9965C202.179 27.1667 201.952 27.1667 201.782 26.9965C201.612 26.8263 201.612 26.5993 201.782 26.4291L227.029 1.18234C227.199 1.01214 227.426 1.01214 227.596 1.18234L252.843 26.4291C252.956 26.4859 252.956 26.5993 252.956 26.7128Z" fill="#6093B9"/>
<path d="M244.559 26.7126C244.559 26.8261 244.503 26.9395 244.446 26.9963C244.276 27.1665 244.049 27.1665 243.879 26.9963L227.312 10.4298L210.746 26.9963C210.576 27.1665 210.349 27.1665 210.178 26.9963C210.008 26.8261 210.008 26.5991 210.178 26.4289L227.029 9.57882C227.199 9.40862 227.426 9.40862 227.596 9.57882L244.446 26.4289C244.559 26.4857 244.559 26.5991 244.559 26.7126Z" fill="#6093B9"/>
<path d="M270.203 -40.9705C270.203 -40.857 270.146 -40.7436 270.089 -40.6868L227.595 1.80721C227.539 1.86395 227.425 1.92068 227.312 1.92068C227.198 1.92068 227.085 1.86395 227.028 1.80721L184.534 -40.6868C184.364 -40.857 184.364 -41.084 184.534 -41.2542C184.704 -41.4244 184.931 -41.4244 185.101 -41.2542L227.312 0.956196L269.522 -41.2542C269.692 -41.4244 269.919 -41.4244 270.089 -41.2542C270.146 -41.1974 270.203 -41.084 270.203 -40.9705Z" fill="#6093B9"/>
<path d="M304.074 263.748C304.074 263.862 304.017 263.975 303.96 264.032L261.466 306.526C261.41 306.583 261.296 306.639 261.183 306.639C261.069 306.639 260.956 306.583 260.899 306.526L218.405 264.032C218.235 263.862 218.235 263.635 218.405 263.465C218.575 263.294 218.802 263.294 218.972 263.465L261.183 305.675L303.393 263.465C303.563 263.294 303.79 263.294 303.96 263.465C304.017 263.521 304.074 263.635 304.074 263.748Z" fill="#6093B9"/>
<path d="M304.074 196.008C304.074 196.121 304.017 196.235 303.96 196.292L261.466 238.786C261.296 238.956 261.069 238.956 260.899 238.786L218.405 196.292C218.235 196.121 218.235 195.895 218.405 195.724C218.575 195.554 218.802 195.554 218.972 195.724L261.183 237.935L303.393 195.724C303.563 195.554 303.79 195.554 303.96 195.724C304.017 195.838 304.074 195.895 304.074 196.008Z" fill="#6093B9"/>
<path d="M304.074 128.324C304.074 128.438 304.017 128.551 303.96 128.608L261.466 171.102C261.41 171.159 261.296 171.216 261.183 171.216C261.069 171.216 260.956 171.159 260.899 171.102L218.405 128.608C218.235 128.438 218.235 128.211 218.405 128.041C218.575 127.871 218.802 127.871 218.972 128.041L261.183 170.251L303.393 128.041C303.563 127.871 303.79 127.871 303.96 128.041C304.017 128.097 304.074 128.211 304.074 128.324Z" fill="#6093B9"/>
<path d="M304.074 60.5832C304.074 60.6967 304.017 60.8101 303.96 60.8669L261.466 103.361C261.296 103.531 261.069 103.531 260.899 103.361L218.405 60.8669C218.235 60.6967 218.235 60.4697 218.405 60.2995C218.575 60.1293 218.802 60.1293 218.972 60.2995L261.183 102.51L303.393 60.2995C303.563 60.1293 303.79 60.1293 303.96 60.2995C304.017 60.3563 304.074 60.4697 304.074 60.5832Z" fill="#6093B9"/>
<path d="M304.074 -7.15801C304.074 -7.04454 304.017 -6.93107 303.96 -6.87434L261.466 35.6197C261.41 35.6765 261.296 35.7332 261.183 35.7332C261.069 35.7332 260.956 35.6765 260.899 35.6197L218.405 -6.87434C218.235 -7.04454 218.235 -7.27148 218.405 -7.44168C218.575 -7.61189 218.802 -7.61189 218.972 -7.44168L261.183 34.7687L303.393 -7.44168C303.563 -7.61189 303.79 -7.61189 303.96 -7.44168C304.017 -7.32821 304.074 -7.27148 304.074 -7.15801Z" fill="#6093B9"/>
</g>
</svg>
