<?xml version="1.0" encoding="utf-8"?>
<!-- Generator: Adobe Illustrator 24.1.1, SVG Export Plug-In . SVG Version: 6.00 Build 0)  -->
<svg version="1.1" id="Слой_1" xmlns="http://www.w3.org/2000/svg" xmlns:xlink="http://www.w3.org/1999/xlink" x="0px" y="0px"
	 viewBox="0 0 55 10" style="enable-background:new 0 0 55 10;" xml:space="preserve">
<style type="text/css">
	.st0{fill:#36A38F;}
	.st1{fill:#FFFFFF;}
</style>
<path class="st0" d="M54.76,3.85c-0.03-0.11-0.13-0.18-0.24-0.2l-3.1-0.45l-1.39-2.81c-0.05-0.1-0.15-0.16-0.26-0.16
	s-0.21,0.06-0.26,0.16L48.13,3.2l-3.1,0.45c-0.11,0.02-0.2,0.09-0.24,0.2c-0.03,0.11-0.01,0.22,0.07,0.3l2.24,2.19l-0.53,3.09
	c-0.02,0.11,0.03,0.22,0.12,0.29c0.09,0.07,0.21,0.07,0.31,0.02l2.77-1.46l2.77,1.46c0.04,0.02,0.09,0.03,0.14,0.03
	c0.06,0,0.12-0.02,0.17-0.06c0.09-0.07,0.14-0.18,0.12-0.29l-0.53-3.09l2.24-2.19C54.77,4.08,54.8,3.96,54.76,3.85z M51.93,6.03
	c-0.07,0.07-0.1,0.16-0.08,0.26l0.46,2.65l-2.38-1.25c-0.09-0.04-0.19-0.04-0.27,0l-2.38,1.25l0.46-2.65
	c0.02-0.1-0.02-0.19-0.08-0.26L45.7,4.15l2.67-0.39c0.1-0.01,0.18-0.07,0.22-0.16l1.19-2.41l1.19,2.41
	c0.04,0.09,0.13,0.15,0.22,0.16l2.66,0.39L51.93,6.03z"/>
<path class="st0" d="M10.21,3.85c-0.03-0.11-0.13-0.18-0.24-0.2L6.87,3.2L5.48,0.39c-0.05-0.1-0.15-0.16-0.26-0.16
	c-0.11,0-0.21,0.06-0.26,0.16L3.57,3.2l-3.1,0.45c-0.11,0.02-0.2,0.09-0.24,0.2C0.2,3.96,0.23,4.08,0.31,4.15l2.24,2.19L2.02,9.43
	C2.01,9.54,2.05,9.65,2.14,9.71c0.09,0.07,0.21,0.07,0.31,0.02l2.77-1.46l2.77,1.46c0.04,0.02,0.09,0.03,0.14,0.03
	c0.06,0,0.12-0.02,0.17-0.06c0.09-0.07,0.14-0.18,0.12-0.29L7.89,6.34l2.24-2.19C10.21,4.08,10.24,3.96,10.21,3.85z M7.37,6.03
	C7.3,6.09,7.27,6.19,7.29,6.29l0.46,2.65L5.36,7.69c-0.09-0.04-0.19-0.04-0.27,0L2.7,8.94l0.46-2.65c0.02-0.1-0.02-0.19-0.08-0.26
	L1.14,4.15l2.66-0.39c0.1-0.01,0.18-0.07,0.22-0.16l1.19-2.41L6.41,3.6c0.04,0.09,0.13,0.15,0.22,0.16L9.3,4.15L7.37,6.03z"/>
<path class="st0" d="M21.21,3.85c-0.03-0.11-0.13-0.18-0.24-0.2l-3.1-0.45l-1.39-2.81c-0.05-0.1-0.15-0.16-0.26-0.16
	s-0.21,0.06-0.26,0.16L14.57,3.2l-3.1,0.45c-0.11,0.02-0.2,0.09-0.24,0.2c-0.03,0.11-0.01,0.22,0.07,0.3l2.24,2.19l-0.53,3.09
	c-0.02,0.11,0.03,0.22,0.12,0.29c0.09,0.07,0.21,0.07,0.31,0.02l2.77-1.46l2.77,1.46c0.04,0.02,0.09,0.03,0.14,0.03
	c0.06,0,0.12-0.02,0.17-0.06c0.09-0.07,0.14-0.18,0.12-0.29l-0.53-3.09l2.24-2.19C21.21,4.08,21.24,3.96,21.21,3.85z M18.37,6.03
	c-0.07,0.07-0.1,0.16-0.08,0.26l0.46,2.65l-2.38-1.25c-0.09-0.04-0.19-0.04-0.27,0L13.7,8.94l0.46-2.65
	c0.02-0.1-0.02-0.19-0.08-0.26l-1.93-1.88l2.66-0.39c0.1-0.01,0.18-0.07,0.22-0.16l1.19-2.41l1.19,2.41
	c0.04,0.09,0.13,0.15,0.22,0.16l2.67,0.39L18.37,6.03z"/>
<path class="st0" d="M32.21,3.85c-0.03-0.11-0.13-0.18-0.24-0.2l-3.1-0.45l-1.39-2.81c-0.05-0.1-0.15-0.16-0.26-0.16
	s-0.21,0.06-0.26,0.16L25.57,3.2l-3.1,0.45c-0.11,0.02-0.2,0.09-0.24,0.2c-0.03,0.11-0.01,0.22,0.07,0.3l2.24,2.19l-0.53,3.09
	c-0.02,0.11,0.03,0.22,0.12,0.29c0.09,0.07,0.21,0.07,0.31,0.02l2.77-1.46l2.77,1.46c0.04,0.02,0.09,0.03,0.14,0.03
	c0.06,0,0.12-0.02,0.17-0.06c0.09-0.07,0.14-0.18,0.12-0.29l-0.53-3.09l2.24-2.19C32.21,4.08,32.24,3.96,32.21,3.85z M29.37,6.03
	c-0.07,0.07-0.1,0.16-0.08,0.26l0.46,2.65l-2.38-1.25c-0.09-0.04-0.19-0.04-0.27,0L24.7,8.94l0.46-2.65
	c0.02-0.1-0.02-0.19-0.08-0.26l-1.93-1.88l2.66-0.39c0.1-0.01,0.18-0.07,0.22-0.16l1.19-2.41l1.19,2.41
	c0.04,0.09,0.13,0.15,0.22,0.16l2.67,0.39L29.37,6.03z"/>
<path class="st0" d="M43.21,3.85c-0.03-0.11-0.13-0.18-0.24-0.2l-3.1-0.45l-1.39-2.81c-0.05-0.1-0.15-0.16-0.26-0.16
	s-0.21,0.06-0.26,0.16L36.57,3.2l-3.1,0.45c-0.11,0.02-0.2,0.09-0.24,0.2c-0.03,0.11-0.01,0.22,0.07,0.3l2.24,2.19l-0.53,3.09
	c-0.02,0.11,0.03,0.22,0.12,0.29c0.09,0.07,0.21,0.07,0.31,0.02l2.77-1.46l2.77,1.46c0.04,0.02,0.09,0.03,0.14,0.03
	c0.06,0,0.12-0.02,0.17-0.06c0.09-0.07,0.14-0.18,0.12-0.29l-0.53-3.09l2.24-2.19C43.21,4.08,43.24,3.96,43.21,3.85z M40.37,6.03
	c-0.07,0.07-0.1,0.16-0.08,0.26l0.46,2.65l-2.38-1.25c-0.09-0.04-0.19-0.04-0.27,0L35.7,8.94l0.46-2.65
	c0.02-0.1-0.02-0.19-0.08-0.26l-1.93-1.88l2.66-0.39c0.1-0.01,0.18-0.07,0.22-0.16l1.19-2.41l1.19,2.41
	c0.04,0.09,0.13,0.15,0.22,0.16l2.67,0.39L40.37,6.03z"/>
<g>
	<path class="st1" d="M0,0v10h55V0H0z M10.13,4.15L7.89,6.34l0.53,3.09C8.44,9.54,8.39,9.65,8.3,9.71C8.25,9.75,8.19,9.77,8.13,9.77
		c-0.05,0-0.09-0.01-0.14-0.03L5.22,8.28L2.45,9.74c-0.1,0.05-0.22,0.04-0.31-0.02C2.05,9.65,2.01,9.54,2.02,9.43l0.53-3.09
		L0.31,4.15C0.23,4.08,0.2,3.96,0.24,3.85s0.13-0.18,0.24-0.2l3.1-0.45l1.39-2.81c0.05-0.1,0.15-0.16,0.26-0.16s0.21,0.06,0.26,0.16
		L6.87,3.2l3.1,0.45c0.11,0.02,0.2,0.09,0.24,0.2C10.24,3.96,10.21,4.08,10.13,4.15z M21.13,4.15l-2.24,2.19l0.53,3.09
		c0.02,0.11-0.03,0.22-0.12,0.29c-0.05,0.04-0.11,0.06-0.17,0.06c-0.05,0-0.09-0.01-0.14-0.03l-2.77-1.46l-2.77,1.46
		c-0.1,0.05-0.22,0.04-0.31-0.02c-0.09-0.07-0.14-0.18-0.12-0.29l0.53-3.09l-2.24-2.19c-0.08-0.08-0.11-0.19-0.07-0.3
		s0.13-0.18,0.24-0.2l3.1-0.45l1.39-2.81c0.05-0.1,0.15-0.16,0.26-0.16s0.21,0.06,0.26,0.16l1.39,2.81l3.1,0.45
		c0.11,0.02,0.2,0.09,0.24,0.2C21.24,3.96,21.21,4.08,21.13,4.15z M32.13,4.15l-2.24,2.19l0.53,3.09c0.02,0.11-0.03,0.22-0.12,0.29
		c-0.05,0.04-0.11,0.06-0.17,0.06c-0.05,0-0.09-0.01-0.14-0.03l-2.77-1.46l-2.77,1.46c-0.1,0.05-0.22,0.04-0.31-0.02
		c-0.09-0.07-0.14-0.18-0.12-0.29l0.53-3.09l-2.24-2.19c-0.08-0.08-0.11-0.19-0.07-0.3s0.13-0.18,0.24-0.2l3.1-0.45l1.39-2.81
		c0.05-0.1,0.15-0.16,0.26-0.16s0.21,0.06,0.26,0.16l1.39,2.81l3.1,0.45c0.11,0.02,0.2,0.09,0.24,0.2
		C32.24,3.96,32.21,4.08,32.13,4.15z M43.13,4.15l-2.24,2.19l0.53,3.09c0.02,0.11-0.03,0.22-0.12,0.29
		c-0.05,0.04-0.11,0.06-0.17,0.06c-0.05,0-0.09-0.01-0.14-0.03l-2.77-1.46l-2.77,1.46c-0.1,0.05-0.22,0.04-0.31-0.02
		c-0.09-0.07-0.14-0.18-0.12-0.29l0.53-3.09l-2.24-2.19c-0.08-0.08-0.11-0.19-0.07-0.3s0.13-0.18,0.24-0.2l3.1-0.45l1.39-2.81
		c0.05-0.1,0.15-0.16,0.26-0.16s0.21,0.06,0.26,0.16l1.39,2.81l3.1,0.45c0.11,0.02,0.2,0.09,0.24,0.2
		C43.24,3.96,43.21,4.08,43.13,4.15z M54.69,4.15l-2.24,2.19l0.53,3.09c0.02,0.11-0.03,0.22-0.12,0.29
		c-0.05,0.04-0.11,0.06-0.17,0.06c-0.05,0-0.09-0.01-0.14-0.03l-2.77-1.46l-2.77,1.46c-0.1,0.05-0.22,0.04-0.31-0.02
		c-0.09-0.07-0.14-0.18-0.12-0.29l0.53-3.09l-2.24-2.19c-0.08-0.08-0.11-0.19-0.07-0.3s0.13-0.18,0.24-0.2l3.1-0.45l1.39-2.81
		c0.05-0.1,0.15-0.16,0.26-0.16s0.21,0.06,0.26,0.16l1.39,2.81l3.1,0.45c0.11,0.02,0.2,0.09,0.24,0.2
		C54.8,3.96,54.77,4.08,54.69,4.15z"/>
</g>
</svg>
