<svg width="32" height="15" viewBox="0 0 32 15" fill="none" xmlns="http://www.w3.org/2000/svg">
<path d="M20.6287 4.42732C21.2508 4.42732 21.8345 4.58217 22.3796 4.89185C22.9289 5.20152 23.3569 5.62181 23.664 6.15268C23.9709 6.68356 24.1245 7.25666 24.1245 7.872C24.1245 8.49135 23.9689 9.07051 23.6579 9.60947C23.3509 10.1484 22.9309 10.5706 22.3977 10.8763C21.8646 11.1779 21.277 11.3288 20.6349 11.3288C19.6897 11.3288 18.882 10.9949 18.2115 10.3274C17.5452 9.65564 17.2119 8.84125 17.2119 7.8841C17.2119 6.85851 17.5897 6.00387 18.345 5.32018C19.0072 4.72494 19.7684 4.42732 20.6287 4.42732ZM20.653 5.97773C20.1401 5.97773 19.7119 6.15671 19.3687 6.51465C19.0294 6.86857 18.8598 7.32302 18.8598 7.87805C18.8598 8.44912 19.0275 8.91164 19.3627 9.26555C19.702 9.61953 20.13 9.79642 20.6469 9.79642C21.1639 9.79642 21.5941 9.61749 21.9373 9.2595C22.2806 8.90157 22.4522 8.4411 22.4522 7.87805C22.4522 7.31499 22.2826 6.85851 21.9434 6.50861C21.6082 6.15469 21.1781 5.97773 20.653 5.97773ZM25.4936 2.0625H27.1475V7.30494L29.5827 4.59624H31.6547L28.8196 7.7453L32.0001 11.1598H29.9463L27.1475 8.13744V11.1598H25.4936V2.0625Z" fill="#44445F"/>
<path d="M10.7824 4.29411L6.36994 8.65226L4.5503 6.85498L4.29401 6.60185L4.03772 6.85498L3.065 7.81577L2.8023 8.07522L3.06501 8.33475L5.48137 10.7213C5.97262 11.2065 6.76725 11.2065 7.2585 10.7213L12.2677 5.77382L12.5304 5.51434L12.2677 5.25486L11.295 4.29411L11.0387 4.04098L10.7824 4.29411ZM14.3021 7.56471C14.3021 11.186 11.3286 14.1294 7.65108 14.1294C3.97352 14.1294 1 11.186 1 7.56471C1 3.94337 3.97352 1 7.65108 1C11.3286 1 14.3021 3.94337 14.3021 7.56471Z" stroke="#44445F"/>
</svg>
