<svg width="21" height="22" viewBox="0 0 21 22" fill="none" xmlns="http://www.w3.org/2000/svg">
<g clip-path="url(#clip0)">
<path d="M0.362897 9.88776L5.49827 12.4471C5.6969 12.5451 5.9314 12.5381 6.12127 12.427L10.6923 9.76963L7.92552 12.2214C7.78465 12.3465 7.70415 12.525 7.70415 12.7131V18.685C7.70415 19.315 8.50827 19.5801 8.8854 19.0796L11.1053 16.1283L16.595 19.2546C16.98 19.476 17.4735 19.2538 17.5628 18.8136L20.9866 1.75113C21.089 1.23838 20.5789 0.82013 20.1046 1.01088L0.417147 8.68901C-0.111353 8.89551 -0.145478 9.63488 0.362897 9.88776ZM19.4641 2.66988L16.455 17.6648L11.2531 14.702C10.9696 14.5401 10.6048 14.6119 10.4035 14.8779L9.01665 16.7215V13.008L16.4988 6.37901C17.0911 5.85488 16.4104 4.92301 15.734 5.32026L5.76777 11.1145L2.27477 9.37413L19.4641 2.66988Z" fill="#346589"/>
</g>
<defs>
<clipPath id="clip0">
<rect width="21" height="21" fill="white" transform="translate(0 0.0908203)"/>
</clipPath>
</defs>
</svg>
