<svg width="25" height="25" viewBox="0 0 25 25" fill="none" xmlns="http://www.w3.org/2000/svg">
<path d="M0.431439 11.6627L6.54498 14.7096C6.78144 14.8263 7.06061 14.8179 7.28665 14.6857L12.7283 11.5221L9.43456 14.4409C9.26686 14.5898 9.17102 14.8023 9.17102 15.0263V22.1357C9.17102 22.8857 10.1283 23.2013 10.5773 22.6054L13.22 19.0919L19.7554 22.8138C20.2137 23.0773 20.8012 22.8127 20.9075 22.2888L24.9835 1.97628C25.1054 1.36586 24.4981 0.867947 23.9335 1.09503L0.496022 10.2357C-0.133144 10.4815 -0.173769 11.3617 0.431439 11.6627ZM23.171 3.07003L19.5887 20.9211L13.396 17.394C13.0585 17.2013 12.6241 17.2867 12.3846 17.6034L10.7335 19.7982V15.3773L19.6408 7.48565C20.346 6.8617 19.5356 5.75232 18.7304 6.22524L6.86581 13.1232L2.70748 11.0513L23.171 3.07003Z" fill="#6093B9"/>
</svg>
